%TF.GenerationSoftware,KiCad,Pcbnew,5.1.12-1.fc34*%
%TF.CreationDate,2021-12-13T19:31:17+01:00*%
%TF.ProjectId,fdrm05-devboard,6664726d-3035-42d6-9465-76626f617264,1*%
%TF.SameCoordinates,Original*%
%TF.FileFunction,Legend,Top*%
%TF.FilePolarity,Positive*%
%FSLAX46Y46*%
G04 Gerber Fmt 4.6, Leading zero omitted, Abs format (unit mm)*
G04 Created by KiCad (PCBNEW 5.1.12-1.fc34) date 2021-12-13 19:31:17*
%MOMM*%
%LPD*%
G01*
G04 APERTURE LIST*
%ADD10C,0.150000*%
%ADD11C,0.200000*%
%ADD12C,0.120000*%
%ADD13C,0.250000*%
%ADD14C,0.450000*%
%ADD15C,0.508000*%
%ADD16C,0.304800*%
%ADD17C,0.127000*%
%ADD18C,0.010000*%
G04 APERTURE END LIST*
D10*
X109002380Y-100169047D02*
X109716666Y-100169047D01*
X109859523Y-100216666D01*
X109954761Y-100311904D01*
X110002380Y-100454761D01*
X110002380Y-100550000D01*
X110002380Y-99216666D02*
X110002380Y-99692857D01*
X109002380Y-99692857D01*
X109907142Y-98311904D02*
X109954761Y-98359523D01*
X110002380Y-98502380D01*
X110002380Y-98597619D01*
X109954761Y-98740476D01*
X109859523Y-98835714D01*
X109764285Y-98883333D01*
X109573809Y-98930952D01*
X109430952Y-98930952D01*
X109240476Y-98883333D01*
X109145238Y-98835714D01*
X109050000Y-98740476D01*
X109002380Y-98597619D01*
X109002380Y-98502380D01*
X109050000Y-98359523D01*
X109097619Y-98311904D01*
X109002380Y-97597619D02*
X109716666Y-97597619D01*
X109859523Y-97645238D01*
X109954761Y-97740476D01*
X110002380Y-97883333D01*
X110002380Y-97978571D01*
X110002380Y-96645238D02*
X110002380Y-97121428D01*
X109002380Y-97121428D01*
X109907142Y-95740476D02*
X109954761Y-95788095D01*
X110002380Y-95930952D01*
X110002380Y-96026190D01*
X109954761Y-96169047D01*
X109859523Y-96264285D01*
X109764285Y-96311904D01*
X109573809Y-96359523D01*
X109430952Y-96359523D01*
X109240476Y-96311904D01*
X109145238Y-96264285D01*
X109050000Y-96169047D01*
X109002380Y-96026190D01*
X109002380Y-95930952D01*
X109050000Y-95788095D01*
X109097619Y-95740476D01*
X109002380Y-95026190D02*
X109716666Y-95026190D01*
X109859523Y-95073809D01*
X109954761Y-95169047D01*
X110002380Y-95311904D01*
X110002380Y-95407142D01*
X110002380Y-94073809D02*
X110002380Y-94550000D01*
X109002380Y-94550000D01*
X109907142Y-93169047D02*
X109954761Y-93216666D01*
X110002380Y-93359523D01*
X110002380Y-93454761D01*
X109954761Y-93597619D01*
X109859523Y-93692857D01*
X109764285Y-93740476D01*
X109573809Y-93788095D01*
X109430952Y-93788095D01*
X109240476Y-93740476D01*
X109145238Y-93692857D01*
X109050000Y-93597619D01*
X109002380Y-93454761D01*
X109002380Y-93359523D01*
X109050000Y-93216666D01*
X109097619Y-93169047D01*
X109002380Y-92454761D02*
X109716666Y-92454761D01*
X109859523Y-92502380D01*
X109954761Y-92597619D01*
X110002380Y-92740476D01*
X110002380Y-92835714D01*
X110002380Y-91502380D02*
X110002380Y-91978571D01*
X109002380Y-91978571D01*
X109907142Y-90597619D02*
X109954761Y-90645238D01*
X110002380Y-90788095D01*
X110002380Y-90883333D01*
X109954761Y-91026190D01*
X109859523Y-91121428D01*
X109764285Y-91169047D01*
X109573809Y-91216666D01*
X109430952Y-91216666D01*
X109240476Y-91169047D01*
X109145238Y-91121428D01*
X109050000Y-91026190D01*
X109002380Y-90883333D01*
X109002380Y-90788095D01*
X109050000Y-90645238D01*
X109097619Y-90597619D01*
D11*
X158289571Y-99034285D02*
X158346714Y-99091428D01*
X158403857Y-99262857D01*
X158403857Y-99377142D01*
X158346714Y-99548571D01*
X158232428Y-99662857D01*
X158118142Y-99720000D01*
X157889571Y-99777142D01*
X157718142Y-99777142D01*
X157489571Y-99720000D01*
X157375285Y-99662857D01*
X157261000Y-99548571D01*
X157203857Y-99377142D01*
X157203857Y-99262857D01*
X157261000Y-99091428D01*
X157318142Y-99034285D01*
X158403857Y-97834285D02*
X157832428Y-98234285D01*
X158403857Y-98520000D02*
X157203857Y-98520000D01*
X157203857Y-98062857D01*
X157261000Y-97948571D01*
X157318142Y-97891428D01*
X157432428Y-97834285D01*
X157603857Y-97834285D01*
X157718142Y-97891428D01*
X157775285Y-97948571D01*
X157832428Y-98062857D01*
X157832428Y-98520000D01*
X157318142Y-97377142D02*
X157261000Y-97320000D01*
X157203857Y-97205714D01*
X157203857Y-96920000D01*
X157261000Y-96805714D01*
X157318142Y-96748571D01*
X157432428Y-96691428D01*
X157546714Y-96691428D01*
X157718142Y-96748571D01*
X158403857Y-97434285D01*
X158403857Y-96691428D01*
X157203857Y-95948571D02*
X157203857Y-95834285D01*
X157261000Y-95720000D01*
X157318142Y-95662857D01*
X157432428Y-95605714D01*
X157661000Y-95548571D01*
X157946714Y-95548571D01*
X158175285Y-95605714D01*
X158289571Y-95662857D01*
X158346714Y-95720000D01*
X158403857Y-95834285D01*
X158403857Y-95948571D01*
X158346714Y-96062857D01*
X158289571Y-96120000D01*
X158175285Y-96177142D01*
X157946714Y-96234285D01*
X157661000Y-96234285D01*
X157432428Y-96177142D01*
X157318142Y-96120000D01*
X157261000Y-96062857D01*
X157203857Y-95948571D01*
X157203857Y-95148571D02*
X157203857Y-94405714D01*
X157661000Y-94805714D01*
X157661000Y-94634285D01*
X157718142Y-94520000D01*
X157775285Y-94462857D01*
X157889571Y-94405714D01*
X158175285Y-94405714D01*
X158289571Y-94462857D01*
X158346714Y-94520000D01*
X158403857Y-94634285D01*
X158403857Y-94977142D01*
X158346714Y-95091428D01*
X158289571Y-95148571D01*
X157318142Y-93948571D02*
X157261000Y-93891428D01*
X157203857Y-93777142D01*
X157203857Y-93491428D01*
X157261000Y-93377142D01*
X157318142Y-93320000D01*
X157432428Y-93262857D01*
X157546714Y-93262857D01*
X157718142Y-93320000D01*
X158403857Y-94005714D01*
X158403857Y-93262857D01*
X190354000Y-125072857D02*
X190754000Y-126272857D01*
X191154000Y-125072857D01*
X191068285Y-122590000D02*
X190954000Y-122532857D01*
X190782571Y-122532857D01*
X190611142Y-122590000D01*
X190496857Y-122704285D01*
X190439714Y-122818571D01*
X190382571Y-123047142D01*
X190382571Y-123218571D01*
X190439714Y-123447142D01*
X190496857Y-123561428D01*
X190611142Y-123675714D01*
X190782571Y-123732857D01*
X190896857Y-123732857D01*
X191068285Y-123675714D01*
X191125428Y-123618571D01*
X191125428Y-123218571D01*
X190896857Y-123218571D01*
X190982571Y-120392857D02*
X190982571Y-121192857D01*
X190696857Y-119935714D02*
X190411142Y-120792857D01*
X191154000Y-120792857D01*
X190354000Y-117452857D02*
X191096857Y-117452857D01*
X190696857Y-117910000D01*
X190868285Y-117910000D01*
X190982571Y-117967142D01*
X191039714Y-118024285D01*
X191096857Y-118138571D01*
X191096857Y-118424285D01*
X191039714Y-118538571D01*
X190982571Y-118595714D01*
X190868285Y-118652857D01*
X190525428Y-118652857D01*
X190411142Y-118595714D01*
X190354000Y-118538571D01*
X190411142Y-115027142D02*
X190468285Y-114970000D01*
X190582571Y-114912857D01*
X190868285Y-114912857D01*
X190982571Y-114970000D01*
X191039714Y-115027142D01*
X191096857Y-115141428D01*
X191096857Y-115255714D01*
X191039714Y-115427142D01*
X190354000Y-116112857D01*
X191096857Y-116112857D01*
X191096857Y-113572857D02*
X190411142Y-113572857D01*
X190754000Y-113572857D02*
X190754000Y-112372857D01*
X190639714Y-112544285D01*
X190525428Y-112658571D01*
X190411142Y-112715714D01*
D10*
X188428380Y-123808571D02*
X188428380Y-123237142D01*
X189428380Y-123522857D02*
X188428380Y-123522857D01*
X188761714Y-122999047D02*
X189428380Y-122760952D01*
X188761714Y-122522857D02*
X189428380Y-122760952D01*
X189666476Y-122856190D01*
X189714095Y-122903809D01*
X189761714Y-122999047D01*
X188761714Y-122141904D02*
X189761714Y-122141904D01*
X188809333Y-122141904D02*
X188761714Y-122046666D01*
X188761714Y-121856190D01*
X188809333Y-121760952D01*
X188856952Y-121713333D01*
X188952190Y-121665714D01*
X189237904Y-121665714D01*
X189333142Y-121713333D01*
X189380761Y-121760952D01*
X189428380Y-121856190D01*
X189428380Y-122046666D01*
X189380761Y-122141904D01*
X189380761Y-120856190D02*
X189428380Y-120951428D01*
X189428380Y-121141904D01*
X189380761Y-121237142D01*
X189285523Y-121284761D01*
X188904571Y-121284761D01*
X188809333Y-121237142D01*
X188761714Y-121141904D01*
X188761714Y-120951428D01*
X188809333Y-120856190D01*
X188904571Y-120808571D01*
X188999809Y-120808571D01*
X189095047Y-121284761D01*
X189380761Y-119665714D02*
X189428380Y-119522857D01*
X189428380Y-119284761D01*
X189380761Y-119189523D01*
X189333142Y-119141904D01*
X189237904Y-119094285D01*
X189142666Y-119094285D01*
X189047428Y-119141904D01*
X188999809Y-119189523D01*
X188952190Y-119284761D01*
X188904571Y-119475238D01*
X188856952Y-119570476D01*
X188809333Y-119618095D01*
X188714095Y-119665714D01*
X188618857Y-119665714D01*
X188523619Y-119618095D01*
X188476000Y-119570476D01*
X188428380Y-119475238D01*
X188428380Y-119237142D01*
X188476000Y-119094285D01*
X189428380Y-118665714D02*
X188428380Y-118665714D01*
X188428380Y-118284761D01*
X188476000Y-118189523D01*
X188523619Y-118141904D01*
X188618857Y-118094285D01*
X188761714Y-118094285D01*
X188856952Y-118141904D01*
X188904571Y-118189523D01*
X188952190Y-118284761D01*
X188952190Y-118665714D01*
X189428380Y-117665714D02*
X188428380Y-117665714D01*
X188523619Y-116475238D02*
X188476000Y-116427619D01*
X188428380Y-116332380D01*
X188428380Y-116094285D01*
X188476000Y-115999047D01*
X188523619Y-115951428D01*
X188618857Y-115903809D01*
X188714095Y-115903809D01*
X188856952Y-115951428D01*
X189428380Y-116522857D01*
X189428380Y-115903809D01*
X189142666Y-115522857D02*
X189142666Y-115046666D01*
X189428380Y-115618095D02*
X188428380Y-115284761D01*
X189428380Y-114951428D01*
D12*
X188976000Y-134112000D02*
G75*
G02*
X189738000Y-134874000I0J-762000D01*
G01*
X189738000Y-142494000D02*
G75*
G02*
X188976000Y-143256000I-762000J0D01*
G01*
X179578000Y-143256000D02*
G75*
G02*
X178816000Y-142494000I0J762000D01*
G01*
X178816000Y-134874000D02*
G75*
G02*
X179578000Y-134112000I762000J0D01*
G01*
X189738000Y-142494000D02*
X189738000Y-134874000D01*
X179578000Y-143256000D02*
X188976000Y-143256000D01*
X178816000Y-134874000D02*
X178816000Y-142494000D01*
X188976000Y-134112000D02*
X179578000Y-134112000D01*
D10*
X179474761Y-70024476D02*
X179522380Y-69881619D01*
X179522380Y-69643523D01*
X179474761Y-69548285D01*
X179427142Y-69500666D01*
X179331904Y-69453047D01*
X179236666Y-69453047D01*
X179141428Y-69500666D01*
X179093809Y-69548285D01*
X179046190Y-69643523D01*
X178998571Y-69834000D01*
X178950952Y-69929238D01*
X178903333Y-69976857D01*
X178808095Y-70024476D01*
X178712857Y-70024476D01*
X178617619Y-69976857D01*
X178570000Y-69929238D01*
X178522380Y-69834000D01*
X178522380Y-69595904D01*
X178570000Y-69453047D01*
X179427142Y-68453047D02*
X179474761Y-68500666D01*
X179522380Y-68643523D01*
X179522380Y-68738761D01*
X179474761Y-68881619D01*
X179379523Y-68976857D01*
X179284285Y-69024476D01*
X179093809Y-69072095D01*
X178950952Y-69072095D01*
X178760476Y-69024476D01*
X178665238Y-68976857D01*
X178570000Y-68881619D01*
X178522380Y-68738761D01*
X178522380Y-68643523D01*
X178570000Y-68500666D01*
X178617619Y-68453047D01*
X179522380Y-67548285D02*
X179522380Y-68024476D01*
X178522380Y-68024476D01*
X176934761Y-70048285D02*
X176982380Y-69905428D01*
X176982380Y-69667333D01*
X176934761Y-69572095D01*
X176887142Y-69524476D01*
X176791904Y-69476857D01*
X176696666Y-69476857D01*
X176601428Y-69524476D01*
X176553809Y-69572095D01*
X176506190Y-69667333D01*
X176458571Y-69857809D01*
X176410952Y-69953047D01*
X176363333Y-70000666D01*
X176268095Y-70048285D01*
X176172857Y-70048285D01*
X176077619Y-70000666D01*
X176030000Y-69953047D01*
X175982380Y-69857809D01*
X175982380Y-69619714D01*
X176030000Y-69476857D01*
X176982380Y-69048285D02*
X175982380Y-69048285D01*
X175982380Y-68810190D01*
X176030000Y-68667333D01*
X176125238Y-68572095D01*
X176220476Y-68524476D01*
X176410952Y-68476857D01*
X176553809Y-68476857D01*
X176744285Y-68524476D01*
X176839523Y-68572095D01*
X176934761Y-68667333D01*
X176982380Y-68810190D01*
X176982380Y-69048285D01*
X176696666Y-68095904D02*
X176696666Y-67619714D01*
X176982380Y-68191142D02*
X175982380Y-67857809D01*
X176982380Y-67524476D01*
X173442380Y-70072095D02*
X173442380Y-69453047D01*
X173823333Y-69786380D01*
X173823333Y-69643523D01*
X173870952Y-69548285D01*
X173918571Y-69500666D01*
X174013809Y-69453047D01*
X174251904Y-69453047D01*
X174347142Y-69500666D01*
X174394761Y-69548285D01*
X174442380Y-69643523D01*
X174442380Y-69929238D01*
X174394761Y-70024476D01*
X174347142Y-70072095D01*
X173442380Y-69167333D02*
X174442380Y-68834000D01*
X173442380Y-68500666D01*
X173442380Y-68262571D02*
X173442380Y-67643523D01*
X173823333Y-67976857D01*
X173823333Y-67834000D01*
X173870952Y-67738761D01*
X173918571Y-67691142D01*
X174013809Y-67643523D01*
X174251904Y-67643523D01*
X174347142Y-67691142D01*
X174394761Y-67738761D01*
X174442380Y-67834000D01*
X174442380Y-68119714D01*
X174394761Y-68214952D01*
X174347142Y-68262571D01*
X170950000Y-69595904D02*
X170902380Y-69691142D01*
X170902380Y-69834000D01*
X170950000Y-69976857D01*
X171045238Y-70072095D01*
X171140476Y-70119714D01*
X171330952Y-70167333D01*
X171473809Y-70167333D01*
X171664285Y-70119714D01*
X171759523Y-70072095D01*
X171854761Y-69976857D01*
X171902380Y-69834000D01*
X171902380Y-69738761D01*
X171854761Y-69595904D01*
X171807142Y-69548285D01*
X171473809Y-69548285D01*
X171473809Y-69738761D01*
X171902380Y-69119714D02*
X170902380Y-69119714D01*
X171902380Y-68548285D01*
X170902380Y-68548285D01*
X171902380Y-68072095D02*
X170902380Y-68072095D01*
X170902380Y-67834000D01*
X170950000Y-67691142D01*
X171045238Y-67595904D01*
X171140476Y-67548285D01*
X171330952Y-67500666D01*
X171473809Y-67500666D01*
X171664285Y-67548285D01*
X171759523Y-67595904D01*
X171854761Y-67691142D01*
X171902380Y-67834000D01*
X171902380Y-68072095D01*
X106712285Y-78383380D02*
X106902761Y-78383380D01*
X106998000Y-78431000D01*
X107093238Y-78526238D01*
X107140857Y-78716714D01*
X107140857Y-79050047D01*
X107093238Y-79240523D01*
X106998000Y-79335761D01*
X106902761Y-79383380D01*
X106712285Y-79383380D01*
X106617047Y-79335761D01*
X106521809Y-79240523D01*
X106474190Y-79050047D01*
X106474190Y-78716714D01*
X106521809Y-78526238D01*
X106617047Y-78431000D01*
X106712285Y-78383380D01*
X107569428Y-78716714D02*
X107569428Y-79716714D01*
X107569428Y-78764333D02*
X107664666Y-78716714D01*
X107855142Y-78716714D01*
X107950380Y-78764333D01*
X107998000Y-78811952D01*
X108045619Y-78907190D01*
X108045619Y-79192904D01*
X107998000Y-79288142D01*
X107950380Y-79335761D01*
X107855142Y-79383380D01*
X107664666Y-79383380D01*
X107569428Y-79335761D01*
X108331333Y-78716714D02*
X108712285Y-78716714D01*
X108474190Y-78383380D02*
X108474190Y-79240523D01*
X108521809Y-79335761D01*
X108617047Y-79383380D01*
X108712285Y-79383380D01*
X109045619Y-79383380D02*
X109045619Y-78716714D01*
X109045619Y-78383380D02*
X108998000Y-78431000D01*
X109045619Y-78478619D01*
X109093238Y-78431000D01*
X109045619Y-78383380D01*
X109045619Y-78478619D01*
X109664666Y-79383380D02*
X109569428Y-79335761D01*
X109521809Y-79288142D01*
X109474190Y-79192904D01*
X109474190Y-78907190D01*
X109521809Y-78811952D01*
X109569428Y-78764333D01*
X109664666Y-78716714D01*
X109807523Y-78716714D01*
X109902761Y-78764333D01*
X109950380Y-78811952D01*
X109998000Y-78907190D01*
X109998000Y-79192904D01*
X109950380Y-79288142D01*
X109902761Y-79335761D01*
X109807523Y-79383380D01*
X109664666Y-79383380D01*
X110426571Y-78716714D02*
X110426571Y-79383380D01*
X110426571Y-78811952D02*
X110474190Y-78764333D01*
X110569428Y-78716714D01*
X110712285Y-78716714D01*
X110807523Y-78764333D01*
X110855142Y-78859571D01*
X110855142Y-79383380D01*
X111759904Y-79383380D02*
X111759904Y-78859571D01*
X111712285Y-78764333D01*
X111617047Y-78716714D01*
X111426571Y-78716714D01*
X111331333Y-78764333D01*
X111759904Y-79335761D02*
X111664666Y-79383380D01*
X111426571Y-79383380D01*
X111331333Y-79335761D01*
X111283714Y-79240523D01*
X111283714Y-79145285D01*
X111331333Y-79050047D01*
X111426571Y-79002428D01*
X111664666Y-79002428D01*
X111759904Y-78954809D01*
X112378952Y-79383380D02*
X112283714Y-79335761D01*
X112236095Y-79240523D01*
X112236095Y-78383380D01*
X113521809Y-79383380D02*
X113521809Y-78383380D01*
X113950380Y-78478619D02*
X113998000Y-78431000D01*
X114093238Y-78383380D01*
X114331333Y-78383380D01*
X114426571Y-78431000D01*
X114474190Y-78478619D01*
X114521809Y-78573857D01*
X114521809Y-78669095D01*
X114474190Y-78811952D01*
X113902761Y-79383380D01*
X114521809Y-79383380D01*
X115521809Y-79288142D02*
X115474190Y-79335761D01*
X115331333Y-79383380D01*
X115236095Y-79383380D01*
X115093238Y-79335761D01*
X114998000Y-79240523D01*
X114950380Y-79145285D01*
X114902761Y-78954809D01*
X114902761Y-78811952D01*
X114950380Y-78621476D01*
X114998000Y-78526238D01*
X115093238Y-78431000D01*
X115236095Y-78383380D01*
X115331333Y-78383380D01*
X115474190Y-78431000D01*
X115521809Y-78478619D01*
X105236095Y-81033380D02*
X105236095Y-80033380D01*
X105617047Y-80033380D01*
X105712285Y-80081000D01*
X105759904Y-80128619D01*
X105807523Y-80223857D01*
X105807523Y-80366714D01*
X105759904Y-80461952D01*
X105712285Y-80509571D01*
X105617047Y-80557190D01*
X105236095Y-80557190D01*
X106664666Y-80366714D02*
X106664666Y-81033380D01*
X106236095Y-80366714D02*
X106236095Y-80890523D01*
X106283714Y-80985761D01*
X106378952Y-81033380D01*
X106521809Y-81033380D01*
X106617047Y-80985761D01*
X106664666Y-80938142D01*
X107283714Y-81033380D02*
X107188476Y-80985761D01*
X107140857Y-80890523D01*
X107140857Y-80033380D01*
X107807523Y-81033380D02*
X107712285Y-80985761D01*
X107664666Y-80890523D01*
X107664666Y-80033380D01*
X108617047Y-80366714D02*
X108617047Y-81033380D01*
X108188476Y-80366714D02*
X108188476Y-80890523D01*
X108236095Y-80985761D01*
X108331333Y-81033380D01*
X108474190Y-81033380D01*
X108569428Y-80985761D01*
X108617047Y-80938142D01*
X109093238Y-80366714D02*
X109093238Y-81366714D01*
X109093238Y-80414333D02*
X109188476Y-80366714D01*
X109378952Y-80366714D01*
X109474190Y-80414333D01*
X109521809Y-80461952D01*
X109569428Y-80557190D01*
X109569428Y-80842904D01*
X109521809Y-80938142D01*
X109474190Y-80985761D01*
X109378952Y-81033380D01*
X109188476Y-81033380D01*
X109093238Y-80985761D01*
X110759904Y-81033380D02*
X110759904Y-80366714D01*
X110759904Y-80557190D02*
X110807523Y-80461952D01*
X110855142Y-80414333D01*
X110950380Y-80366714D01*
X111045619Y-80366714D01*
X111759904Y-80985761D02*
X111664666Y-81033380D01*
X111474190Y-81033380D01*
X111378952Y-80985761D01*
X111331333Y-80890523D01*
X111331333Y-80509571D01*
X111378952Y-80414333D01*
X111474190Y-80366714D01*
X111664666Y-80366714D01*
X111759904Y-80414333D01*
X111807523Y-80509571D01*
X111807523Y-80604809D01*
X111331333Y-80700047D01*
X112188476Y-80985761D02*
X112283714Y-81033380D01*
X112474190Y-81033380D01*
X112569428Y-80985761D01*
X112617047Y-80890523D01*
X112617047Y-80842904D01*
X112569428Y-80747666D01*
X112474190Y-80700047D01*
X112331333Y-80700047D01*
X112236095Y-80652428D01*
X112188476Y-80557190D01*
X112188476Y-80509571D01*
X112236095Y-80414333D01*
X112331333Y-80366714D01*
X112474190Y-80366714D01*
X112569428Y-80414333D01*
X113045619Y-81033380D02*
X113045619Y-80366714D01*
X113045619Y-80033380D02*
X112998000Y-80081000D01*
X113045619Y-80128619D01*
X113093238Y-80081000D01*
X113045619Y-80033380D01*
X113045619Y-80128619D01*
X113474190Y-80985761D02*
X113569428Y-81033380D01*
X113759904Y-81033380D01*
X113855142Y-80985761D01*
X113902761Y-80890523D01*
X113902761Y-80842904D01*
X113855142Y-80747666D01*
X113759904Y-80700047D01*
X113617047Y-80700047D01*
X113521809Y-80652428D01*
X113474190Y-80557190D01*
X113474190Y-80509571D01*
X113521809Y-80414333D01*
X113617047Y-80366714D01*
X113759904Y-80366714D01*
X113855142Y-80414333D01*
X114188476Y-80366714D02*
X114569428Y-80366714D01*
X114331333Y-80033380D02*
X114331333Y-80890523D01*
X114378952Y-80985761D01*
X114474190Y-81033380D01*
X114569428Y-81033380D01*
X115045619Y-81033380D02*
X114950380Y-80985761D01*
X114902761Y-80938142D01*
X114855142Y-80842904D01*
X114855142Y-80557190D01*
X114902761Y-80461952D01*
X114950380Y-80414333D01*
X115045619Y-80366714D01*
X115188476Y-80366714D01*
X115283714Y-80414333D01*
X115331333Y-80461952D01*
X115378952Y-80557190D01*
X115378952Y-80842904D01*
X115331333Y-80938142D01*
X115283714Y-80985761D01*
X115188476Y-81033380D01*
X115045619Y-81033380D01*
X115807523Y-81033380D02*
X115807523Y-80366714D01*
X115807523Y-80557190D02*
X115855142Y-80461952D01*
X115902761Y-80414333D01*
X115998000Y-80366714D01*
X116093238Y-80366714D01*
X116378952Y-80985761D02*
X116474190Y-81033380D01*
X116664666Y-81033380D01*
X116759904Y-80985761D01*
X116807523Y-80890523D01*
X116807523Y-80842904D01*
X116759904Y-80747666D01*
X116664666Y-80700047D01*
X116521809Y-80700047D01*
X116426571Y-80652428D01*
X116378952Y-80557190D01*
X116378952Y-80509571D01*
X116426571Y-80414333D01*
X116521809Y-80366714D01*
X116664666Y-80366714D01*
X116759904Y-80414333D01*
X170450476Y-71763380D02*
X170450476Y-70763380D01*
X170831428Y-70763380D01*
X170926666Y-70811000D01*
X170974285Y-70858619D01*
X171021904Y-70953857D01*
X171021904Y-71096714D01*
X170974285Y-71191952D01*
X170926666Y-71239571D01*
X170831428Y-71287190D01*
X170450476Y-71287190D01*
X171640952Y-70763380D02*
X171831428Y-70763380D01*
X171926666Y-70811000D01*
X172021904Y-70906238D01*
X172069523Y-71096714D01*
X172069523Y-71430047D01*
X172021904Y-71620523D01*
X171926666Y-71715761D01*
X171831428Y-71763380D01*
X171640952Y-71763380D01*
X171545714Y-71715761D01*
X171450476Y-71620523D01*
X171402857Y-71430047D01*
X171402857Y-71096714D01*
X171450476Y-70906238D01*
X171545714Y-70811000D01*
X171640952Y-70763380D01*
X172402857Y-70763380D02*
X172640952Y-71763380D01*
X172831428Y-71049095D01*
X173021904Y-71763380D01*
X173260000Y-70763380D01*
X173640952Y-71239571D02*
X173974285Y-71239571D01*
X174117142Y-71763380D02*
X173640952Y-71763380D01*
X173640952Y-70763380D01*
X174117142Y-70763380D01*
X175117142Y-71763380D02*
X174783809Y-71287190D01*
X174545714Y-71763380D02*
X174545714Y-70763380D01*
X174926666Y-70763380D01*
X175021904Y-70811000D01*
X175069523Y-70858619D01*
X175117142Y-70953857D01*
X175117142Y-71096714D01*
X175069523Y-71191952D01*
X175021904Y-71239571D01*
X174926666Y-71287190D01*
X174545714Y-71287190D01*
X177117142Y-71763380D02*
X177069523Y-71763380D01*
X176974285Y-71715761D01*
X176831428Y-71572904D01*
X176593333Y-71287190D01*
X176498095Y-71144333D01*
X176450476Y-71001476D01*
X176450476Y-70906238D01*
X176498095Y-70811000D01*
X176593333Y-70763380D01*
X176640952Y-70763380D01*
X176736190Y-70811000D01*
X176783809Y-70906238D01*
X176783809Y-70953857D01*
X176736190Y-71049095D01*
X176688571Y-71096714D01*
X176402857Y-71287190D01*
X176355238Y-71334809D01*
X176307619Y-71430047D01*
X176307619Y-71572904D01*
X176355238Y-71668142D01*
X176402857Y-71715761D01*
X176498095Y-71763380D01*
X176640952Y-71763380D01*
X176736190Y-71715761D01*
X176783809Y-71668142D01*
X176926666Y-71477666D01*
X176974285Y-71334809D01*
X176974285Y-71239571D01*
X178307619Y-71763380D02*
X178307619Y-70763380D01*
X178736190Y-70525285D02*
X178831428Y-70477666D01*
X178974285Y-70477666D01*
X179069523Y-70525285D01*
X179117142Y-70620523D01*
X179117142Y-70715761D01*
X179069523Y-70811000D01*
X178736190Y-71144333D01*
X179117142Y-71144333D01*
X180117142Y-71668142D02*
X180069523Y-71715761D01*
X179926666Y-71763380D01*
X179831428Y-71763380D01*
X179688571Y-71715761D01*
X179593333Y-71620523D01*
X179545714Y-71525285D01*
X179498095Y-71334809D01*
X179498095Y-71191952D01*
X179545714Y-71001476D01*
X179593333Y-70906238D01*
X179688571Y-70811000D01*
X179831428Y-70763380D01*
X179926666Y-70763380D01*
X180069523Y-70811000D01*
X180117142Y-70858619D01*
X170521904Y-73365761D02*
X170426666Y-73413380D01*
X170236190Y-73413380D01*
X170140952Y-73365761D01*
X170093333Y-73270523D01*
X170093333Y-72889571D01*
X170140952Y-72794333D01*
X170236190Y-72746714D01*
X170426666Y-72746714D01*
X170521904Y-72794333D01*
X170569523Y-72889571D01*
X170569523Y-72984809D01*
X170093333Y-73080047D01*
X170998095Y-73318142D02*
X171045714Y-73365761D01*
X170998095Y-73413380D01*
X170950476Y-73365761D01*
X170998095Y-73318142D01*
X170998095Y-73413380D01*
X171902857Y-72746714D02*
X171902857Y-73556238D01*
X171855238Y-73651476D01*
X171807619Y-73699095D01*
X171712380Y-73746714D01*
X171569523Y-73746714D01*
X171474285Y-73699095D01*
X171902857Y-73365761D02*
X171807619Y-73413380D01*
X171617142Y-73413380D01*
X171521904Y-73365761D01*
X171474285Y-73318142D01*
X171426666Y-73222904D01*
X171426666Y-72937190D01*
X171474285Y-72841952D01*
X171521904Y-72794333D01*
X171617142Y-72746714D01*
X171807619Y-72746714D01*
X171902857Y-72794333D01*
X172379047Y-73318142D02*
X172426666Y-73365761D01*
X172379047Y-73413380D01*
X172331428Y-73365761D01*
X172379047Y-73318142D01*
X172379047Y-73413380D01*
X174140952Y-73413380D02*
X173569523Y-73413380D01*
X173855238Y-73413380D02*
X173855238Y-72413380D01*
X173760000Y-72556238D01*
X173664761Y-72651476D01*
X173569523Y-72699095D01*
X174998095Y-72413380D02*
X174807619Y-72413380D01*
X174712380Y-72461000D01*
X174664761Y-72508619D01*
X174569523Y-72651476D01*
X174521904Y-72841952D01*
X174521904Y-73222904D01*
X174569523Y-73318142D01*
X174617142Y-73365761D01*
X174712380Y-73413380D01*
X174902857Y-73413380D01*
X174998095Y-73365761D01*
X175045714Y-73318142D01*
X175093333Y-73222904D01*
X175093333Y-72984809D01*
X175045714Y-72889571D01*
X174998095Y-72841952D01*
X174902857Y-72794333D01*
X174712380Y-72794333D01*
X174617142Y-72841952D01*
X174569523Y-72889571D01*
X174521904Y-72984809D01*
X175426666Y-73413380D02*
X175950476Y-72746714D01*
X175426666Y-72746714D02*
X175950476Y-73413380D01*
X176283809Y-72508619D02*
X176331428Y-72461000D01*
X176426666Y-72413380D01*
X176664761Y-72413380D01*
X176760000Y-72461000D01*
X176807619Y-72508619D01*
X176855238Y-72603857D01*
X176855238Y-72699095D01*
X176807619Y-72841952D01*
X176236190Y-73413380D01*
X176855238Y-73413380D01*
X178521904Y-73413380D02*
X178045714Y-73413380D01*
X178045714Y-72413380D01*
X179426666Y-73318142D02*
X179379047Y-73365761D01*
X179236190Y-73413380D01*
X179140952Y-73413380D01*
X178998095Y-73365761D01*
X178902857Y-73270523D01*
X178855238Y-73175285D01*
X178807619Y-72984809D01*
X178807619Y-72841952D01*
X178855238Y-72651476D01*
X178902857Y-72556238D01*
X178998095Y-72461000D01*
X179140952Y-72413380D01*
X179236190Y-72413380D01*
X179379047Y-72461000D01*
X179426666Y-72508619D01*
X179855238Y-73413380D02*
X179855238Y-72413380D01*
X180093333Y-72413380D01*
X180236190Y-72461000D01*
X180331428Y-72556238D01*
X180379047Y-72651476D01*
X180426666Y-72841952D01*
X180426666Y-72984809D01*
X180379047Y-73175285D01*
X180331428Y-73270523D01*
X180236190Y-73365761D01*
X180093333Y-73413380D01*
X179855238Y-73413380D01*
D11*
X132657142Y-125553476D02*
X133371428Y-125553476D01*
X133014285Y-126803476D02*
X133014285Y-125553476D01*
X133966666Y-126803476D02*
X133847619Y-126743952D01*
X133788095Y-126684428D01*
X133728571Y-126565380D01*
X133728571Y-126208238D01*
X133788095Y-126089190D01*
X133847619Y-126029666D01*
X133966666Y-125970142D01*
X134145238Y-125970142D01*
X134264285Y-126029666D01*
X134323809Y-126089190D01*
X134383333Y-126208238D01*
X134383333Y-126565380D01*
X134323809Y-126684428D01*
X134264285Y-126743952D01*
X134145238Y-126803476D01*
X133966666Y-126803476D01*
X135454761Y-125970142D02*
X135454761Y-126803476D01*
X134919047Y-125970142D02*
X134919047Y-126624904D01*
X134978571Y-126743952D01*
X135097619Y-126803476D01*
X135276190Y-126803476D01*
X135395238Y-126743952D01*
X135454761Y-126684428D01*
X136585714Y-126743952D02*
X136466666Y-126803476D01*
X136228571Y-126803476D01*
X136109523Y-126743952D01*
X136050000Y-126684428D01*
X135990476Y-126565380D01*
X135990476Y-126208238D01*
X136050000Y-126089190D01*
X136109523Y-126029666D01*
X136228571Y-125970142D01*
X136466666Y-125970142D01*
X136585714Y-126029666D01*
X137121428Y-126803476D02*
X137121428Y-125553476D01*
X137657142Y-126803476D02*
X137657142Y-126148714D01*
X137597619Y-126029666D01*
X137478571Y-125970142D01*
X137300000Y-125970142D01*
X137180952Y-126029666D01*
X137121428Y-126089190D01*
X139085714Y-125970142D02*
X139323809Y-126803476D01*
X139561904Y-126208238D01*
X139800000Y-126803476D01*
X140038095Y-125970142D01*
X140514285Y-126803476D02*
X140514285Y-125970142D01*
X140514285Y-125553476D02*
X140454761Y-125613000D01*
X140514285Y-125672523D01*
X140573809Y-125613000D01*
X140514285Y-125553476D01*
X140514285Y-125672523D01*
X140930952Y-125970142D02*
X141407142Y-125970142D01*
X141109523Y-125553476D02*
X141109523Y-126624904D01*
X141169047Y-126743952D01*
X141288095Y-126803476D01*
X141407142Y-126803476D01*
X141823809Y-126803476D02*
X141823809Y-125553476D01*
X142359523Y-126803476D02*
X142359523Y-126148714D01*
X142300000Y-126029666D01*
X142180952Y-125970142D01*
X142002380Y-125970142D01*
X141883333Y-126029666D01*
X141823809Y-126089190D01*
X144442857Y-126803476D02*
X144442857Y-126148714D01*
X144383333Y-126029666D01*
X144264285Y-125970142D01*
X144026190Y-125970142D01*
X143907142Y-126029666D01*
X144442857Y-126743952D02*
X144323809Y-126803476D01*
X144026190Y-126803476D01*
X143907142Y-126743952D01*
X143847619Y-126624904D01*
X143847619Y-126505857D01*
X143907142Y-126386809D01*
X144026190Y-126327285D01*
X144323809Y-126327285D01*
X144442857Y-126267761D01*
X145216666Y-126803476D02*
X145097619Y-126743952D01*
X145038095Y-126624904D01*
X145038095Y-125553476D01*
X145692857Y-126803476D02*
X145692857Y-125970142D01*
X145692857Y-125553476D02*
X145633333Y-125613000D01*
X145692857Y-125672523D01*
X145752380Y-125613000D01*
X145692857Y-125553476D01*
X145692857Y-125672523D01*
X146823809Y-125970142D02*
X146823809Y-126982047D01*
X146764285Y-127101095D01*
X146704761Y-127160619D01*
X146585714Y-127220142D01*
X146407142Y-127220142D01*
X146288095Y-127160619D01*
X146823809Y-126743952D02*
X146704761Y-126803476D01*
X146466666Y-126803476D01*
X146347619Y-126743952D01*
X146288095Y-126684428D01*
X146228571Y-126565380D01*
X146228571Y-126208238D01*
X146288095Y-126089190D01*
X146347619Y-126029666D01*
X146466666Y-125970142D01*
X146704761Y-125970142D01*
X146823809Y-126029666D01*
X147954761Y-126803476D02*
X147954761Y-126148714D01*
X147895238Y-126029666D01*
X147776190Y-125970142D01*
X147538095Y-125970142D01*
X147419047Y-126029666D01*
X147954761Y-126743952D02*
X147835714Y-126803476D01*
X147538095Y-126803476D01*
X147419047Y-126743952D01*
X147359523Y-126624904D01*
X147359523Y-126505857D01*
X147419047Y-126386809D01*
X147538095Y-126327285D01*
X147835714Y-126327285D01*
X147954761Y-126267761D01*
X148371428Y-125970142D02*
X148847619Y-125970142D01*
X148550000Y-125553476D02*
X148550000Y-126624904D01*
X148609523Y-126743952D01*
X148728571Y-126803476D01*
X148847619Y-126803476D01*
X149442857Y-126803476D02*
X149323809Y-126743952D01*
X149264285Y-126684428D01*
X149204761Y-126565380D01*
X149204761Y-126208238D01*
X149264285Y-126089190D01*
X149323809Y-126029666D01*
X149442857Y-125970142D01*
X149621428Y-125970142D01*
X149740476Y-126029666D01*
X149800000Y-126089190D01*
X149859523Y-126208238D01*
X149859523Y-126565380D01*
X149800000Y-126684428D01*
X149740476Y-126743952D01*
X149621428Y-126803476D01*
X149442857Y-126803476D01*
X150395238Y-126803476D02*
X150395238Y-125970142D01*
X150395238Y-126208238D02*
X150454761Y-126089190D01*
X150514285Y-126029666D01*
X150633333Y-125970142D01*
X150752380Y-125970142D01*
X152657142Y-126743952D02*
X152538095Y-126803476D01*
X152300000Y-126803476D01*
X152180952Y-126743952D01*
X152121428Y-126684428D01*
X152061904Y-126565380D01*
X152061904Y-126208238D01*
X152121428Y-126089190D01*
X152180952Y-126029666D01*
X152300000Y-125970142D01*
X152538095Y-125970142D01*
X152657142Y-126029666D01*
X153371428Y-126803476D02*
X153252380Y-126743952D01*
X153192857Y-126624904D01*
X153192857Y-125553476D01*
X153847619Y-126803476D02*
X153847619Y-125970142D01*
X153847619Y-125553476D02*
X153788095Y-125613000D01*
X153847619Y-125672523D01*
X153907142Y-125613000D01*
X153847619Y-125553476D01*
X153847619Y-125672523D01*
X154442857Y-125970142D02*
X154442857Y-127220142D01*
X154442857Y-126029666D02*
X154561904Y-125970142D01*
X154800000Y-125970142D01*
X154919047Y-126029666D01*
X154978571Y-126089190D01*
X155038095Y-126208238D01*
X155038095Y-126565380D01*
X154978571Y-126684428D01*
X154919047Y-126743952D01*
X154800000Y-126803476D01*
X154561904Y-126803476D01*
X154442857Y-126743952D01*
X157002380Y-126743952D02*
X156883333Y-126803476D01*
X156645238Y-126803476D01*
X156526190Y-126743952D01*
X156466666Y-126624904D01*
X156466666Y-126148714D01*
X156526190Y-126029666D01*
X156645238Y-125970142D01*
X156883333Y-125970142D01*
X157002380Y-126029666D01*
X157061904Y-126148714D01*
X157061904Y-126267761D01*
X156466666Y-126386809D01*
X157597619Y-125970142D02*
X157597619Y-126803476D01*
X157597619Y-126089190D02*
X157657142Y-126029666D01*
X157776190Y-125970142D01*
X157954761Y-125970142D01*
X158073809Y-126029666D01*
X158133333Y-126148714D01*
X158133333Y-126803476D01*
X159264285Y-126803476D02*
X159264285Y-125553476D01*
X159264285Y-126743952D02*
X159145238Y-126803476D01*
X158907142Y-126803476D01*
X158788095Y-126743952D01*
X158728571Y-126684428D01*
X158669047Y-126565380D01*
X158669047Y-126208238D01*
X158728571Y-126089190D01*
X158788095Y-126029666D01*
X158907142Y-125970142D01*
X159145238Y-125970142D01*
X159264285Y-126029666D01*
D13*
X173269761Y-127618095D02*
X171269761Y-127618095D01*
X173269761Y-126475238D01*
X171269761Y-126475238D01*
X173269761Y-125237142D02*
X173174523Y-125427619D01*
X173079285Y-125522857D01*
X172888809Y-125618095D01*
X172317380Y-125618095D01*
X172126904Y-125522857D01*
X172031666Y-125427619D01*
X171936428Y-125237142D01*
X171936428Y-124951428D01*
X172031666Y-124760952D01*
X172126904Y-124665714D01*
X172317380Y-124570476D01*
X172888809Y-124570476D01*
X173079285Y-124665714D01*
X173174523Y-124760952D01*
X173269761Y-124951428D01*
X173269761Y-125237142D01*
X173269761Y-123713333D02*
X171269761Y-123713333D01*
X172507857Y-123522857D02*
X173269761Y-122951428D01*
X171936428Y-122951428D02*
X172698333Y-123713333D01*
X173269761Y-122094285D02*
X171936428Y-122094285D01*
X171269761Y-122094285D02*
X171365000Y-122189523D01*
X171460238Y-122094285D01*
X171365000Y-121999047D01*
X171269761Y-122094285D01*
X171460238Y-122094285D01*
X173269761Y-120284761D02*
X172222142Y-120284761D01*
X172031666Y-120380000D01*
X171936428Y-120570476D01*
X171936428Y-120951428D01*
X172031666Y-121141904D01*
X173174523Y-120284761D02*
X173269761Y-120475238D01*
X173269761Y-120951428D01*
X173174523Y-121141904D01*
X172984047Y-121237142D01*
X172793571Y-121237142D01*
X172603095Y-121141904D01*
X172507857Y-120951428D01*
X172507857Y-120475238D01*
X172412619Y-120284761D01*
X171269761Y-116856190D02*
X171269761Y-117808571D01*
X172222142Y-117903809D01*
X172126904Y-117808571D01*
X172031666Y-117618095D01*
X172031666Y-117141904D01*
X172126904Y-116951428D01*
X172222142Y-116856190D01*
X172412619Y-116760952D01*
X172888809Y-116760952D01*
X173079285Y-116856190D01*
X173174523Y-116951428D01*
X173269761Y-117141904D01*
X173269761Y-117618095D01*
X173174523Y-117808571D01*
X173079285Y-117903809D01*
X171269761Y-114951428D02*
X171269761Y-115903809D01*
X172222142Y-115999047D01*
X172126904Y-115903809D01*
X172031666Y-115713333D01*
X172031666Y-115237142D01*
X172126904Y-115046666D01*
X172222142Y-114951428D01*
X172412619Y-114856190D01*
X172888809Y-114856190D01*
X173079285Y-114951428D01*
X173174523Y-115046666D01*
X173269761Y-115237142D01*
X173269761Y-115713333D01*
X173174523Y-115903809D01*
X173079285Y-115999047D01*
X173269761Y-112951428D02*
X173269761Y-114094285D01*
X173269761Y-113522857D02*
X171269761Y-113522857D01*
X171555476Y-113713333D01*
X171745952Y-113903809D01*
X171841190Y-114094285D01*
X171269761Y-111713333D02*
X171269761Y-111522857D01*
X171365000Y-111332380D01*
X171460238Y-111237142D01*
X171650714Y-111141904D01*
X172031666Y-111046666D01*
X172507857Y-111046666D01*
X172888809Y-111141904D01*
X173079285Y-111237142D01*
X173174523Y-111332380D01*
X173269761Y-111522857D01*
X173269761Y-111713333D01*
X173174523Y-111903809D01*
X173079285Y-111999047D01*
X172888809Y-112094285D01*
X172507857Y-112189523D01*
X172031666Y-112189523D01*
X171650714Y-112094285D01*
X171460238Y-111999047D01*
X171365000Y-111903809D01*
X171269761Y-111713333D01*
X176424523Y-123808571D02*
X176519761Y-123618095D01*
X176519761Y-123237142D01*
X176424523Y-123046666D01*
X176234047Y-122951428D01*
X176138809Y-122951428D01*
X175948333Y-123046666D01*
X175853095Y-123237142D01*
X175853095Y-123522857D01*
X175757857Y-123713333D01*
X175567380Y-123808571D01*
X175472142Y-123808571D01*
X175281666Y-123713333D01*
X175186428Y-123522857D01*
X175186428Y-123237142D01*
X175281666Y-123046666D01*
X176519761Y-121808571D02*
X176424523Y-121999047D01*
X176329285Y-122094285D01*
X176138809Y-122189523D01*
X175567380Y-122189523D01*
X175376904Y-122094285D01*
X175281666Y-121999047D01*
X175186428Y-121808571D01*
X175186428Y-121522857D01*
X175281666Y-121332380D01*
X175376904Y-121237142D01*
X175567380Y-121141904D01*
X176138809Y-121141904D01*
X176329285Y-121237142D01*
X176424523Y-121332380D01*
X176519761Y-121522857D01*
X176519761Y-121808571D01*
X176424523Y-119427619D02*
X176519761Y-119618095D01*
X176519761Y-119999047D01*
X176424523Y-120189523D01*
X176329285Y-120284761D01*
X176138809Y-120380000D01*
X175567380Y-120380000D01*
X175376904Y-120284761D01*
X175281666Y-120189523D01*
X175186428Y-119999047D01*
X175186428Y-119618095D01*
X175281666Y-119427619D01*
X176519761Y-118570476D02*
X174519761Y-118570476D01*
X175757857Y-118380000D02*
X176519761Y-117808571D01*
X175186428Y-117808571D02*
X175948333Y-118570476D01*
X176424523Y-116189523D02*
X176519761Y-116380000D01*
X176519761Y-116760952D01*
X176424523Y-116951428D01*
X176234047Y-117046666D01*
X175472142Y-117046666D01*
X175281666Y-116951428D01*
X175186428Y-116760952D01*
X175186428Y-116380000D01*
X175281666Y-116189523D01*
X175472142Y-116094285D01*
X175662619Y-116094285D01*
X175853095Y-117046666D01*
X175186428Y-115522857D02*
X175186428Y-114760952D01*
X174519761Y-115237142D02*
X176234047Y-115237142D01*
X176424523Y-115141904D01*
X176519761Y-114951428D01*
X176519761Y-114760952D01*
D10*
X189595809Y-131612142D02*
X189548190Y-131659761D01*
X189405333Y-131707380D01*
X189310095Y-131707380D01*
X189167238Y-131659761D01*
X189072000Y-131564523D01*
X189024380Y-131469285D01*
X188976761Y-131278809D01*
X188976761Y-131135952D01*
X189024380Y-130945476D01*
X189072000Y-130850238D01*
X189167238Y-130755000D01*
X189310095Y-130707380D01*
X189405333Y-130707380D01*
X189548190Y-130755000D01*
X189595809Y-130802619D01*
X190167238Y-131707380D02*
X190072000Y-131659761D01*
X190024380Y-131612142D01*
X189976761Y-131516904D01*
X189976761Y-131231190D01*
X190024380Y-131135952D01*
X190072000Y-131088333D01*
X190167238Y-131040714D01*
X190310095Y-131040714D01*
X190405333Y-131088333D01*
X190452952Y-131135952D01*
X190500571Y-131231190D01*
X190500571Y-131516904D01*
X190452952Y-131612142D01*
X190405333Y-131659761D01*
X190310095Y-131707380D01*
X190167238Y-131707380D01*
X190929142Y-131040714D02*
X190929142Y-131707380D01*
X190929142Y-131135952D02*
X190976761Y-131088333D01*
X191072000Y-131040714D01*
X191214857Y-131040714D01*
X191310095Y-131088333D01*
X191357714Y-131183571D01*
X191357714Y-131707380D01*
X191833904Y-131040714D02*
X191833904Y-131707380D01*
X191833904Y-131135952D02*
X191881523Y-131088333D01*
X191976761Y-131040714D01*
X192119619Y-131040714D01*
X192214857Y-131088333D01*
X192262476Y-131183571D01*
X192262476Y-131707380D01*
X193119619Y-131659761D02*
X193024380Y-131707380D01*
X192833904Y-131707380D01*
X192738666Y-131659761D01*
X192691047Y-131564523D01*
X192691047Y-131183571D01*
X192738666Y-131088333D01*
X192833904Y-131040714D01*
X193024380Y-131040714D01*
X193119619Y-131088333D01*
X193167238Y-131183571D01*
X193167238Y-131278809D01*
X192691047Y-131374047D01*
X194024380Y-131659761D02*
X193929142Y-131707380D01*
X193738666Y-131707380D01*
X193643428Y-131659761D01*
X193595809Y-131612142D01*
X193548190Y-131516904D01*
X193548190Y-131231190D01*
X193595809Y-131135952D01*
X193643428Y-131088333D01*
X193738666Y-131040714D01*
X193929142Y-131040714D01*
X194024380Y-131088333D01*
X194310095Y-131040714D02*
X194691047Y-131040714D01*
X194452952Y-130707380D02*
X194452952Y-131564523D01*
X194500571Y-131659761D01*
X194595809Y-131707380D01*
X194691047Y-131707380D01*
X196214857Y-131707380D02*
X196214857Y-131183571D01*
X196167238Y-131088333D01*
X196072000Y-131040714D01*
X195881523Y-131040714D01*
X195786285Y-131088333D01*
X196214857Y-131659761D02*
X196119619Y-131707380D01*
X195881523Y-131707380D01*
X195786285Y-131659761D01*
X195738666Y-131564523D01*
X195738666Y-131469285D01*
X195786285Y-131374047D01*
X195881523Y-131326428D01*
X196119619Y-131326428D01*
X196214857Y-131278809D01*
X196833904Y-131707380D02*
X196738666Y-131659761D01*
X196691047Y-131564523D01*
X196691047Y-130707380D01*
X197214857Y-131707380D02*
X197214857Y-131040714D01*
X197214857Y-130707380D02*
X197167238Y-130755000D01*
X197214857Y-130802619D01*
X197262476Y-130755000D01*
X197214857Y-130707380D01*
X197214857Y-130802619D01*
X198119619Y-131040714D02*
X198119619Y-131850238D01*
X198072000Y-131945476D01*
X198024380Y-131993095D01*
X197929142Y-132040714D01*
X197786285Y-132040714D01*
X197691047Y-131993095D01*
X198119619Y-131659761D02*
X198024380Y-131707380D01*
X197833904Y-131707380D01*
X197738666Y-131659761D01*
X197691047Y-131612142D01*
X197643428Y-131516904D01*
X197643428Y-131231190D01*
X197691047Y-131135952D01*
X197738666Y-131088333D01*
X197833904Y-131040714D01*
X198024380Y-131040714D01*
X198119619Y-131088333D01*
X199024380Y-131707380D02*
X199024380Y-131183571D01*
X198976761Y-131088333D01*
X198881523Y-131040714D01*
X198691047Y-131040714D01*
X198595809Y-131088333D01*
X199024380Y-131659761D02*
X198929142Y-131707380D01*
X198691047Y-131707380D01*
X198595809Y-131659761D01*
X198548190Y-131564523D01*
X198548190Y-131469285D01*
X198595809Y-131374047D01*
X198691047Y-131326428D01*
X198929142Y-131326428D01*
X199024380Y-131278809D01*
X199357714Y-131040714D02*
X199738666Y-131040714D01*
X199500571Y-130707380D02*
X199500571Y-131564523D01*
X199548190Y-131659761D01*
X199643428Y-131707380D01*
X199738666Y-131707380D01*
X200214857Y-131707380D02*
X200119619Y-131659761D01*
X200072000Y-131612142D01*
X200024380Y-131516904D01*
X200024380Y-131231190D01*
X200072000Y-131135952D01*
X200119619Y-131088333D01*
X200214857Y-131040714D01*
X200357714Y-131040714D01*
X200452952Y-131088333D01*
X200500571Y-131135952D01*
X200548190Y-131231190D01*
X200548190Y-131516904D01*
X200500571Y-131612142D01*
X200452952Y-131659761D01*
X200357714Y-131707380D01*
X200214857Y-131707380D01*
X200976761Y-131707380D02*
X200976761Y-131040714D01*
X200976761Y-131231190D02*
X201024380Y-131135952D01*
X201072000Y-131088333D01*
X201167238Y-131040714D01*
X201262476Y-131040714D01*
X192357714Y-133309761D02*
X192262476Y-133357380D01*
X192072000Y-133357380D01*
X191976761Y-133309761D01*
X191929142Y-133262142D01*
X191881523Y-133166904D01*
X191881523Y-132881190D01*
X191929142Y-132785952D01*
X191976761Y-132738333D01*
X192072000Y-132690714D01*
X192262476Y-132690714D01*
X192357714Y-132738333D01*
X192929142Y-133357380D02*
X192833904Y-133309761D01*
X192786285Y-133214523D01*
X192786285Y-132357380D01*
X193310095Y-133357380D02*
X193310095Y-132690714D01*
X193310095Y-132357380D02*
X193262476Y-132405000D01*
X193310095Y-132452619D01*
X193357714Y-132405000D01*
X193310095Y-132357380D01*
X193310095Y-132452619D01*
X193786285Y-132690714D02*
X193786285Y-133690714D01*
X193786285Y-132738333D02*
X193881523Y-132690714D01*
X194072000Y-132690714D01*
X194167238Y-132738333D01*
X194214857Y-132785952D01*
X194262476Y-132881190D01*
X194262476Y-133166904D01*
X194214857Y-133262142D01*
X194167238Y-133309761D01*
X194072000Y-133357380D01*
X193881523Y-133357380D01*
X193786285Y-133309761D01*
X195452952Y-133357380D02*
X195452952Y-132357380D01*
X195881523Y-133357380D02*
X195881523Y-132833571D01*
X195833904Y-132738333D01*
X195738666Y-132690714D01*
X195595809Y-132690714D01*
X195500571Y-132738333D01*
X195452952Y-132785952D01*
X196738666Y-133309761D02*
X196643428Y-133357380D01*
X196452952Y-133357380D01*
X196357714Y-133309761D01*
X196310095Y-133214523D01*
X196310095Y-132833571D01*
X196357714Y-132738333D01*
X196452952Y-132690714D01*
X196643428Y-132690714D01*
X196738666Y-132738333D01*
X196786285Y-132833571D01*
X196786285Y-132928809D01*
X196310095Y-133024047D01*
X197214857Y-133357380D02*
X197214857Y-132690714D01*
X197214857Y-132881190D02*
X197262476Y-132785952D01*
X197310095Y-132738333D01*
X197405333Y-132690714D01*
X197500571Y-132690714D01*
X198214857Y-133309761D02*
X198119619Y-133357380D01*
X197929142Y-133357380D01*
X197833904Y-133309761D01*
X197786285Y-133214523D01*
X197786285Y-132833571D01*
X197833904Y-132738333D01*
X197929142Y-132690714D01*
X198119619Y-132690714D01*
X198214857Y-132738333D01*
X198262476Y-132833571D01*
X198262476Y-132928809D01*
X197786285Y-133024047D01*
X108053333Y-128707619D02*
X108100952Y-128660000D01*
X108196190Y-128612380D01*
X108434285Y-128612380D01*
X108529523Y-128660000D01*
X108577142Y-128707619D01*
X108624761Y-128802857D01*
X108624761Y-128898095D01*
X108577142Y-129040952D01*
X108005714Y-129612380D01*
X108624761Y-129612380D01*
X108958095Y-129612380D02*
X109481904Y-128945714D01*
X108958095Y-128945714D02*
X109481904Y-129612380D01*
X109767619Y-128612380D02*
X110386666Y-128612380D01*
X110053333Y-128993333D01*
X110196190Y-128993333D01*
X110291428Y-129040952D01*
X110339047Y-129088571D01*
X110386666Y-129183809D01*
X110386666Y-129421904D01*
X110339047Y-129517142D01*
X110291428Y-129564761D01*
X110196190Y-129612380D01*
X109910476Y-129612380D01*
X109815238Y-129564761D01*
X109767619Y-129517142D01*
X106029523Y-131262380D02*
X106029523Y-130262380D01*
X106600952Y-131262380D02*
X106172380Y-130690952D01*
X106600952Y-130262380D02*
X106029523Y-130833809D01*
X107410476Y-131214761D02*
X107315238Y-131262380D01*
X107124761Y-131262380D01*
X107029523Y-131214761D01*
X106981904Y-131119523D01*
X106981904Y-130738571D01*
X107029523Y-130643333D01*
X107124761Y-130595714D01*
X107315238Y-130595714D01*
X107410476Y-130643333D01*
X107458095Y-130738571D01*
X107458095Y-130833809D01*
X106981904Y-130929047D01*
X107791428Y-130595714D02*
X108029523Y-131262380D01*
X108267619Y-130595714D02*
X108029523Y-131262380D01*
X107934285Y-131500476D01*
X107886666Y-131548095D01*
X107791428Y-131595714D01*
X108648571Y-131262380D02*
X108648571Y-130262380D01*
X108648571Y-130643333D02*
X108743809Y-130595714D01*
X108934285Y-130595714D01*
X109029523Y-130643333D01*
X109077142Y-130690952D01*
X109124761Y-130786190D01*
X109124761Y-131071904D01*
X109077142Y-131167142D01*
X109029523Y-131214761D01*
X108934285Y-131262380D01*
X108743809Y-131262380D01*
X108648571Y-131214761D01*
X109696190Y-131262380D02*
X109600952Y-131214761D01*
X109553333Y-131167142D01*
X109505714Y-131071904D01*
X109505714Y-130786190D01*
X109553333Y-130690952D01*
X109600952Y-130643333D01*
X109696190Y-130595714D01*
X109839047Y-130595714D01*
X109934285Y-130643333D01*
X109981904Y-130690952D01*
X110029523Y-130786190D01*
X110029523Y-131071904D01*
X109981904Y-131167142D01*
X109934285Y-131214761D01*
X109839047Y-131262380D01*
X109696190Y-131262380D01*
X110886666Y-131262380D02*
X110886666Y-130738571D01*
X110839047Y-130643333D01*
X110743809Y-130595714D01*
X110553333Y-130595714D01*
X110458095Y-130643333D01*
X110886666Y-131214761D02*
X110791428Y-131262380D01*
X110553333Y-131262380D01*
X110458095Y-131214761D01*
X110410476Y-131119523D01*
X110410476Y-131024285D01*
X110458095Y-130929047D01*
X110553333Y-130881428D01*
X110791428Y-130881428D01*
X110886666Y-130833809D01*
X111362857Y-131262380D02*
X111362857Y-130595714D01*
X111362857Y-130786190D02*
X111410476Y-130690952D01*
X111458095Y-130643333D01*
X111553333Y-130595714D01*
X111648571Y-130595714D01*
X112410476Y-131262380D02*
X112410476Y-130262380D01*
X112410476Y-131214761D02*
X112315238Y-131262380D01*
X112124761Y-131262380D01*
X112029523Y-131214761D01*
X111981904Y-131167142D01*
X111934285Y-131071904D01*
X111934285Y-130786190D01*
X111981904Y-130690952D01*
X112029523Y-130643333D01*
X112124761Y-130595714D01*
X112315238Y-130595714D01*
X112410476Y-130643333D01*
X107196190Y-132912380D02*
X107196190Y-131912380D01*
X107529523Y-132626666D01*
X107862857Y-131912380D01*
X107862857Y-132912380D01*
X108767619Y-132912380D02*
X108767619Y-132388571D01*
X108720000Y-132293333D01*
X108624761Y-132245714D01*
X108434285Y-132245714D01*
X108339047Y-132293333D01*
X108767619Y-132864761D02*
X108672380Y-132912380D01*
X108434285Y-132912380D01*
X108339047Y-132864761D01*
X108291428Y-132769523D01*
X108291428Y-132674285D01*
X108339047Y-132579047D01*
X108434285Y-132531428D01*
X108672380Y-132531428D01*
X108767619Y-132483809D01*
X109100952Y-132245714D02*
X109481904Y-132245714D01*
X109243809Y-131912380D02*
X109243809Y-132769523D01*
X109291428Y-132864761D01*
X109386666Y-132912380D01*
X109481904Y-132912380D01*
X109815238Y-132912380D02*
X109815238Y-132245714D01*
X109815238Y-132436190D02*
X109862857Y-132340952D01*
X109910476Y-132293333D01*
X110005714Y-132245714D01*
X110100952Y-132245714D01*
X110434285Y-132912380D02*
X110434285Y-132245714D01*
X110434285Y-131912380D02*
X110386666Y-131960000D01*
X110434285Y-132007619D01*
X110481904Y-131960000D01*
X110434285Y-131912380D01*
X110434285Y-132007619D01*
X110815238Y-132912380D02*
X111339047Y-132245714D01*
X110815238Y-132245714D02*
X111339047Y-132912380D01*
D14*
X187229523Y-126808571D02*
X183229523Y-126808571D01*
X183229523Y-125284761D01*
X183420000Y-124903809D01*
X183610476Y-124713333D01*
X183991428Y-124522857D01*
X184562857Y-124522857D01*
X184943809Y-124713333D01*
X185134285Y-124903809D01*
X185324761Y-125284761D01*
X185324761Y-126808571D01*
X187229523Y-122808571D02*
X183229523Y-122808571D01*
X186086666Y-121475238D01*
X183229523Y-120141904D01*
X187229523Y-120141904D01*
X183229523Y-117475238D02*
X183229523Y-116713333D01*
X183420000Y-116332380D01*
X183800952Y-115951428D01*
X184562857Y-115760952D01*
X185896190Y-115760952D01*
X186658095Y-115951428D01*
X187039047Y-116332380D01*
X187229523Y-116713333D01*
X187229523Y-117475238D01*
X187039047Y-117856190D01*
X186658095Y-118237142D01*
X185896190Y-118427619D01*
X184562857Y-118427619D01*
X183800952Y-118237142D01*
X183420000Y-117856190D01*
X183229523Y-117475238D01*
X187229523Y-114046666D02*
X183229523Y-114046666D01*
X183229523Y-113094285D01*
X183420000Y-112522857D01*
X183800952Y-112141904D01*
X184181904Y-111951428D01*
X184943809Y-111760952D01*
X185515238Y-111760952D01*
X186277142Y-111951428D01*
X186658095Y-112141904D01*
X187039047Y-112522857D01*
X187229523Y-113094285D01*
X187229523Y-114046666D01*
D10*
X150220514Y-63509380D02*
X149744323Y-63509380D01*
X149744323Y-62509380D01*
X150553847Y-63509380D02*
X150553847Y-62509380D01*
X150887180Y-63223666D01*
X151220514Y-62509380D01*
X151220514Y-63509380D01*
X151601466Y-62509380D02*
X152268133Y-62509380D01*
X151839561Y-63509380D01*
X153125276Y-62509380D02*
X152649085Y-62509380D01*
X152601466Y-62985571D01*
X152649085Y-62937952D01*
X152744323Y-62890333D01*
X152982419Y-62890333D01*
X153077657Y-62937952D01*
X153125276Y-62985571D01*
X153172895Y-63080809D01*
X153172895Y-63318904D01*
X153125276Y-63414142D01*
X153077657Y-63461761D01*
X152982419Y-63509380D01*
X152744323Y-63509380D01*
X152649085Y-63461761D01*
X152601466Y-63414142D01*
X146934800Y-64159380D02*
X147506228Y-64159380D01*
X147220514Y-65159380D02*
X147220514Y-64159380D01*
X148220514Y-65111761D02*
X148125276Y-65159380D01*
X147934800Y-65159380D01*
X147839561Y-65111761D01*
X147791942Y-65016523D01*
X147791942Y-64635571D01*
X147839561Y-64540333D01*
X147934800Y-64492714D01*
X148125276Y-64492714D01*
X148220514Y-64540333D01*
X148268133Y-64635571D01*
X148268133Y-64730809D01*
X147791942Y-64826047D01*
X148696704Y-65159380D02*
X148696704Y-64492714D01*
X148696704Y-64587952D02*
X148744323Y-64540333D01*
X148839561Y-64492714D01*
X148982419Y-64492714D01*
X149077657Y-64540333D01*
X149125276Y-64635571D01*
X149125276Y-65159380D01*
X149125276Y-64635571D02*
X149172895Y-64540333D01*
X149268133Y-64492714D01*
X149410990Y-64492714D01*
X149506228Y-64540333D01*
X149553847Y-64635571D01*
X149553847Y-65159380D01*
X150030038Y-64492714D02*
X150030038Y-65492714D01*
X150030038Y-64540333D02*
X150125276Y-64492714D01*
X150315752Y-64492714D01*
X150410990Y-64540333D01*
X150458609Y-64587952D01*
X150506228Y-64683190D01*
X150506228Y-64968904D01*
X150458609Y-65064142D01*
X150410990Y-65111761D01*
X150315752Y-65159380D01*
X150125276Y-65159380D01*
X150030038Y-65111761D01*
X151315752Y-65111761D02*
X151220514Y-65159380D01*
X151030038Y-65159380D01*
X150934800Y-65111761D01*
X150887180Y-65016523D01*
X150887180Y-64635571D01*
X150934800Y-64540333D01*
X151030038Y-64492714D01*
X151220514Y-64492714D01*
X151315752Y-64540333D01*
X151363371Y-64635571D01*
X151363371Y-64730809D01*
X150887180Y-64826047D01*
X151791942Y-65159380D02*
X151791942Y-64492714D01*
X151791942Y-64683190D02*
X151839561Y-64587952D01*
X151887180Y-64540333D01*
X151982419Y-64492714D01*
X152077657Y-64492714D01*
X152839561Y-65159380D02*
X152839561Y-64635571D01*
X152791942Y-64540333D01*
X152696704Y-64492714D01*
X152506228Y-64492714D01*
X152410990Y-64540333D01*
X152839561Y-65111761D02*
X152744323Y-65159380D01*
X152506228Y-65159380D01*
X152410990Y-65111761D01*
X152363371Y-65016523D01*
X152363371Y-64921285D01*
X152410990Y-64826047D01*
X152506228Y-64778428D01*
X152744323Y-64778428D01*
X152839561Y-64730809D01*
X153172895Y-64492714D02*
X153553847Y-64492714D01*
X153315752Y-64159380D02*
X153315752Y-65016523D01*
X153363371Y-65111761D01*
X153458609Y-65159380D01*
X153553847Y-65159380D01*
X154315752Y-64492714D02*
X154315752Y-65159380D01*
X153887180Y-64492714D02*
X153887180Y-65016523D01*
X153934800Y-65111761D01*
X154030038Y-65159380D01*
X154172895Y-65159380D01*
X154268133Y-65111761D01*
X154315752Y-65064142D01*
X154791942Y-65159380D02*
X154791942Y-64492714D01*
X154791942Y-64683190D02*
X154839561Y-64587952D01*
X154887180Y-64540333D01*
X154982419Y-64492714D01*
X155077657Y-64492714D01*
X155791942Y-65111761D02*
X155696704Y-65159380D01*
X155506228Y-65159380D01*
X155410990Y-65111761D01*
X155363371Y-65016523D01*
X155363371Y-64635571D01*
X155410990Y-64540333D01*
X155506228Y-64492714D01*
X155696704Y-64492714D01*
X155791942Y-64540333D01*
X155839561Y-64635571D01*
X155839561Y-64730809D01*
X155363371Y-64826047D01*
X149101466Y-66761761D02*
X149244323Y-66809380D01*
X149482419Y-66809380D01*
X149577657Y-66761761D01*
X149625276Y-66714142D01*
X149672895Y-66618904D01*
X149672895Y-66523666D01*
X149625276Y-66428428D01*
X149577657Y-66380809D01*
X149482419Y-66333190D01*
X149291942Y-66285571D01*
X149196704Y-66237952D01*
X149149085Y-66190333D01*
X149101466Y-66095095D01*
X149101466Y-65999857D01*
X149149085Y-65904619D01*
X149196704Y-65857000D01*
X149291942Y-65809380D01*
X149530038Y-65809380D01*
X149672895Y-65857000D01*
X150482419Y-66761761D02*
X150387180Y-66809380D01*
X150196704Y-66809380D01*
X150101466Y-66761761D01*
X150053847Y-66666523D01*
X150053847Y-66285571D01*
X150101466Y-66190333D01*
X150196704Y-66142714D01*
X150387180Y-66142714D01*
X150482419Y-66190333D01*
X150530038Y-66285571D01*
X150530038Y-66380809D01*
X150053847Y-66476047D01*
X150958609Y-66142714D02*
X150958609Y-66809380D01*
X150958609Y-66237952D02*
X151006228Y-66190333D01*
X151101466Y-66142714D01*
X151244323Y-66142714D01*
X151339561Y-66190333D01*
X151387180Y-66285571D01*
X151387180Y-66809380D01*
X151815752Y-66761761D02*
X151910990Y-66809380D01*
X152101466Y-66809380D01*
X152196704Y-66761761D01*
X152244323Y-66666523D01*
X152244323Y-66618904D01*
X152196704Y-66523666D01*
X152101466Y-66476047D01*
X151958609Y-66476047D01*
X151863371Y-66428428D01*
X151815752Y-66333190D01*
X151815752Y-66285571D01*
X151863371Y-66190333D01*
X151958609Y-66142714D01*
X152101466Y-66142714D01*
X152196704Y-66190333D01*
X152815752Y-66809380D02*
X152720514Y-66761761D01*
X152672895Y-66714142D01*
X152625276Y-66618904D01*
X152625276Y-66333190D01*
X152672895Y-66237952D01*
X152720514Y-66190333D01*
X152815752Y-66142714D01*
X152958609Y-66142714D01*
X153053847Y-66190333D01*
X153101466Y-66237952D01*
X153149085Y-66333190D01*
X153149085Y-66618904D01*
X153101466Y-66714142D01*
X153053847Y-66761761D01*
X152958609Y-66809380D01*
X152815752Y-66809380D01*
X153577657Y-66809380D02*
X153577657Y-66142714D01*
X153577657Y-66333190D02*
X153625276Y-66237952D01*
X153672895Y-66190333D01*
X153768133Y-66142714D01*
X153863371Y-66142714D01*
X147244323Y-68173666D02*
X147720514Y-68173666D01*
X147149085Y-68459380D02*
X147482419Y-67459380D01*
X147815752Y-68459380D01*
X148149085Y-68459380D02*
X148149085Y-67459380D01*
X148387180Y-67459380D01*
X148530038Y-67507000D01*
X148625276Y-67602238D01*
X148672895Y-67697476D01*
X148720514Y-67887952D01*
X148720514Y-68030809D01*
X148672895Y-68221285D01*
X148625276Y-68316523D01*
X148530038Y-68411761D01*
X148387180Y-68459380D01*
X148149085Y-68459380D01*
X149149085Y-68459380D02*
X149149085Y-67459380D01*
X149387180Y-67459380D01*
X149530038Y-67507000D01*
X149625276Y-67602238D01*
X149672895Y-67697476D01*
X149720514Y-67887952D01*
X149720514Y-68030809D01*
X149672895Y-68221285D01*
X149625276Y-68316523D01*
X149530038Y-68411761D01*
X149387180Y-68459380D01*
X149149085Y-68459380D01*
X150720514Y-68459380D02*
X150387180Y-67983190D01*
X150149085Y-68459380D02*
X150149085Y-67459380D01*
X150530038Y-67459380D01*
X150625276Y-67507000D01*
X150672895Y-67554619D01*
X150720514Y-67649857D01*
X150720514Y-67792714D01*
X150672895Y-67887952D01*
X150625276Y-67935571D01*
X150530038Y-67983190D01*
X150149085Y-67983190D01*
X151149085Y-68364142D02*
X151196704Y-68411761D01*
X151149085Y-68459380D01*
X151101466Y-68411761D01*
X151149085Y-68364142D01*
X151149085Y-68459380D01*
X151149085Y-67840333D02*
X151196704Y-67887952D01*
X151149085Y-67935571D01*
X151101466Y-67887952D01*
X151149085Y-67840333D01*
X151149085Y-67935571D01*
X152577657Y-67459380D02*
X152672895Y-67459380D01*
X152768133Y-67507000D01*
X152815752Y-67554619D01*
X152863371Y-67649857D01*
X152910990Y-67840333D01*
X152910990Y-68078428D01*
X152863371Y-68268904D01*
X152815752Y-68364142D01*
X152768133Y-68411761D01*
X152672895Y-68459380D01*
X152577657Y-68459380D01*
X152482419Y-68411761D01*
X152434800Y-68364142D01*
X152387180Y-68268904D01*
X152339561Y-68078428D01*
X152339561Y-67840333D01*
X152387180Y-67649857D01*
X152434800Y-67554619D01*
X152482419Y-67507000D01*
X152577657Y-67459380D01*
X153244323Y-68459380D02*
X153768133Y-67792714D01*
X153244323Y-67792714D02*
X153768133Y-68459380D01*
X154577657Y-67792714D02*
X154577657Y-68459380D01*
X154339561Y-67411761D02*
X154101466Y-68126047D01*
X154720514Y-68126047D01*
X155244323Y-67887952D02*
X155149085Y-67840333D01*
X155101466Y-67792714D01*
X155053847Y-67697476D01*
X155053847Y-67649857D01*
X155101466Y-67554619D01*
X155149085Y-67507000D01*
X155244323Y-67459380D01*
X155434800Y-67459380D01*
X155530038Y-67507000D01*
X155577657Y-67554619D01*
X155625276Y-67649857D01*
X155625276Y-67697476D01*
X155577657Y-67792714D01*
X155530038Y-67840333D01*
X155434800Y-67887952D01*
X155244323Y-67887952D01*
X155149085Y-67935571D01*
X155101466Y-67983190D01*
X155053847Y-68078428D01*
X155053847Y-68268904D01*
X155101466Y-68364142D01*
X155149085Y-68411761D01*
X155244323Y-68459380D01*
X155434800Y-68459380D01*
X155530038Y-68411761D01*
X155577657Y-68364142D01*
X155625276Y-68268904D01*
X155625276Y-68078428D01*
X155577657Y-67983190D01*
X155530038Y-67935571D01*
X155434800Y-67887952D01*
X181506952Y-136312666D02*
X181983142Y-136312666D01*
X181411714Y-136598380D02*
X181745047Y-135598380D01*
X182078380Y-136598380D01*
X182887904Y-136598380D02*
X182411714Y-136598380D01*
X182411714Y-135598380D01*
X183173619Y-136550761D02*
X183316476Y-136598380D01*
X183554571Y-136598380D01*
X183649809Y-136550761D01*
X183697428Y-136503142D01*
X183745047Y-136407904D01*
X183745047Y-136312666D01*
X183697428Y-136217428D01*
X183649809Y-136169809D01*
X183554571Y-136122190D01*
X183364095Y-136074571D01*
X183268857Y-136026952D01*
X183221238Y-135979333D01*
X183173619Y-135884095D01*
X183173619Y-135788857D01*
X183221238Y-135693619D01*
X183268857Y-135646000D01*
X183364095Y-135598380D01*
X183602190Y-135598380D01*
X183745047Y-135646000D01*
X181030761Y-138248380D02*
X181030761Y-137248380D01*
X181411714Y-137248380D01*
X181506952Y-137296000D01*
X181554571Y-137343619D01*
X181602190Y-137438857D01*
X181602190Y-137581714D01*
X181554571Y-137676952D01*
X181506952Y-137724571D01*
X181411714Y-137772190D01*
X181030761Y-137772190D01*
X181887904Y-137248380D02*
X182459333Y-137248380D01*
X182173619Y-138248380D02*
X182173619Y-137248380D01*
X183316476Y-138248380D02*
X182745047Y-138248380D01*
X183030761Y-138248380D02*
X183030761Y-137248380D01*
X182935523Y-137391238D01*
X182840285Y-137486476D01*
X182745047Y-137534095D01*
X183792666Y-138248380D02*
X183983142Y-138248380D01*
X184078380Y-138200761D01*
X184126000Y-138153142D01*
X184221238Y-138010285D01*
X184268857Y-137819809D01*
X184268857Y-137438857D01*
X184221238Y-137343619D01*
X184173619Y-137296000D01*
X184078380Y-137248380D01*
X183887904Y-137248380D01*
X183792666Y-137296000D01*
X183745047Y-137343619D01*
X183697428Y-137438857D01*
X183697428Y-137676952D01*
X183745047Y-137772190D01*
X183792666Y-137819809D01*
X183887904Y-137867428D01*
X184078380Y-137867428D01*
X184173619Y-137819809D01*
X184221238Y-137772190D01*
X184268857Y-137676952D01*
X181506952Y-139898380D02*
X181030761Y-139898380D01*
X181030761Y-138898380D01*
X181840285Y-139898380D02*
X181840285Y-139231714D01*
X181840285Y-138898380D02*
X181792666Y-138946000D01*
X181840285Y-138993619D01*
X181887904Y-138946000D01*
X181840285Y-138898380D01*
X181840285Y-138993619D01*
X182745047Y-139231714D02*
X182745047Y-140041238D01*
X182697428Y-140136476D01*
X182649809Y-140184095D01*
X182554571Y-140231714D01*
X182411714Y-140231714D01*
X182316476Y-140184095D01*
X182745047Y-139850761D02*
X182649809Y-139898380D01*
X182459333Y-139898380D01*
X182364095Y-139850761D01*
X182316476Y-139803142D01*
X182268857Y-139707904D01*
X182268857Y-139422190D01*
X182316476Y-139326952D01*
X182364095Y-139279333D01*
X182459333Y-139231714D01*
X182649809Y-139231714D01*
X182745047Y-139279333D01*
X183221238Y-139898380D02*
X183221238Y-138898380D01*
X183649809Y-139898380D02*
X183649809Y-139374571D01*
X183602190Y-139279333D01*
X183506952Y-139231714D01*
X183364095Y-139231714D01*
X183268857Y-139279333D01*
X183221238Y-139326952D01*
X183983142Y-139231714D02*
X184364095Y-139231714D01*
X184126000Y-138898380D02*
X184126000Y-139755523D01*
X184173619Y-139850761D01*
X184268857Y-139898380D01*
X184364095Y-139898380D01*
X180292666Y-141500761D02*
X180435523Y-141548380D01*
X180673619Y-141548380D01*
X180768857Y-141500761D01*
X180816476Y-141453142D01*
X180864095Y-141357904D01*
X180864095Y-141262666D01*
X180816476Y-141167428D01*
X180768857Y-141119809D01*
X180673619Y-141072190D01*
X180483142Y-141024571D01*
X180387904Y-140976952D01*
X180340285Y-140929333D01*
X180292666Y-140834095D01*
X180292666Y-140738857D01*
X180340285Y-140643619D01*
X180387904Y-140596000D01*
X180483142Y-140548380D01*
X180721238Y-140548380D01*
X180864095Y-140596000D01*
X181673619Y-141500761D02*
X181578380Y-141548380D01*
X181387904Y-141548380D01*
X181292666Y-141500761D01*
X181245047Y-141405523D01*
X181245047Y-141024571D01*
X181292666Y-140929333D01*
X181387904Y-140881714D01*
X181578380Y-140881714D01*
X181673619Y-140929333D01*
X181721238Y-141024571D01*
X181721238Y-141119809D01*
X181245047Y-141215047D01*
X182149809Y-140881714D02*
X182149809Y-141548380D01*
X182149809Y-140976952D02*
X182197428Y-140929333D01*
X182292666Y-140881714D01*
X182435523Y-140881714D01*
X182530761Y-140929333D01*
X182578380Y-141024571D01*
X182578380Y-141548380D01*
X183006952Y-141500761D02*
X183102190Y-141548380D01*
X183292666Y-141548380D01*
X183387904Y-141500761D01*
X183435523Y-141405523D01*
X183435523Y-141357904D01*
X183387904Y-141262666D01*
X183292666Y-141215047D01*
X183149809Y-141215047D01*
X183054571Y-141167428D01*
X183006952Y-141072190D01*
X183006952Y-141024571D01*
X183054571Y-140929333D01*
X183149809Y-140881714D01*
X183292666Y-140881714D01*
X183387904Y-140929333D01*
X184006952Y-141548380D02*
X183911714Y-141500761D01*
X183864095Y-141453142D01*
X183816476Y-141357904D01*
X183816476Y-141072190D01*
X183864095Y-140976952D01*
X183911714Y-140929333D01*
X184006952Y-140881714D01*
X184149809Y-140881714D01*
X184245047Y-140929333D01*
X184292666Y-140976952D01*
X184340285Y-141072190D01*
X184340285Y-141357904D01*
X184292666Y-141453142D01*
X184245047Y-141500761D01*
X184149809Y-141548380D01*
X184006952Y-141548380D01*
X184768857Y-141548380D02*
X184768857Y-140881714D01*
X184768857Y-141072190D02*
X184816476Y-140976952D01*
X184864095Y-140929333D01*
X184959333Y-140881714D01*
X185054571Y-140881714D01*
X120754476Y-68540380D02*
X120992571Y-69540380D01*
X121183047Y-68826095D01*
X121373523Y-69540380D01*
X121611619Y-68540380D01*
X121944952Y-69492761D02*
X122087809Y-69540380D01*
X122325904Y-69540380D01*
X122421142Y-69492761D01*
X122468761Y-69445142D01*
X122516380Y-69349904D01*
X122516380Y-69254666D01*
X122468761Y-69159428D01*
X122421142Y-69111809D01*
X122325904Y-69064190D01*
X122135428Y-69016571D01*
X122040190Y-68968952D01*
X121992571Y-68921333D01*
X121944952Y-68826095D01*
X121944952Y-68730857D01*
X121992571Y-68635619D01*
X122040190Y-68588000D01*
X122135428Y-68540380D01*
X122373523Y-68540380D01*
X122516380Y-68588000D01*
X122897333Y-68635619D02*
X122944952Y-68588000D01*
X123040190Y-68540380D01*
X123278285Y-68540380D01*
X123373523Y-68588000D01*
X123421142Y-68635619D01*
X123468761Y-68730857D01*
X123468761Y-68826095D01*
X123421142Y-68968952D01*
X122849714Y-69540380D01*
X123468761Y-69540380D01*
X124040190Y-68968952D02*
X123944952Y-68921333D01*
X123897333Y-68873714D01*
X123849714Y-68778476D01*
X123849714Y-68730857D01*
X123897333Y-68635619D01*
X123944952Y-68588000D01*
X124040190Y-68540380D01*
X124230666Y-68540380D01*
X124325904Y-68588000D01*
X124373523Y-68635619D01*
X124421142Y-68730857D01*
X124421142Y-68778476D01*
X124373523Y-68873714D01*
X124325904Y-68921333D01*
X124230666Y-68968952D01*
X124040190Y-68968952D01*
X123944952Y-69016571D01*
X123897333Y-69064190D01*
X123849714Y-69159428D01*
X123849714Y-69349904D01*
X123897333Y-69445142D01*
X123944952Y-69492761D01*
X124040190Y-69540380D01*
X124230666Y-69540380D01*
X124325904Y-69492761D01*
X124373523Y-69445142D01*
X124421142Y-69349904D01*
X124421142Y-69159428D01*
X124373523Y-69064190D01*
X124325904Y-69016571D01*
X124230666Y-68968952D01*
X125373523Y-69540380D02*
X124802095Y-69540380D01*
X125087809Y-69540380D02*
X125087809Y-68540380D01*
X124992571Y-68683238D01*
X124897333Y-68778476D01*
X124802095Y-68826095D01*
X125754476Y-68635619D02*
X125802095Y-68588000D01*
X125897333Y-68540380D01*
X126135428Y-68540380D01*
X126230666Y-68588000D01*
X126278285Y-68635619D01*
X126325904Y-68730857D01*
X126325904Y-68826095D01*
X126278285Y-68968952D01*
X125706857Y-69540380D01*
X126325904Y-69540380D01*
X127087809Y-69016571D02*
X127230666Y-69064190D01*
X127278285Y-69111809D01*
X127325904Y-69207047D01*
X127325904Y-69349904D01*
X127278285Y-69445142D01*
X127230666Y-69492761D01*
X127135428Y-69540380D01*
X126754476Y-69540380D01*
X126754476Y-68540380D01*
X127087809Y-68540380D01*
X127183047Y-68588000D01*
X127230666Y-68635619D01*
X127278285Y-68730857D01*
X127278285Y-68826095D01*
X127230666Y-68921333D01*
X127183047Y-68968952D01*
X127087809Y-69016571D01*
X126754476Y-69016571D01*
X128468761Y-69254666D02*
X128944952Y-69254666D01*
X128373523Y-69540380D02*
X128706857Y-68540380D01*
X129040190Y-69540380D01*
X129802095Y-69540380D02*
X129802095Y-68540380D01*
X129802095Y-69492761D02*
X129706857Y-69540380D01*
X129516380Y-69540380D01*
X129421142Y-69492761D01*
X129373523Y-69445142D01*
X129325904Y-69349904D01*
X129325904Y-69064190D01*
X129373523Y-68968952D01*
X129421142Y-68921333D01*
X129516380Y-68873714D01*
X129706857Y-68873714D01*
X129802095Y-68921333D01*
X130706857Y-69540380D02*
X130706857Y-68540380D01*
X130706857Y-69492761D02*
X130611619Y-69540380D01*
X130421142Y-69540380D01*
X130325904Y-69492761D01*
X130278285Y-69445142D01*
X130230666Y-69349904D01*
X130230666Y-69064190D01*
X130278285Y-68968952D01*
X130325904Y-68921333D01*
X130421142Y-68873714D01*
X130611619Y-68873714D01*
X130706857Y-68921333D01*
X131183047Y-69540380D02*
X131183047Y-68873714D01*
X131183047Y-69064190D02*
X131230666Y-68968952D01*
X131278285Y-68921333D01*
X131373523Y-68873714D01*
X131468761Y-68873714D01*
X132183047Y-69492761D02*
X132087809Y-69540380D01*
X131897333Y-69540380D01*
X131802095Y-69492761D01*
X131754476Y-69397523D01*
X131754476Y-69016571D01*
X131802095Y-68921333D01*
X131897333Y-68873714D01*
X132087809Y-68873714D01*
X132183047Y-68921333D01*
X132230666Y-69016571D01*
X132230666Y-69111809D01*
X131754476Y-69207047D01*
X132611619Y-69492761D02*
X132706857Y-69540380D01*
X132897333Y-69540380D01*
X132992571Y-69492761D01*
X133040190Y-69397523D01*
X133040190Y-69349904D01*
X132992571Y-69254666D01*
X132897333Y-69207047D01*
X132754476Y-69207047D01*
X132659238Y-69159428D01*
X132611619Y-69064190D01*
X132611619Y-69016571D01*
X132659238Y-68921333D01*
X132754476Y-68873714D01*
X132897333Y-68873714D01*
X132992571Y-68921333D01*
X133421142Y-69492761D02*
X133516380Y-69540380D01*
X133706857Y-69540380D01*
X133802095Y-69492761D01*
X133849714Y-69397523D01*
X133849714Y-69349904D01*
X133802095Y-69254666D01*
X133706857Y-69207047D01*
X133564000Y-69207047D01*
X133468761Y-69159428D01*
X133421142Y-69064190D01*
X133421142Y-69016571D01*
X133468761Y-68921333D01*
X133564000Y-68873714D01*
X133706857Y-68873714D01*
X133802095Y-68921333D01*
X134706857Y-69540380D02*
X134706857Y-69016571D01*
X134659238Y-68921333D01*
X134564000Y-68873714D01*
X134373523Y-68873714D01*
X134278285Y-68921333D01*
X134706857Y-69492761D02*
X134611619Y-69540380D01*
X134373523Y-69540380D01*
X134278285Y-69492761D01*
X134230666Y-69397523D01*
X134230666Y-69302285D01*
X134278285Y-69207047D01*
X134373523Y-69159428D01*
X134611619Y-69159428D01*
X134706857Y-69111809D01*
X135183047Y-69540380D02*
X135183047Y-68540380D01*
X135183047Y-68921333D02*
X135278285Y-68873714D01*
X135468761Y-68873714D01*
X135564000Y-68921333D01*
X135611619Y-68968952D01*
X135659238Y-69064190D01*
X135659238Y-69349904D01*
X135611619Y-69445142D01*
X135564000Y-69492761D01*
X135468761Y-69540380D01*
X135278285Y-69540380D01*
X135183047Y-69492761D01*
X136230666Y-69540380D02*
X136135428Y-69492761D01*
X136087809Y-69397523D01*
X136087809Y-68540380D01*
X136992571Y-69492761D02*
X136897333Y-69540380D01*
X136706857Y-69540380D01*
X136611619Y-69492761D01*
X136564000Y-69397523D01*
X136564000Y-69016571D01*
X136611619Y-68921333D01*
X136706857Y-68873714D01*
X136897333Y-68873714D01*
X136992571Y-68921333D01*
X137040190Y-69016571D01*
X137040190Y-69111809D01*
X136564000Y-69207047D01*
X138706857Y-69540380D02*
X138230666Y-69540380D01*
X138230666Y-68540380D01*
X139040190Y-69016571D02*
X139373523Y-69016571D01*
X139516380Y-69540380D02*
X139040190Y-69540380D01*
X139040190Y-68540380D01*
X139516380Y-68540380D01*
X139944952Y-69540380D02*
X139944952Y-68540380D01*
X140183047Y-68540380D01*
X140325904Y-68588000D01*
X140421142Y-68683238D01*
X140468761Y-68778476D01*
X140516380Y-68968952D01*
X140516380Y-69111809D01*
X140468761Y-69302285D01*
X140421142Y-69397523D01*
X140325904Y-69492761D01*
X140183047Y-69540380D01*
X139944952Y-69540380D01*
X140897333Y-69492761D02*
X140992571Y-69540380D01*
X141183047Y-69540380D01*
X141278285Y-69492761D01*
X141325904Y-69397523D01*
X141325904Y-69349904D01*
X141278285Y-69254666D01*
X141183047Y-69207047D01*
X141040190Y-69207047D01*
X140944952Y-69159428D01*
X140897333Y-69064190D01*
X140897333Y-69016571D01*
X140944952Y-68921333D01*
X141040190Y-68873714D01*
X141183047Y-68873714D01*
X141278285Y-68921333D01*
D15*
%TO.C,CON1*%
X198348600Y-89868000D02*
G75*
G03*
X198348600Y-89868000I-228600J0D01*
G01*
X195173600Y-91011000D02*
G75*
G03*
X195173600Y-91011000I-228600J0D01*
G01*
X195173600Y-88725000D02*
G75*
G03*
X195173600Y-88725000I-228600J0D01*
G01*
X195173600Y-86566000D02*
G75*
G03*
X195173600Y-86566000I-228600J0D01*
G01*
X198348600Y-87582000D02*
G75*
G03*
X198348600Y-87582000I-228600J0D01*
G01*
D16*
X196469000Y-89868000D02*
X198120000Y-89868000D01*
X196469000Y-87582000D02*
X198120000Y-87582000D01*
X196469000Y-91011000D02*
X194945000Y-91011000D01*
X196469000Y-88725000D02*
X194945000Y-88725000D01*
X196469000Y-86566000D02*
X194945000Y-86566000D01*
X196469000Y-89868000D02*
X196469000Y-91011000D01*
X196469000Y-88725000D02*
X196469000Y-89868000D01*
X196469000Y-87582000D02*
X196469000Y-88725000D01*
X196469000Y-86566000D02*
X196469000Y-87582000D01*
D17*
X177800000Y-101600000D02*
X175210000Y-99070000D01*
X200025000Y-102870000D02*
X176530000Y-102870000D01*
X173990000Y-77470000D02*
X173990000Y-100330000D01*
X200025000Y-74930000D02*
X176530000Y-74930000D01*
X195580000Y-76200000D02*
X195580000Y-78740000D01*
X198120000Y-99060000D02*
X198120000Y-101600000D01*
X177800000Y-99060000D02*
X177800000Y-101600000D01*
X195580000Y-99060000D02*
X177800000Y-99060000D01*
X198120000Y-99060000D02*
X195580000Y-99060000D01*
X198120000Y-101600000D02*
X177800000Y-101600000D01*
X195580000Y-99060000D02*
X195580000Y-101600000D01*
X198120000Y-78740000D02*
X198120000Y-76200000D01*
X195580000Y-78740000D02*
X198120000Y-78740000D01*
X177800000Y-78740000D02*
X195580000Y-78740000D01*
X177800000Y-76200000D02*
X177800000Y-78740000D01*
X195580000Y-76200000D02*
X177800000Y-76200000D01*
X198120000Y-76200000D02*
X195580000Y-76200000D01*
X200025000Y-102870000D02*
G75*
G03*
X202565000Y-100330000I0J2540000D01*
G01*
X202565000Y-77470000D02*
G75*
G03*
X200025000Y-74930000I-2540000J0D01*
G01*
X173990000Y-100330000D02*
G75*
G03*
X176530000Y-102870000I2540000J0D01*
G01*
X173990000Y-100330000D02*
G75*
G03*
X176530000Y-102870000I2540000J0D01*
G01*
X176530000Y-74930000D02*
G75*
G03*
X173990000Y-77470000I0J-2540000D01*
G01*
D12*
%TO.C,J5*%
X170120000Y-64600000D02*
X180400000Y-64600000D01*
X180400000Y-64600000D02*
X180400000Y-61940000D01*
X180400000Y-61940000D02*
X170120000Y-61940000D01*
X170120000Y-61940000D02*
X170120000Y-64600000D01*
X171070000Y-61940000D02*
X171070000Y-61214000D01*
X171069000Y-61214000D02*
X171829000Y-61214000D01*
X171829000Y-61214000D02*
X171830000Y-61940000D01*
X171130000Y-61940000D02*
X171130000Y-61214000D01*
X171250000Y-61940000D02*
X171250000Y-61214000D01*
X171370000Y-61940000D02*
X171370000Y-61214000D01*
X171490000Y-61940000D02*
X171490000Y-61214000D01*
X171610000Y-61940000D02*
X171610000Y-61214000D01*
X171730000Y-61940000D02*
X171730000Y-61214000D01*
X171070000Y-64930000D02*
X171070000Y-64600000D01*
X171830000Y-64930000D02*
X171830000Y-64600000D01*
X172720000Y-64600000D02*
X172720000Y-61940000D01*
X173610000Y-61940000D02*
X173609000Y-61214000D01*
X173610000Y-61214000D02*
X174370000Y-61214000D01*
X174370000Y-61214000D02*
X174370000Y-61940000D01*
X173610000Y-64997071D02*
X173610000Y-64600000D01*
X174370000Y-64997071D02*
X174370000Y-64600000D01*
X175260000Y-64600000D02*
X175260000Y-61940000D01*
X176150000Y-61940000D02*
X176150000Y-61214000D01*
X176150000Y-61214000D02*
X176910000Y-61214000D01*
X176910000Y-61214000D02*
X176910000Y-61940000D01*
X176150000Y-64997071D02*
X176150000Y-64600000D01*
X176910000Y-64997071D02*
X176910000Y-64600000D01*
X177800000Y-64600000D02*
X177800000Y-61940000D01*
X178690000Y-61940000D02*
X178690000Y-61214000D01*
X178690000Y-61214000D02*
X179450000Y-61214000D01*
X179450000Y-61214000D02*
X179450000Y-61940000D01*
X178690000Y-64997071D02*
X178690000Y-64600000D01*
X179450000Y-64997071D02*
X179450000Y-64600000D01*
X171450000Y-67310000D02*
X170180000Y-67310000D01*
X170180000Y-67310000D02*
X170180000Y-66040000D01*
%TO.C,A1*%
X104775000Y-71120000D02*
X104775000Y-124968000D01*
X168910000Y-112268000D02*
X168910000Y-83820000D01*
X104775000Y-124968000D02*
X156210000Y-124968000D01*
X104775000Y-71120000D02*
X156210000Y-71120000D01*
X168910000Y-112268000D02*
G75*
G02*
X156210000Y-124968000I-12700000J0D01*
G01*
X156210000Y-71120000D02*
G75*
G02*
X168910000Y-83820000I0J-12700000D01*
G01*
D18*
%TO.C,SYM1*%
G36*
X167168780Y-127620884D02*
G01*
X167318950Y-127647659D01*
X167494649Y-127696648D01*
X167679035Y-127762046D01*
X167855262Y-127838045D01*
X167968566Y-127896593D01*
X168201401Y-128055110D01*
X168397424Y-128247576D01*
X168559002Y-128476539D01*
X168628518Y-128607380D01*
X168655927Y-128662757D01*
X168680923Y-128711539D01*
X168703619Y-128756158D01*
X168724132Y-128799048D01*
X168742574Y-128842642D01*
X168759061Y-128889374D01*
X168773706Y-128941677D01*
X168786625Y-129001983D01*
X168797931Y-129072727D01*
X168807739Y-129156341D01*
X168816165Y-129255258D01*
X168823321Y-129371913D01*
X168829322Y-129508737D01*
X168834284Y-129668165D01*
X168838319Y-129852630D01*
X168841544Y-130064564D01*
X168844072Y-130306402D01*
X168846017Y-130580576D01*
X168847494Y-130889519D01*
X168848618Y-131235665D01*
X168849503Y-131621448D01*
X168850264Y-132049299D01*
X168851014Y-132521653D01*
X168851868Y-133040943D01*
X168852465Y-133369050D01*
X168860375Y-137515600D01*
X168326971Y-137515600D01*
X168311869Y-129197100D01*
X168254506Y-128981200D01*
X168155948Y-128689051D01*
X168022792Y-128429270D01*
X167852115Y-128198325D01*
X167640991Y-127992686D01*
X167386497Y-127808822D01*
X167190088Y-127695962D01*
X167017700Y-127605143D01*
X167168780Y-127620884D01*
G37*
X167168780Y-127620884D02*
X167318950Y-127647659D01*
X167494649Y-127696648D01*
X167679035Y-127762046D01*
X167855262Y-127838045D01*
X167968566Y-127896593D01*
X168201401Y-128055110D01*
X168397424Y-128247576D01*
X168559002Y-128476539D01*
X168628518Y-128607380D01*
X168655927Y-128662757D01*
X168680923Y-128711539D01*
X168703619Y-128756158D01*
X168724132Y-128799048D01*
X168742574Y-128842642D01*
X168759061Y-128889374D01*
X168773706Y-128941677D01*
X168786625Y-129001983D01*
X168797931Y-129072727D01*
X168807739Y-129156341D01*
X168816165Y-129255258D01*
X168823321Y-129371913D01*
X168829322Y-129508737D01*
X168834284Y-129668165D01*
X168838319Y-129852630D01*
X168841544Y-130064564D01*
X168844072Y-130306402D01*
X168846017Y-130580576D01*
X168847494Y-130889519D01*
X168848618Y-131235665D01*
X168849503Y-131621448D01*
X168850264Y-132049299D01*
X168851014Y-132521653D01*
X168851868Y-133040943D01*
X168852465Y-133369050D01*
X168860375Y-137515600D01*
X168326971Y-137515600D01*
X168311869Y-129197100D01*
X168254506Y-128981200D01*
X168155948Y-128689051D01*
X168022792Y-128429270D01*
X167852115Y-128198325D01*
X167640991Y-127992686D01*
X167386497Y-127808822D01*
X167190088Y-127695962D01*
X167017700Y-127605143D01*
X167168780Y-127620884D01*
G36*
X166685181Y-127619800D02*
G01*
X166760307Y-127643042D01*
X166858915Y-127680749D01*
X166970219Y-127728418D01*
X167083434Y-127781547D01*
X167187773Y-127835634D01*
X167231779Y-127860758D01*
X167414754Y-127988927D01*
X167586465Y-128145518D01*
X167732233Y-128316076D01*
X167804188Y-128424281D01*
X167898168Y-128613674D01*
X167979167Y-128833003D01*
X168040459Y-129061788D01*
X168070370Y-129234533D01*
X168074539Y-129294759D01*
X168078358Y-129405686D01*
X168081826Y-129567218D01*
X168084944Y-129779257D01*
X168087711Y-130041706D01*
X168090125Y-130354469D01*
X168092186Y-130717448D01*
X168093895Y-131130545D01*
X168095249Y-131593664D01*
X168096249Y-132106708D01*
X168096893Y-132669579D01*
X168097182Y-133282181D01*
X168097200Y-133482683D01*
X168097200Y-137515600D01*
X167563800Y-137515600D01*
X167563015Y-133445250D01*
X167562760Y-132919585D01*
X167562209Y-132420187D01*
X167561375Y-131948993D01*
X167560268Y-131507940D01*
X167558899Y-131098966D01*
X167557282Y-130724008D01*
X167555426Y-130385003D01*
X167553343Y-130083887D01*
X167551045Y-129822599D01*
X167548544Y-129603076D01*
X167545850Y-129427254D01*
X167542975Y-129297071D01*
X167539931Y-129214464D01*
X167537821Y-129186844D01*
X167472820Y-128845955D01*
X167370742Y-128536171D01*
X167232424Y-128259435D01*
X167058706Y-128017689D01*
X167008721Y-127961745D01*
X166920285Y-127871127D01*
X166830944Y-127786397D01*
X166754474Y-127720355D01*
X166724810Y-127697953D01*
X166669762Y-127655219D01*
X166642598Y-127624620D01*
X166644322Y-127615525D01*
X166685181Y-127619800D01*
G37*
X166685181Y-127619800D02*
X166760307Y-127643042D01*
X166858915Y-127680749D01*
X166970219Y-127728418D01*
X167083434Y-127781547D01*
X167187773Y-127835634D01*
X167231779Y-127860758D01*
X167414754Y-127988927D01*
X167586465Y-128145518D01*
X167732233Y-128316076D01*
X167804188Y-128424281D01*
X167898168Y-128613674D01*
X167979167Y-128833003D01*
X168040459Y-129061788D01*
X168070370Y-129234533D01*
X168074539Y-129294759D01*
X168078358Y-129405686D01*
X168081826Y-129567218D01*
X168084944Y-129779257D01*
X168087711Y-130041706D01*
X168090125Y-130354469D01*
X168092186Y-130717448D01*
X168093895Y-131130545D01*
X168095249Y-131593664D01*
X168096249Y-132106708D01*
X168096893Y-132669579D01*
X168097182Y-133282181D01*
X168097200Y-133482683D01*
X168097200Y-137515600D01*
X167563800Y-137515600D01*
X167563015Y-133445250D01*
X167562760Y-132919585D01*
X167562209Y-132420187D01*
X167561375Y-131948993D01*
X167560268Y-131507940D01*
X167558899Y-131098966D01*
X167557282Y-130724008D01*
X167555426Y-130385003D01*
X167553343Y-130083887D01*
X167551045Y-129822599D01*
X167548544Y-129603076D01*
X167545850Y-129427254D01*
X167542975Y-129297071D01*
X167539931Y-129214464D01*
X167537821Y-129186844D01*
X167472820Y-128845955D01*
X167370742Y-128536171D01*
X167232424Y-128259435D01*
X167058706Y-128017689D01*
X167008721Y-127961745D01*
X166920285Y-127871127D01*
X166830944Y-127786397D01*
X166754474Y-127720355D01*
X166724810Y-127697953D01*
X166669762Y-127655219D01*
X166642598Y-127624620D01*
X166644322Y-127615525D01*
X166685181Y-127619800D01*
G36*
X166344485Y-127619969D02*
G01*
X166412447Y-127654160D01*
X166508410Y-127712269D01*
X166726653Y-127879828D01*
X166912861Y-128085901D01*
X167066123Y-128328852D01*
X167185529Y-128607049D01*
X167270170Y-128918856D01*
X167307042Y-129146300D01*
X167311248Y-129202333D01*
X167315094Y-129299355D01*
X167318585Y-129438166D01*
X167321726Y-129619570D01*
X167324523Y-129844369D01*
X167326980Y-130113365D01*
X167329103Y-130427360D01*
X167330897Y-130787157D01*
X167332367Y-131193559D01*
X167333519Y-131647367D01*
X167334358Y-132149384D01*
X167334889Y-132700413D01*
X167335118Y-133301256D01*
X167335128Y-133445250D01*
X167335200Y-137515600D01*
X166803344Y-137515600D01*
X166794283Y-133229350D01*
X166793122Y-132673789D01*
X166792051Y-132166587D01*
X166791002Y-131705299D01*
X166789909Y-131287483D01*
X166788706Y-130910698D01*
X166787327Y-130572500D01*
X166785704Y-130270448D01*
X166783773Y-130002098D01*
X166781465Y-129765009D01*
X166778715Y-129556738D01*
X166775456Y-129374842D01*
X166771622Y-129216880D01*
X166767147Y-129080408D01*
X166761963Y-128962985D01*
X166756005Y-128862167D01*
X166749207Y-128775513D01*
X166741501Y-128700581D01*
X166732821Y-128634926D01*
X166723101Y-128576108D01*
X166712275Y-128521684D01*
X166700276Y-128469211D01*
X166687037Y-128416247D01*
X166672493Y-128360350D01*
X166660627Y-128314797D01*
X166612558Y-128161925D01*
X166548714Y-128005471D01*
X166476432Y-127860943D01*
X166403052Y-127743847D01*
X166371719Y-127704338D01*
X166324717Y-127645093D01*
X166315441Y-127616959D01*
X166344485Y-127619969D01*
G37*
X166344485Y-127619969D02*
X166412447Y-127654160D01*
X166508410Y-127712269D01*
X166726653Y-127879828D01*
X166912861Y-128085901D01*
X167066123Y-128328852D01*
X167185529Y-128607049D01*
X167270170Y-128918856D01*
X167307042Y-129146300D01*
X167311248Y-129202333D01*
X167315094Y-129299355D01*
X167318585Y-129438166D01*
X167321726Y-129619570D01*
X167324523Y-129844369D01*
X167326980Y-130113365D01*
X167329103Y-130427360D01*
X167330897Y-130787157D01*
X167332367Y-131193559D01*
X167333519Y-131647367D01*
X167334358Y-132149384D01*
X167334889Y-132700413D01*
X167335118Y-133301256D01*
X167335128Y-133445250D01*
X167335200Y-137515600D01*
X166803344Y-137515600D01*
X166794283Y-133229350D01*
X166793122Y-132673789D01*
X166792051Y-132166587D01*
X166791002Y-131705299D01*
X166789909Y-131287483D01*
X166788706Y-130910698D01*
X166787327Y-130572500D01*
X166785704Y-130270448D01*
X166783773Y-130002098D01*
X166781465Y-129765009D01*
X166778715Y-129556738D01*
X166775456Y-129374842D01*
X166771622Y-129216880D01*
X166767147Y-129080408D01*
X166761963Y-128962985D01*
X166756005Y-128862167D01*
X166749207Y-128775513D01*
X166741501Y-128700581D01*
X166732821Y-128634926D01*
X166723101Y-128576108D01*
X166712275Y-128521684D01*
X166700276Y-128469211D01*
X166687037Y-128416247D01*
X166672493Y-128360350D01*
X166660627Y-128314797D01*
X166612558Y-128161925D01*
X166548714Y-128005471D01*
X166476432Y-127860943D01*
X166403052Y-127743847D01*
X166371719Y-127704338D01*
X166324717Y-127645093D01*
X166315441Y-127616959D01*
X166344485Y-127619969D01*
G36*
X170878500Y-129882900D02*
G01*
X170885720Y-133286500D01*
X170886738Y-133803091D01*
X170887457Y-134271532D01*
X170887823Y-134694472D01*
X170887782Y-135074560D01*
X170887278Y-135414445D01*
X170886257Y-135716776D01*
X170884663Y-135984204D01*
X170882443Y-136219376D01*
X170879542Y-136424942D01*
X170875905Y-136603551D01*
X170871477Y-136757852D01*
X170866203Y-136890495D01*
X170860029Y-137004128D01*
X170852900Y-137101401D01*
X170844762Y-137184963D01*
X170835559Y-137257463D01*
X170825237Y-137321551D01*
X170813741Y-137379875D01*
X170801017Y-137435084D01*
X170799956Y-137439400D01*
X170711103Y-137701927D01*
X170580319Y-137950806D01*
X170414028Y-138176779D01*
X170218655Y-138370590D01*
X170082879Y-138472444D01*
X169978612Y-138534828D01*
X169852368Y-138600285D01*
X169719664Y-138661713D01*
X169596018Y-138712010D01*
X169496947Y-138744075D01*
X169481500Y-138747664D01*
X169405300Y-138763661D01*
X169481500Y-138705359D01*
X169719767Y-138498026D01*
X169916534Y-138270749D01*
X170073960Y-138019411D01*
X170194209Y-137739893D01*
X170279442Y-137428078D01*
X170331056Y-137087458D01*
X170335340Y-137018337D01*
X170339269Y-136899238D01*
X170342838Y-136730982D01*
X170346041Y-136514388D01*
X170348871Y-136250279D01*
X170351324Y-135939475D01*
X170353393Y-135582795D01*
X170355072Y-135181062D01*
X170356355Y-134735096D01*
X170357237Y-134245717D01*
X170357712Y-133713747D01*
X170357800Y-133346420D01*
X170357800Y-129868422D01*
X170878500Y-129882900D01*
G37*
X170878500Y-129882900D02*
X170885720Y-133286500D01*
X170886738Y-133803091D01*
X170887457Y-134271532D01*
X170887823Y-134694472D01*
X170887782Y-135074560D01*
X170887278Y-135414445D01*
X170886257Y-135716776D01*
X170884663Y-135984204D01*
X170882443Y-136219376D01*
X170879542Y-136424942D01*
X170875905Y-136603551D01*
X170871477Y-136757852D01*
X170866203Y-136890495D01*
X170860029Y-137004128D01*
X170852900Y-137101401D01*
X170844762Y-137184963D01*
X170835559Y-137257463D01*
X170825237Y-137321551D01*
X170813741Y-137379875D01*
X170801017Y-137435084D01*
X170799956Y-137439400D01*
X170711103Y-137701927D01*
X170580319Y-137950806D01*
X170414028Y-138176779D01*
X170218655Y-138370590D01*
X170082879Y-138472444D01*
X169978612Y-138534828D01*
X169852368Y-138600285D01*
X169719664Y-138661713D01*
X169596018Y-138712010D01*
X169496947Y-138744075D01*
X169481500Y-138747664D01*
X169405300Y-138763661D01*
X169481500Y-138705359D01*
X169719767Y-138498026D01*
X169916534Y-138270749D01*
X170073960Y-138019411D01*
X170194209Y-137739893D01*
X170279442Y-137428078D01*
X170331056Y-137087458D01*
X170335340Y-137018337D01*
X170339269Y-136899238D01*
X170342838Y-136730982D01*
X170346041Y-136514388D01*
X170348871Y-136250279D01*
X170351324Y-135939475D01*
X170353393Y-135582795D01*
X170355072Y-135181062D01*
X170356355Y-134735096D01*
X170357237Y-134245717D01*
X170357712Y-133713747D01*
X170357800Y-133346420D01*
X170357800Y-129868422D01*
X170878500Y-129882900D01*
G36*
X169857324Y-129875674D02*
G01*
X170116500Y-129882900D01*
X170116500Y-133527800D01*
X170116471Y-134032249D01*
X170116365Y-134488495D01*
X170116151Y-134899137D01*
X170115798Y-135266772D01*
X170115275Y-135593997D01*
X170114552Y-135883410D01*
X170113597Y-136137608D01*
X170112381Y-136359189D01*
X170110871Y-136550750D01*
X170109038Y-136714890D01*
X170106850Y-136854206D01*
X170104278Y-136971294D01*
X170101289Y-137068753D01*
X170097854Y-137149181D01*
X170093941Y-137215175D01*
X170089520Y-137269332D01*
X170084559Y-137314250D01*
X170079030Y-137352526D01*
X170072899Y-137386759D01*
X170070648Y-137398059D01*
X169988325Y-137714843D01*
X169878305Y-137994288D01*
X169741730Y-138234076D01*
X169579740Y-138431887D01*
X169545534Y-138465141D01*
X169468671Y-138531550D01*
X169378710Y-138601083D01*
X169286725Y-138666154D01*
X169203789Y-138719178D01*
X169140977Y-138752569D01*
X169114810Y-138760200D01*
X169115420Y-138742109D01*
X169142115Y-138694644D01*
X169189135Y-138628013D01*
X169190019Y-138626850D01*
X169279150Y-138489437D01*
X169356332Y-138325134D01*
X169423372Y-138128399D01*
X169482075Y-137893688D01*
X169534247Y-137615459D01*
X169548039Y-137528300D01*
X169552662Y-137484059D01*
X169556939Y-137413021D01*
X169560889Y-137313392D01*
X169564530Y-137183382D01*
X169567881Y-137021195D01*
X169570960Y-136825042D01*
X169573785Y-136593127D01*
X169576376Y-136323660D01*
X169578751Y-136014847D01*
X169580928Y-135664897D01*
X169582926Y-135272015D01*
X169584763Y-134834411D01*
X169586458Y-134350290D01*
X169588029Y-133817861D01*
X169588612Y-133596774D01*
X169598149Y-129868448D01*
X169857324Y-129875674D01*
G37*
X169857324Y-129875674D02*
X170116500Y-129882900D01*
X170116500Y-133527800D01*
X170116471Y-134032249D01*
X170116365Y-134488495D01*
X170116151Y-134899137D01*
X170115798Y-135266772D01*
X170115275Y-135593997D01*
X170114552Y-135883410D01*
X170113597Y-136137608D01*
X170112381Y-136359189D01*
X170110871Y-136550750D01*
X170109038Y-136714890D01*
X170106850Y-136854206D01*
X170104278Y-136971294D01*
X170101289Y-137068753D01*
X170097854Y-137149181D01*
X170093941Y-137215175D01*
X170089520Y-137269332D01*
X170084559Y-137314250D01*
X170079030Y-137352526D01*
X170072899Y-137386759D01*
X170070648Y-137398059D01*
X169988325Y-137714843D01*
X169878305Y-137994288D01*
X169741730Y-138234076D01*
X169579740Y-138431887D01*
X169545534Y-138465141D01*
X169468671Y-138531550D01*
X169378710Y-138601083D01*
X169286725Y-138666154D01*
X169203789Y-138719178D01*
X169140977Y-138752569D01*
X169114810Y-138760200D01*
X169115420Y-138742109D01*
X169142115Y-138694644D01*
X169189135Y-138628013D01*
X169190019Y-138626850D01*
X169279150Y-138489437D01*
X169356332Y-138325134D01*
X169423372Y-138128399D01*
X169482075Y-137893688D01*
X169534247Y-137615459D01*
X169548039Y-137528300D01*
X169552662Y-137484059D01*
X169556939Y-137413021D01*
X169560889Y-137313392D01*
X169564530Y-137183382D01*
X169567881Y-137021195D01*
X169570960Y-136825042D01*
X169573785Y-136593127D01*
X169576376Y-136323660D01*
X169578751Y-136014847D01*
X169580928Y-135664897D01*
X169582926Y-135272015D01*
X169584763Y-134834411D01*
X169586458Y-134350290D01*
X169588029Y-133817861D01*
X169588612Y-133596774D01*
X169598149Y-129868448D01*
X169857324Y-129875674D01*
G36*
X166073434Y-133609474D02*
G01*
X166075269Y-134198991D01*
X166077303Y-134738332D01*
X166079541Y-135228119D01*
X166081989Y-135668976D01*
X166084654Y-136061527D01*
X166087542Y-136406394D01*
X166090659Y-136704200D01*
X166094011Y-136955570D01*
X166097605Y-137161125D01*
X166101446Y-137321489D01*
X166105540Y-137437286D01*
X166109894Y-137509138D01*
X166112094Y-137528300D01*
X166162749Y-137814373D01*
X166217914Y-138055573D01*
X166279505Y-138257760D01*
X166349435Y-138426795D01*
X166429620Y-138568536D01*
X166470980Y-138626850D01*
X166517493Y-138693467D01*
X166542758Y-138741045D01*
X166541450Y-138759504D01*
X166541060Y-138759506D01*
X166505693Y-138745734D01*
X166442081Y-138710142D01*
X166363488Y-138660197D01*
X166357300Y-138656041D01*
X166146980Y-138491525D01*
X165971486Y-138303155D01*
X165827767Y-138085930D01*
X165712775Y-137834846D01*
X165623459Y-137544901D01*
X165590351Y-137398059D01*
X165584007Y-137364616D01*
X165578274Y-137328022D01*
X165573122Y-137285679D01*
X165568519Y-137234990D01*
X165564435Y-137173357D01*
X165560839Y-137098183D01*
X165557700Y-137006870D01*
X165554988Y-136896820D01*
X165552671Y-136765436D01*
X165550720Y-136610121D01*
X165549103Y-136428276D01*
X165547789Y-136217305D01*
X165546748Y-135974609D01*
X165545948Y-135697591D01*
X165545360Y-135383654D01*
X165544952Y-135030200D01*
X165544694Y-134634631D01*
X165544554Y-134194350D01*
X165544502Y-133706759D01*
X165544500Y-133527800D01*
X165544500Y-129882900D01*
X166062858Y-129868448D01*
X166073434Y-133609474D01*
G37*
X166073434Y-133609474D02*
X166075269Y-134198991D01*
X166077303Y-134738332D01*
X166079541Y-135228119D01*
X166081989Y-135668976D01*
X166084654Y-136061527D01*
X166087542Y-136406394D01*
X166090659Y-136704200D01*
X166094011Y-136955570D01*
X166097605Y-137161125D01*
X166101446Y-137321489D01*
X166105540Y-137437286D01*
X166109894Y-137509138D01*
X166112094Y-137528300D01*
X166162749Y-137814373D01*
X166217914Y-138055573D01*
X166279505Y-138257760D01*
X166349435Y-138426795D01*
X166429620Y-138568536D01*
X166470980Y-138626850D01*
X166517493Y-138693467D01*
X166542758Y-138741045D01*
X166541450Y-138759504D01*
X166541060Y-138759506D01*
X166505693Y-138745734D01*
X166442081Y-138710142D01*
X166363488Y-138660197D01*
X166357300Y-138656041D01*
X166146980Y-138491525D01*
X165971486Y-138303155D01*
X165827767Y-138085930D01*
X165712775Y-137834846D01*
X165623459Y-137544901D01*
X165590351Y-137398059D01*
X165584007Y-137364616D01*
X165578274Y-137328022D01*
X165573122Y-137285679D01*
X165568519Y-137234990D01*
X165564435Y-137173357D01*
X165560839Y-137098183D01*
X165557700Y-137006870D01*
X165554988Y-136896820D01*
X165552671Y-136765436D01*
X165550720Y-136610121D01*
X165549103Y-136428276D01*
X165547789Y-136217305D01*
X165546748Y-135974609D01*
X165545948Y-135697591D01*
X165545360Y-135383654D01*
X165544952Y-135030200D01*
X165544694Y-134634631D01*
X165544554Y-134194350D01*
X165544502Y-133706759D01*
X165544500Y-133527800D01*
X165544500Y-129882900D01*
X166062858Y-129868448D01*
X166073434Y-133609474D01*
G36*
X165303200Y-133346420D02*
G01*
X165303253Y-133861755D01*
X165303458Y-134328962D01*
X165303881Y-134750715D01*
X165304588Y-135129684D01*
X165305645Y-135468544D01*
X165307120Y-135769966D01*
X165309078Y-136036622D01*
X165311586Y-136271185D01*
X165314710Y-136476328D01*
X165318517Y-136654723D01*
X165323074Y-136809042D01*
X165328445Y-136941958D01*
X165334699Y-137056142D01*
X165341901Y-137154269D01*
X165350118Y-137239009D01*
X165359416Y-137313036D01*
X165369862Y-137379022D01*
X165381522Y-137439639D01*
X165394463Y-137497559D01*
X165407707Y-137551356D01*
X165510604Y-137856801D01*
X165656999Y-138138855D01*
X165844046Y-138393270D01*
X166068894Y-138615795D01*
X166179500Y-138702823D01*
X166222863Y-138740205D01*
X166221528Y-138755693D01*
X166176593Y-138749382D01*
X166089156Y-138721365D01*
X165999759Y-138687512D01*
X165787523Y-138593564D01*
X165607746Y-138488940D01*
X165442104Y-138361733D01*
X165313076Y-138241315D01*
X165145915Y-138050889D01*
X165014254Y-137844339D01*
X164912388Y-137611060D01*
X164839385Y-137360798D01*
X164782500Y-137121900D01*
X164782500Y-129882900D01*
X165303200Y-129868422D01*
X165303200Y-133346420D01*
G37*
X165303200Y-133346420D02*
X165303253Y-133861755D01*
X165303458Y-134328962D01*
X165303881Y-134750715D01*
X165304588Y-135129684D01*
X165305645Y-135468544D01*
X165307120Y-135769966D01*
X165309078Y-136036622D01*
X165311586Y-136271185D01*
X165314710Y-136476328D01*
X165318517Y-136654723D01*
X165323074Y-136809042D01*
X165328445Y-136941958D01*
X165334699Y-137056142D01*
X165341901Y-137154269D01*
X165350118Y-137239009D01*
X165359416Y-137313036D01*
X165369862Y-137379022D01*
X165381522Y-137439639D01*
X165394463Y-137497559D01*
X165407707Y-137551356D01*
X165510604Y-137856801D01*
X165656999Y-138138855D01*
X165844046Y-138393270D01*
X166068894Y-138615795D01*
X166179500Y-138702823D01*
X166222863Y-138740205D01*
X166221528Y-138755693D01*
X166176593Y-138749382D01*
X166089156Y-138721365D01*
X165999759Y-138687512D01*
X165787523Y-138593564D01*
X165607746Y-138488940D01*
X165442104Y-138361733D01*
X165313076Y-138241315D01*
X165145915Y-138050889D01*
X165014254Y-137844339D01*
X164912388Y-137611060D01*
X164839385Y-137360798D01*
X164782500Y-137121900D01*
X164782500Y-129882900D01*
X165303200Y-129868422D01*
X165303200Y-133346420D01*
G36*
X171621270Y-133559550D02*
G01*
X171620301Y-134072656D01*
X171619504Y-134537560D01*
X171618754Y-134956857D01*
X171617928Y-135333145D01*
X171616901Y-135669019D01*
X171615548Y-135967077D01*
X171613745Y-136229914D01*
X171611366Y-136460126D01*
X171608289Y-136660312D01*
X171604387Y-136833066D01*
X171599537Y-136980985D01*
X171593615Y-137106666D01*
X171586494Y-137212705D01*
X171578052Y-137301698D01*
X171568163Y-137376243D01*
X171556702Y-137438935D01*
X171543547Y-137492371D01*
X171528571Y-137539147D01*
X171511650Y-137581860D01*
X171492660Y-137623106D01*
X171471476Y-137665481D01*
X171447974Y-137711583D01*
X171422030Y-137764007D01*
X171419343Y-137769600D01*
X171284437Y-137994662D01*
X171107221Y-138200209D01*
X170894219Y-138380727D01*
X170651955Y-138530701D01*
X170386950Y-138644617D01*
X170382361Y-138646185D01*
X170283543Y-138676874D01*
X170173622Y-138706411D01*
X170063204Y-138732563D01*
X169962893Y-138753095D01*
X169883292Y-138765775D01*
X169835006Y-138768369D01*
X169825441Y-138763498D01*
X169847071Y-138744870D01*
X169901804Y-138713540D01*
X169955253Y-138687045D01*
X170238511Y-138528741D01*
X170482347Y-138338453D01*
X170686524Y-138116532D01*
X170850804Y-137863324D01*
X170974950Y-137579177D01*
X171058725Y-137264440D01*
X171093931Y-137018886D01*
X171097240Y-136959094D01*
X171100384Y-136851056D01*
X171103347Y-136697326D01*
X171106111Y-136500460D01*
X171108658Y-136263009D01*
X171110972Y-135987529D01*
X171113034Y-135676574D01*
X171114827Y-135332698D01*
X171116335Y-134958454D01*
X171117539Y-134556398D01*
X171118422Y-134129082D01*
X171118966Y-133679061D01*
X171119144Y-133318250D01*
X171119800Y-129870200D01*
X171628793Y-129870200D01*
X171621270Y-133559550D01*
G37*
X171621270Y-133559550D02*
X171620301Y-134072656D01*
X171619504Y-134537560D01*
X171618754Y-134956857D01*
X171617928Y-135333145D01*
X171616901Y-135669019D01*
X171615548Y-135967077D01*
X171613745Y-136229914D01*
X171611366Y-136460126D01*
X171608289Y-136660312D01*
X171604387Y-136833066D01*
X171599537Y-136980985D01*
X171593615Y-137106666D01*
X171586494Y-137212705D01*
X171578052Y-137301698D01*
X171568163Y-137376243D01*
X171556702Y-137438935D01*
X171543547Y-137492371D01*
X171528571Y-137539147D01*
X171511650Y-137581860D01*
X171492660Y-137623106D01*
X171471476Y-137665481D01*
X171447974Y-137711583D01*
X171422030Y-137764007D01*
X171419343Y-137769600D01*
X171284437Y-137994662D01*
X171107221Y-138200209D01*
X170894219Y-138380727D01*
X170651955Y-138530701D01*
X170386950Y-138644617D01*
X170382361Y-138646185D01*
X170283543Y-138676874D01*
X170173622Y-138706411D01*
X170063204Y-138732563D01*
X169962893Y-138753095D01*
X169883292Y-138765775D01*
X169835006Y-138768369D01*
X169825441Y-138763498D01*
X169847071Y-138744870D01*
X169901804Y-138713540D01*
X169955253Y-138687045D01*
X170238511Y-138528741D01*
X170482347Y-138338453D01*
X170686524Y-138116532D01*
X170850804Y-137863324D01*
X170974950Y-137579177D01*
X171058725Y-137264440D01*
X171093931Y-137018886D01*
X171097240Y-136959094D01*
X171100384Y-136851056D01*
X171103347Y-136697326D01*
X171106111Y-136500460D01*
X171108658Y-136263009D01*
X171110972Y-135987529D01*
X171113034Y-135676574D01*
X171114827Y-135332698D01*
X171116335Y-134958454D01*
X171117539Y-134556398D01*
X171118422Y-134129082D01*
X171118966Y-133679061D01*
X171119144Y-133318250D01*
X171119800Y-129870200D01*
X171628793Y-129870200D01*
X171621270Y-133559550D01*
G36*
X164541855Y-133317361D02*
G01*
X164542127Y-133783220D01*
X164542750Y-134228339D01*
X164543708Y-134650163D01*
X164544983Y-135046140D01*
X164546557Y-135413716D01*
X164548413Y-135750338D01*
X164550534Y-136053452D01*
X164552902Y-136320505D01*
X164555500Y-136548944D01*
X164558310Y-136736216D01*
X164561316Y-136879766D01*
X164564499Y-136977042D01*
X164567068Y-137018886D01*
X164618842Y-137349893D01*
X164707302Y-137646846D01*
X164833923Y-137912308D01*
X165000176Y-138148839D01*
X165207536Y-138359001D01*
X165437601Y-138532398D01*
X165541583Y-138598583D01*
X165639043Y-138656535D01*
X165716818Y-138698635D01*
X165752056Y-138714433D01*
X165808091Y-138739826D01*
X165835925Y-138762497D01*
X165836600Y-138765302D01*
X165830744Y-138783890D01*
X165830250Y-138783812D01*
X165804310Y-138778001D01*
X165740436Y-138764004D01*
X165650345Y-138744383D01*
X165608000Y-138735189D01*
X165297301Y-138651314D01*
X165026337Y-138541790D01*
X164789247Y-138403360D01*
X164580167Y-138232768D01*
X164444128Y-138088722D01*
X164355885Y-137967258D01*
X164266859Y-137813576D01*
X164185932Y-137645333D01*
X164121983Y-137480183D01*
X164098365Y-137401300D01*
X164085565Y-137348668D01*
X164073994Y-137291657D01*
X164063599Y-137227653D01*
X164054326Y-137154044D01*
X164046121Y-137068218D01*
X164038931Y-136967561D01*
X164032701Y-136849462D01*
X164027379Y-136711309D01*
X164022911Y-136550488D01*
X164019243Y-136364387D01*
X164016322Y-136150393D01*
X164014093Y-135905895D01*
X164012503Y-135628280D01*
X164011499Y-135314934D01*
X164011027Y-134963247D01*
X164011033Y-134570605D01*
X164011464Y-134134395D01*
X164012266Y-133652006D01*
X164013100Y-133248400D01*
X164020500Y-129882900D01*
X164541200Y-129868422D01*
X164541855Y-133317361D01*
G37*
X164541855Y-133317361D02*
X164542127Y-133783220D01*
X164542750Y-134228339D01*
X164543708Y-134650163D01*
X164544983Y-135046140D01*
X164546557Y-135413716D01*
X164548413Y-135750338D01*
X164550534Y-136053452D01*
X164552902Y-136320505D01*
X164555500Y-136548944D01*
X164558310Y-136736216D01*
X164561316Y-136879766D01*
X164564499Y-136977042D01*
X164567068Y-137018886D01*
X164618842Y-137349893D01*
X164707302Y-137646846D01*
X164833923Y-137912308D01*
X165000176Y-138148839D01*
X165207536Y-138359001D01*
X165437601Y-138532398D01*
X165541583Y-138598583D01*
X165639043Y-138656535D01*
X165716818Y-138698635D01*
X165752056Y-138714433D01*
X165808091Y-138739826D01*
X165835925Y-138762497D01*
X165836600Y-138765302D01*
X165830744Y-138783890D01*
X165830250Y-138783812D01*
X165804310Y-138778001D01*
X165740436Y-138764004D01*
X165650345Y-138744383D01*
X165608000Y-138735189D01*
X165297301Y-138651314D01*
X165026337Y-138541790D01*
X164789247Y-138403360D01*
X164580167Y-138232768D01*
X164444128Y-138088722D01*
X164355885Y-137967258D01*
X164266859Y-137813576D01*
X164185932Y-137645333D01*
X164121983Y-137480183D01*
X164098365Y-137401300D01*
X164085565Y-137348668D01*
X164073994Y-137291657D01*
X164063599Y-137227653D01*
X164054326Y-137154044D01*
X164046121Y-137068218D01*
X164038931Y-136967561D01*
X164032701Y-136849462D01*
X164027379Y-136711309D01*
X164022911Y-136550488D01*
X164019243Y-136364387D01*
X164016322Y-136150393D01*
X164014093Y-135905895D01*
X164012503Y-135628280D01*
X164011499Y-135314934D01*
X164011027Y-134963247D01*
X164011033Y-134570605D01*
X164011464Y-134134395D01*
X164012266Y-133652006D01*
X164013100Y-133248400D01*
X164020500Y-129882900D01*
X164541200Y-129868422D01*
X164541855Y-133317361D01*
G36*
X170007732Y-140287392D02*
G01*
X170125531Y-140301037D01*
X170210953Y-140331237D01*
X170269134Y-140384091D01*
X170305208Y-140465702D01*
X170324313Y-140582170D01*
X170331582Y-140739597D01*
X170332400Y-140854438D01*
X170332400Y-141198600D01*
X170992800Y-141198600D01*
X170992800Y-140284200D01*
X171627800Y-140284200D01*
X171627800Y-142570200D01*
X170992800Y-142570200D01*
X170992800Y-141630400D01*
X170332400Y-141630400D01*
X170332400Y-142570200D01*
X169698983Y-142570200D01*
X169691841Y-141492723D01*
X169684700Y-140415247D01*
X169623122Y-140349723D01*
X169561544Y-140284200D01*
X169852420Y-140284200D01*
X170007732Y-140287392D01*
G37*
X170007732Y-140287392D02*
X170125531Y-140301037D01*
X170210953Y-140331237D01*
X170269134Y-140384091D01*
X170305208Y-140465702D01*
X170324313Y-140582170D01*
X170331582Y-140739597D01*
X170332400Y-140854438D01*
X170332400Y-141198600D01*
X170992800Y-141198600D01*
X170992800Y-140284200D01*
X171627800Y-140284200D01*
X171627800Y-142570200D01*
X170992800Y-142570200D01*
X170992800Y-141630400D01*
X170332400Y-141630400D01*
X170332400Y-142570200D01*
X169698983Y-142570200D01*
X169691841Y-141492723D01*
X169684700Y-140415247D01*
X169623122Y-140349723D01*
X169561544Y-140284200D01*
X169852420Y-140284200D01*
X170007732Y-140287392D01*
G36*
X164812406Y-140284294D02*
G01*
X164983257Y-140286987D01*
X165111667Y-140296684D01*
X165205802Y-140315971D01*
X165273829Y-140347432D01*
X165323914Y-140393653D01*
X165364223Y-140457220D01*
X165365325Y-140459341D01*
X165380276Y-140495412D01*
X165409535Y-140572236D01*
X165450950Y-140683795D01*
X165502364Y-140824070D01*
X165561625Y-140987042D01*
X165626578Y-141166692D01*
X165695068Y-141357001D01*
X165764941Y-141551951D01*
X165834044Y-141745522D01*
X165900222Y-141931696D01*
X165961320Y-142104455D01*
X166015185Y-142257779D01*
X166059662Y-142385649D01*
X166092597Y-142482047D01*
X166111835Y-142540955D01*
X166116000Y-142556677D01*
X166092172Y-142561714D01*
X166026927Y-142564950D01*
X165929623Y-142566165D01*
X165809620Y-142565136D01*
X165781116Y-142564587D01*
X165446232Y-142557500D01*
X165266830Y-142011400D01*
X164526769Y-142011400D01*
X164347427Y-142557500D01*
X164126813Y-142564838D01*
X164023519Y-142565703D01*
X163947607Y-142561235D01*
X163909037Y-142552186D01*
X163906200Y-142548218D01*
X163914128Y-142519688D01*
X163936757Y-142448320D01*
X163972349Y-142339345D01*
X164019171Y-142197992D01*
X164075485Y-142029492D01*
X164139557Y-141839074D01*
X164209650Y-141631968D01*
X164210182Y-141630400D01*
X164646350Y-141630400D01*
X164885875Y-141630400D01*
X164989144Y-141628560D01*
X165070055Y-141623619D01*
X165117537Y-141616440D01*
X165125400Y-141611693D01*
X165117383Y-141573916D01*
X165095800Y-141504153D01*
X165064352Y-141412233D01*
X165026738Y-141307985D01*
X164986658Y-141201238D01*
X164947814Y-141101822D01*
X164913905Y-141019564D01*
X164888631Y-140964295D01*
X164875694Y-140945843D01*
X164875076Y-140946762D01*
X164862939Y-140983248D01*
X164838053Y-141057761D01*
X164803808Y-141160158D01*
X164763596Y-141280299D01*
X164754805Y-141306550D01*
X164646350Y-141630400D01*
X164210182Y-141630400D01*
X164236400Y-141553228D01*
X164308678Y-141338682D01*
X164375493Y-141136508D01*
X164435076Y-140952344D01*
X164485661Y-140791824D01*
X164525480Y-140660586D01*
X164552767Y-140564266D01*
X164565753Y-140508500D01*
X164566600Y-140500124D01*
X164550428Y-140420519D01*
X164513956Y-140351125D01*
X164461312Y-140284200D01*
X164812406Y-140284294D01*
G37*
X164812406Y-140284294D02*
X164983257Y-140286987D01*
X165111667Y-140296684D01*
X165205802Y-140315971D01*
X165273829Y-140347432D01*
X165323914Y-140393653D01*
X165364223Y-140457220D01*
X165365325Y-140459341D01*
X165380276Y-140495412D01*
X165409535Y-140572236D01*
X165450950Y-140683795D01*
X165502364Y-140824070D01*
X165561625Y-140987042D01*
X165626578Y-141166692D01*
X165695068Y-141357001D01*
X165764941Y-141551951D01*
X165834044Y-141745522D01*
X165900222Y-141931696D01*
X165961320Y-142104455D01*
X166015185Y-142257779D01*
X166059662Y-142385649D01*
X166092597Y-142482047D01*
X166111835Y-142540955D01*
X166116000Y-142556677D01*
X166092172Y-142561714D01*
X166026927Y-142564950D01*
X165929623Y-142566165D01*
X165809620Y-142565136D01*
X165781116Y-142564587D01*
X165446232Y-142557500D01*
X165266830Y-142011400D01*
X164526769Y-142011400D01*
X164347427Y-142557500D01*
X164126813Y-142564838D01*
X164023519Y-142565703D01*
X163947607Y-142561235D01*
X163909037Y-142552186D01*
X163906200Y-142548218D01*
X163914128Y-142519688D01*
X163936757Y-142448320D01*
X163972349Y-142339345D01*
X164019171Y-142197992D01*
X164075485Y-142029492D01*
X164139557Y-141839074D01*
X164209650Y-141631968D01*
X164210182Y-141630400D01*
X164646350Y-141630400D01*
X164885875Y-141630400D01*
X164989144Y-141628560D01*
X165070055Y-141623619D01*
X165117537Y-141616440D01*
X165125400Y-141611693D01*
X165117383Y-141573916D01*
X165095800Y-141504153D01*
X165064352Y-141412233D01*
X165026738Y-141307985D01*
X164986658Y-141201238D01*
X164947814Y-141101822D01*
X164913905Y-141019564D01*
X164888631Y-140964295D01*
X164875694Y-140945843D01*
X164875076Y-140946762D01*
X164862939Y-140983248D01*
X164838053Y-141057761D01*
X164803808Y-141160158D01*
X164763596Y-141280299D01*
X164754805Y-141306550D01*
X164646350Y-141630400D01*
X164210182Y-141630400D01*
X164236400Y-141553228D01*
X164308678Y-141338682D01*
X164375493Y-141136508D01*
X164435076Y-140952344D01*
X164485661Y-140791824D01*
X164525480Y-140660586D01*
X164552767Y-140564266D01*
X164565753Y-140508500D01*
X164566600Y-140500124D01*
X164550428Y-140420519D01*
X164513956Y-140351125D01*
X164461312Y-140284200D01*
X164812406Y-140284294D01*
G36*
X168192507Y-140230390D02*
G01*
X168455470Y-140277832D01*
X168471850Y-140282201D01*
X168579800Y-140311558D01*
X168579800Y-140551879D01*
X168576404Y-140681375D01*
X168566032Y-140761460D01*
X168548406Y-140793082D01*
X168523247Y-140777184D01*
X168516509Y-140767139D01*
X168486086Y-140747975D01*
X168420264Y-140720737D01*
X168332590Y-140690955D01*
X168321897Y-140687671D01*
X168116443Y-140647000D01*
X167925279Y-140652401D01*
X167752269Y-140702447D01*
X167601274Y-140795710D01*
X167476160Y-140930762D01*
X167420593Y-141020800D01*
X167399781Y-141068948D01*
X167385910Y-141127724D01*
X167377723Y-141207914D01*
X167373966Y-141320301D01*
X167373300Y-141427200D01*
X167374411Y-141566558D01*
X167378832Y-141667530D01*
X167388190Y-141742503D01*
X167404115Y-141803861D01*
X167428235Y-141863993D01*
X167431751Y-141871700D01*
X167526228Y-142032366D01*
X167640964Y-142146772D01*
X167777052Y-142215704D01*
X167935583Y-142239946D01*
X167943984Y-142240000D01*
X168071800Y-142240000D01*
X168071705Y-141814550D01*
X168071107Y-141654748D01*
X168068817Y-141537049D01*
X168063967Y-141452759D01*
X168055688Y-141393187D01*
X168043113Y-141349642D01*
X168025373Y-141313431D01*
X168020905Y-141305936D01*
X167988265Y-141249547D01*
X167971011Y-141214171D01*
X167970200Y-141210686D01*
X167993438Y-141201386D01*
X168055043Y-141196792D01*
X168142851Y-141196395D01*
X168244697Y-141199685D01*
X168348417Y-141206152D01*
X168441845Y-141215287D01*
X168512819Y-141226579D01*
X168540540Y-141234578D01*
X168591664Y-141257913D01*
X168631133Y-141284201D01*
X168660356Y-141319840D01*
X168680740Y-141371232D01*
X168693695Y-141444775D01*
X168700631Y-141546871D01*
X168702954Y-141683918D01*
X168702076Y-141862317D01*
X168700945Y-141963248D01*
X168694100Y-142532100D01*
X168567100Y-142566822D01*
X168465361Y-142586195D01*
X168329284Y-142600403D01*
X168172430Y-142609234D01*
X168008354Y-142612481D01*
X167850617Y-142609932D01*
X167712776Y-142601378D01*
X167608390Y-142586610D01*
X167589200Y-142581947D01*
X167350458Y-142493462D01*
X167143755Y-142369695D01*
X166972314Y-142213697D01*
X166839357Y-142028518D01*
X166748108Y-141817209D01*
X166735631Y-141773905D01*
X166713425Y-141647753D01*
X166702984Y-141494348D01*
X166704611Y-141335928D01*
X166718609Y-141194731D01*
X166727137Y-141150639D01*
X166802181Y-140932170D01*
X166917991Y-140738341D01*
X167069629Y-140571610D01*
X167252160Y-140434431D01*
X167460650Y-140329264D01*
X167690161Y-140258563D01*
X167935759Y-140224786D01*
X168192507Y-140230390D01*
G37*
X168192507Y-140230390D02*
X168455470Y-140277832D01*
X168471850Y-140282201D01*
X168579800Y-140311558D01*
X168579800Y-140551879D01*
X168576404Y-140681375D01*
X168566032Y-140761460D01*
X168548406Y-140793082D01*
X168523247Y-140777184D01*
X168516509Y-140767139D01*
X168486086Y-140747975D01*
X168420264Y-140720737D01*
X168332590Y-140690955D01*
X168321897Y-140687671D01*
X168116443Y-140647000D01*
X167925279Y-140652401D01*
X167752269Y-140702447D01*
X167601274Y-140795710D01*
X167476160Y-140930762D01*
X167420593Y-141020800D01*
X167399781Y-141068948D01*
X167385910Y-141127724D01*
X167377723Y-141207914D01*
X167373966Y-141320301D01*
X167373300Y-141427200D01*
X167374411Y-141566558D01*
X167378832Y-141667530D01*
X167388190Y-141742503D01*
X167404115Y-141803861D01*
X167428235Y-141863993D01*
X167431751Y-141871700D01*
X167526228Y-142032366D01*
X167640964Y-142146772D01*
X167777052Y-142215704D01*
X167935583Y-142239946D01*
X167943984Y-142240000D01*
X168071800Y-142240000D01*
X168071705Y-141814550D01*
X168071107Y-141654748D01*
X168068817Y-141537049D01*
X168063967Y-141452759D01*
X168055688Y-141393187D01*
X168043113Y-141349642D01*
X168025373Y-141313431D01*
X168020905Y-141305936D01*
X167988265Y-141249547D01*
X167971011Y-141214171D01*
X167970200Y-141210686D01*
X167993438Y-141201386D01*
X168055043Y-141196792D01*
X168142851Y-141196395D01*
X168244697Y-141199685D01*
X168348417Y-141206152D01*
X168441845Y-141215287D01*
X168512819Y-141226579D01*
X168540540Y-141234578D01*
X168591664Y-141257913D01*
X168631133Y-141284201D01*
X168660356Y-141319840D01*
X168680740Y-141371232D01*
X168693695Y-141444775D01*
X168700631Y-141546871D01*
X168702954Y-141683918D01*
X168702076Y-141862317D01*
X168700945Y-141963248D01*
X168694100Y-142532100D01*
X168567100Y-142566822D01*
X168465361Y-142586195D01*
X168329284Y-142600403D01*
X168172430Y-142609234D01*
X168008354Y-142612481D01*
X167850617Y-142609932D01*
X167712776Y-142601378D01*
X167608390Y-142586610D01*
X167589200Y-142581947D01*
X167350458Y-142493462D01*
X167143755Y-142369695D01*
X166972314Y-142213697D01*
X166839357Y-142028518D01*
X166748108Y-141817209D01*
X166735631Y-141773905D01*
X166713425Y-141647753D01*
X166702984Y-141494348D01*
X166704611Y-141335928D01*
X166718609Y-141194731D01*
X166727137Y-141150639D01*
X166802181Y-140932170D01*
X166917991Y-140738341D01*
X167069629Y-140571610D01*
X167252160Y-140434431D01*
X167460650Y-140329264D01*
X167690161Y-140258563D01*
X167935759Y-140224786D01*
X168192507Y-140230390D01*
D12*
%TO.C,SW5*%
X127930000Y-134190000D02*
X123530000Y-134190000D01*
X123530000Y-134190000D02*
X123530000Y-134310000D01*
X123530000Y-135320000D02*
X123530000Y-136460000D01*
X123530000Y-137470000D02*
X123530000Y-137590000D01*
X123530000Y-137590000D02*
X127930000Y-137590000D01*
X127930000Y-137590000D02*
X127930000Y-137470000D01*
X127930000Y-136460000D02*
X127930000Y-135320000D01*
X127930000Y-134310000D02*
X127930000Y-134190000D01*
%TO.C,SW6*%
X127930000Y-139270000D02*
X123530000Y-139270000D01*
X123530000Y-139270000D02*
X123530000Y-139390000D01*
X123530000Y-140400000D02*
X123530000Y-141540000D01*
X123530000Y-142550000D02*
X123530000Y-142670000D01*
X123530000Y-142670000D02*
X127930000Y-142670000D01*
X127930000Y-142670000D02*
X127930000Y-142550000D01*
X127930000Y-141540000D02*
X127930000Y-140400000D01*
X127930000Y-139390000D02*
X127930000Y-139270000D01*
%TO.C,SW4*%
X127930000Y-129110000D02*
X123530000Y-129110000D01*
X123530000Y-129110000D02*
X123530000Y-129230000D01*
X123530000Y-130240000D02*
X123530000Y-131380000D01*
X123530000Y-132390000D02*
X123530000Y-132510000D01*
X123530000Y-132510000D02*
X127930000Y-132510000D01*
X127930000Y-132510000D02*
X127930000Y-132390000D01*
X127930000Y-131380000D02*
X127930000Y-130240000D01*
X127930000Y-129230000D02*
X127930000Y-129110000D01*
%TO.C,SW3*%
X119040000Y-139270000D02*
X114640000Y-139270000D01*
X114640000Y-139270000D02*
X114640000Y-139390000D01*
X114640000Y-140400000D02*
X114640000Y-141540000D01*
X114640000Y-142550000D02*
X114640000Y-142670000D01*
X114640000Y-142670000D02*
X119040000Y-142670000D01*
X119040000Y-142670000D02*
X119040000Y-142550000D01*
X119040000Y-141540000D02*
X119040000Y-140400000D01*
X119040000Y-139390000D02*
X119040000Y-139270000D01*
%TO.C,SW2*%
X119040000Y-134190000D02*
X114640000Y-134190000D01*
X114640000Y-134190000D02*
X114640000Y-134310000D01*
X114640000Y-135320000D02*
X114640000Y-136460000D01*
X114640000Y-137470000D02*
X114640000Y-137590000D01*
X114640000Y-137590000D02*
X119040000Y-137590000D01*
X119040000Y-137590000D02*
X119040000Y-137470000D01*
X119040000Y-136460000D02*
X119040000Y-135320000D01*
X119040000Y-134310000D02*
X119040000Y-134190000D01*
%TO.C,SW1*%
X119040000Y-129110000D02*
X114640000Y-129110000D01*
X114640000Y-129110000D02*
X114640000Y-129230000D01*
X114640000Y-130240000D02*
X114640000Y-131380000D01*
X114640000Y-132390000D02*
X114640000Y-132510000D01*
X114640000Y-132510000D02*
X119040000Y-132510000D01*
X119040000Y-132510000D02*
X119040000Y-132390000D01*
X119040000Y-131380000D02*
X119040000Y-130240000D01*
X119040000Y-129230000D02*
X119040000Y-129110000D01*
%TO.C,TP5*%
X173132600Y-84975700D02*
G75*
G03*
X173132600Y-84975700I-1200000J0D01*
G01*
%TO.C,TP4*%
X173132600Y-91198700D02*
G75*
G03*
X173132600Y-91198700I-1200000J0D01*
G01*
%TO.C,TP3*%
X167595400Y-63881000D02*
G75*
G03*
X167595400Y-63881000I-1200000J0D01*
G01*
%TO.C,TP2*%
X114230000Y-67818000D02*
G75*
G03*
X114230000Y-67818000I-1200000J0D01*
G01*
%TO.C,J3*%
X203079200Y-126940000D02*
X194449200Y-126940000D01*
X203079200Y-126821905D02*
X194449200Y-126821905D01*
X203079200Y-126703810D02*
X194449200Y-126703810D01*
X203079200Y-126585715D02*
X194449200Y-126585715D01*
X203079200Y-126467620D02*
X194449200Y-126467620D01*
X203079200Y-126349525D02*
X194449200Y-126349525D01*
X203079200Y-126231430D02*
X194449200Y-126231430D01*
X203079200Y-126113335D02*
X194449200Y-126113335D01*
X203079200Y-125995240D02*
X194449200Y-125995240D01*
X203079200Y-125877145D02*
X194449200Y-125877145D01*
X203079200Y-125759050D02*
X194449200Y-125759050D01*
X203079200Y-125640955D02*
X194449200Y-125640955D01*
X203079200Y-125522860D02*
X194449200Y-125522860D01*
X203079200Y-125404765D02*
X194449200Y-125404765D01*
X203079200Y-125286670D02*
X194449200Y-125286670D01*
X203079200Y-125168575D02*
X194449200Y-125168575D01*
X203079200Y-125050480D02*
X194449200Y-125050480D01*
X203079200Y-124932385D02*
X194449200Y-124932385D01*
X203079200Y-124814290D02*
X194449200Y-124814290D01*
X203079200Y-124696195D02*
X194449200Y-124696195D01*
X203079200Y-124578100D02*
X194449200Y-124578100D01*
X194449200Y-126090000D02*
X194099200Y-126090000D01*
X194449200Y-125370000D02*
X194099200Y-125370000D01*
X194449200Y-123550000D02*
X194039200Y-123550000D01*
X194449200Y-122830000D02*
X194039200Y-122830000D01*
X194449200Y-121010000D02*
X194039200Y-121010000D01*
X194449200Y-120290000D02*
X194039200Y-120290000D01*
X194449200Y-118470000D02*
X194039200Y-118470000D01*
X194449200Y-117750000D02*
X194039200Y-117750000D01*
X194449200Y-115930000D02*
X194039200Y-115930000D01*
X194449200Y-115210000D02*
X194039200Y-115210000D01*
X194449200Y-113390000D02*
X194039200Y-113390000D01*
X194449200Y-112670000D02*
X194039200Y-112670000D01*
X203079200Y-124460000D02*
X194449200Y-124460000D01*
X203079200Y-121920000D02*
X194449200Y-121920000D01*
X203079200Y-119380000D02*
X194449200Y-119380000D01*
X203079200Y-116840000D02*
X194449200Y-116840000D01*
X203079200Y-114300000D02*
X194449200Y-114300000D01*
X203079200Y-127060000D02*
X194449200Y-127060000D01*
X194449200Y-127060000D02*
X194449200Y-111700000D01*
X203079200Y-111700000D02*
X194449200Y-111700000D01*
X203079200Y-127060000D02*
X203079200Y-111700000D01*
X191879200Y-127060000D02*
X191879200Y-125730000D01*
X192989200Y-127060000D02*
X191879200Y-127060000D01*
%TO.C,C6*%
X131700600Y-97251152D02*
X131700600Y-96728648D01*
X133170600Y-97251152D02*
X133170600Y-96728648D01*
%TO.C,U3*%
X159905700Y-62464000D02*
X157955700Y-62464000D01*
X159905700Y-62464000D02*
X161855700Y-62464000D01*
X159905700Y-67584000D02*
X157955700Y-67584000D01*
X159905700Y-67584000D02*
X163355700Y-67584000D01*
%TO.C,R17*%
X111786936Y-76227000D02*
X112241064Y-76227000D01*
X111786936Y-77697000D02*
X112241064Y-77697000D01*
%TO.C,R16*%
X107669064Y-77697000D02*
X107214936Y-77697000D01*
X107669064Y-76227000D02*
X107214936Y-76227000D01*
%TO.C,LCD1*%
X177740000Y-111760000D02*
X180400000Y-111760000D01*
X177740000Y-111760000D02*
X177740000Y-129600000D01*
X177740000Y-129600000D02*
X180400000Y-129600000D01*
X180400000Y-111760000D02*
X180400000Y-129600000D01*
X180400000Y-109160000D02*
X180400000Y-110490000D01*
X179070000Y-109160000D02*
X180400000Y-109160000D01*
%TO.C,J4*%
X189188400Y-140030200D02*
X186528400Y-140030200D01*
X189188400Y-140030200D02*
X189188400Y-134890200D01*
X189188400Y-134890200D02*
X186528400Y-134890200D01*
X186528400Y-140030200D02*
X186528400Y-134890200D01*
X186528400Y-142630200D02*
X186528400Y-141300200D01*
X187858400Y-142630200D02*
X186528400Y-142630200D01*
%TO.C,J1*%
X104565000Y-109990000D02*
X104985000Y-109990000D01*
X104565000Y-83150000D02*
X104565000Y-109990000D01*
X104985000Y-83150000D02*
X104565000Y-83150000D01*
X126485000Y-83150000D02*
X108585000Y-83150000D01*
X121885000Y-109990000D02*
X108585000Y-109990000D01*
X124185000Y-107690000D02*
X121885000Y-109990000D01*
X126485000Y-107690000D02*
X124185000Y-107690000D01*
X129805000Y-89320000D02*
X129805000Y-90020000D01*
X129805000Y-91720000D02*
X129805000Y-92520000D01*
X129805000Y-94220000D02*
X129805000Y-95020000D01*
X129805000Y-106720000D02*
X129805000Y-106920000D01*
X129805000Y-96720000D02*
X129805000Y-97520000D01*
X129805000Y-99320000D02*
X129805000Y-100020000D01*
X129805000Y-101720000D02*
X129805000Y-102520000D01*
X129805000Y-104220000D02*
X129805000Y-105020000D01*
%TO.C,D3*%
X115222000Y-61766000D02*
X122522000Y-61766000D01*
X115222000Y-67266000D02*
X122522000Y-67266000D01*
X122522000Y-67266000D02*
X122522000Y-66116000D01*
%TO.C,D2*%
X127414000Y-61766000D02*
X134714000Y-61766000D01*
X127414000Y-67266000D02*
X134714000Y-67266000D01*
X134714000Y-67266000D02*
X134714000Y-66116000D01*
%TO.C,D1*%
X139606000Y-61766000D02*
X146906000Y-61766000D01*
X139606000Y-67266000D02*
X146906000Y-67266000D01*
X146906000Y-67266000D02*
X146906000Y-66116000D01*
%TO.C,BZ1*%
X194050000Y-67310000D02*
G75*
G03*
X194050000Y-67310000I-6100000J0D01*
G01*
%TO.C,BT1*%
X142200000Y-107870000D02*
X142200000Y-111070000D01*
X142200000Y-111070000D02*
X143750000Y-111070000D01*
X137700000Y-107870000D02*
X142200000Y-107870000D01*
X137700000Y-107870000D02*
X137700000Y-86970000D01*
X139500000Y-85170000D02*
X142200000Y-85170000D01*
X137700000Y-86970000D02*
X139500000Y-85170000D01*
X142200000Y-85170000D02*
X142200000Y-81970000D01*
X142200000Y-81970000D02*
X143750000Y-81970000D01*
X149900000Y-85170000D02*
X149900000Y-81970000D01*
X149900000Y-81970000D02*
X148350000Y-81970000D01*
X149900000Y-107870000D02*
X149900000Y-111070000D01*
X149900000Y-111070000D02*
X148350000Y-111070000D01*
X154400000Y-85170000D02*
X154400000Y-107870000D01*
X154400000Y-85170000D02*
X149900000Y-85170000D01*
X154400000Y-107870000D02*
X149900000Y-107870000D01*
X141050000Y-83520000D02*
X139050000Y-83520000D01*
X140050000Y-84520000D02*
X140050000Y-82520000D01*
%TO.C,CON1*%
D11*
X192312857Y-92646000D02*
X191512857Y-92646000D01*
X191627142Y-92646000D02*
X191570000Y-92588857D01*
X191512857Y-92474571D01*
X191512857Y-92303142D01*
X191570000Y-92188857D01*
X191684285Y-92131714D01*
X192312857Y-92131714D01*
X191684285Y-92131714D02*
X191570000Y-92074571D01*
X191512857Y-91960285D01*
X191512857Y-91788857D01*
X191570000Y-91674571D01*
X191684285Y-91617428D01*
X192312857Y-91617428D01*
X192312857Y-91046000D02*
X191512857Y-91046000D01*
X191112857Y-91046000D02*
X191170000Y-91103142D01*
X191227142Y-91046000D01*
X191170000Y-90988857D01*
X191112857Y-91046000D01*
X191227142Y-91046000D01*
X192312857Y-90474571D02*
X191112857Y-90474571D01*
X191855714Y-90360285D02*
X192312857Y-90017428D01*
X191512857Y-90017428D02*
X191970000Y-90474571D01*
X192312857Y-89503142D02*
X191512857Y-89503142D01*
X191741428Y-89503142D02*
X191627142Y-89446000D01*
X191570000Y-89388857D01*
X191512857Y-89274571D01*
X191512857Y-89160285D01*
X192312857Y-88588857D02*
X192255714Y-88703142D01*
X192198571Y-88760285D01*
X192084285Y-88817428D01*
X191741428Y-88817428D01*
X191627142Y-88760285D01*
X191570000Y-88703142D01*
X191512857Y-88588857D01*
X191512857Y-88417428D01*
X191570000Y-88303142D01*
X191627142Y-88246000D01*
X191741428Y-88188857D01*
X192084285Y-88188857D01*
X192198571Y-88246000D01*
X192255714Y-88303142D01*
X192312857Y-88417428D01*
X192312857Y-88588857D01*
X190646000Y-87960285D02*
X190646000Y-86760285D01*
X191684285Y-87274571D02*
X191741428Y-87103142D01*
X191798571Y-87046000D01*
X191912857Y-86988857D01*
X192084285Y-86988857D01*
X192198571Y-87046000D01*
X192255714Y-87103142D01*
X192312857Y-87217428D01*
X192312857Y-87674571D01*
X191112857Y-87674571D01*
X191112857Y-87274571D01*
X191170000Y-87160285D01*
X191227142Y-87103142D01*
X191341428Y-87046000D01*
X191455714Y-87046000D01*
X191570000Y-87103142D01*
X191627142Y-87160285D01*
X191684285Y-87274571D01*
X191684285Y-87674571D01*
X190646000Y-86760285D02*
X190646000Y-85503142D01*
X191112857Y-86474571D02*
X192084285Y-86474571D01*
X192198571Y-86417428D01*
X192255714Y-86360285D01*
X192312857Y-86246000D01*
X192312857Y-86017428D01*
X192255714Y-85903142D01*
X192198571Y-85846000D01*
X192084285Y-85788857D01*
X191112857Y-85788857D01*
X190646000Y-85503142D02*
X190646000Y-84360285D01*
X192255714Y-85274571D02*
X192312857Y-85103142D01*
X192312857Y-84817428D01*
X192255714Y-84703142D01*
X192198571Y-84646000D01*
X192084285Y-84588857D01*
X191970000Y-84588857D01*
X191855714Y-84646000D01*
X191798571Y-84703142D01*
X191741428Y-84817428D01*
X191684285Y-85046000D01*
X191627142Y-85160285D01*
X191570000Y-85217428D01*
X191455714Y-85274571D01*
X191341428Y-85274571D01*
X191227142Y-85217428D01*
X191170000Y-85160285D01*
X191112857Y-85046000D01*
X191112857Y-84760285D01*
X191170000Y-84588857D01*
D10*
X196940380Y-98372295D02*
X195940380Y-98372295D01*
X195940380Y-97991343D01*
X195988000Y-97896105D01*
X196035619Y-97848486D01*
X196130857Y-97800867D01*
X196273714Y-97800867D01*
X196368952Y-97848486D01*
X196416571Y-97896105D01*
X196464190Y-97991343D01*
X196464190Y-98372295D01*
X195940380Y-97467534D02*
X196940380Y-97229438D01*
X196226095Y-97038962D01*
X196940380Y-96848486D01*
X195940380Y-96610391D01*
X196940380Y-96229438D02*
X195940380Y-96229438D01*
X196654666Y-95896105D01*
X195940380Y-95562772D01*
X196940380Y-95562772D01*
X194527380Y-98372295D02*
X193527380Y-98372295D01*
X194527380Y-97896105D02*
X193527380Y-97896105D01*
X194527380Y-97324676D01*
X193527380Y-97324676D01*
X193527380Y-96991343D02*
X193527380Y-96419914D01*
X194527380Y-96705629D02*
X193527380Y-96705629D01*
X191987380Y-97800866D02*
X191511190Y-98134200D01*
X191987380Y-98372295D02*
X190987380Y-98372295D01*
X190987380Y-97991342D01*
X191035000Y-97896104D01*
X191082619Y-97848485D01*
X191177857Y-97800866D01*
X191320714Y-97800866D01*
X191415952Y-97848485D01*
X191463571Y-97896104D01*
X191511190Y-97991342D01*
X191511190Y-98372295D01*
X190987380Y-97467533D02*
X191987380Y-96800866D01*
X190987380Y-96800866D02*
X191987380Y-97467533D01*
X188447380Y-98515152D02*
X188447380Y-97943724D01*
X189447380Y-98229438D02*
X188447380Y-98229438D01*
X188447380Y-97705628D02*
X189447380Y-97038962D01*
X188447380Y-97038962D02*
X189447380Y-97705628D01*
X186859761Y-98419914D02*
X186907380Y-98277057D01*
X186907380Y-98038961D01*
X186859761Y-97943723D01*
X186812142Y-97896104D01*
X186716904Y-97848485D01*
X186621666Y-97848485D01*
X186526428Y-97896104D01*
X186478809Y-97943723D01*
X186431190Y-98038961D01*
X186383571Y-98229438D01*
X186335952Y-98324676D01*
X186288333Y-98372295D01*
X186193095Y-98419914D01*
X186097857Y-98419914D01*
X186002619Y-98372295D01*
X185955000Y-98324676D01*
X185907380Y-98229438D01*
X185907380Y-97991342D01*
X185955000Y-97848485D01*
X186812142Y-96848485D02*
X186859761Y-96896104D01*
X186907380Y-97038961D01*
X186907380Y-97134199D01*
X186859761Y-97277057D01*
X186764523Y-97372295D01*
X186669285Y-97419914D01*
X186478809Y-97467533D01*
X186335952Y-97467533D01*
X186145476Y-97419914D01*
X186050238Y-97372295D01*
X185955000Y-97277057D01*
X185907380Y-97134199D01*
X185907380Y-97038961D01*
X185955000Y-96896104D01*
X186002619Y-96848485D01*
X186907380Y-95943723D02*
X186907380Y-96419914D01*
X185907380Y-96419914D01*
X184319761Y-98419914D02*
X184367380Y-98277057D01*
X184367380Y-98038962D01*
X184319761Y-97943724D01*
X184272142Y-97896105D01*
X184176904Y-97848486D01*
X184081666Y-97848486D01*
X183986428Y-97896105D01*
X183938809Y-97943724D01*
X183891190Y-98038962D01*
X183843571Y-98229438D01*
X183795952Y-98324676D01*
X183748333Y-98372295D01*
X183653095Y-98419914D01*
X183557857Y-98419914D01*
X183462619Y-98372295D01*
X183415000Y-98324676D01*
X183367380Y-98229438D01*
X183367380Y-97991343D01*
X183415000Y-97848486D01*
X184367380Y-97419914D02*
X183367380Y-97419914D01*
X183367380Y-97181819D01*
X183415000Y-97038962D01*
X183510238Y-96943724D01*
X183605476Y-96896105D01*
X183795952Y-96848486D01*
X183938809Y-96848486D01*
X184129285Y-96896105D01*
X184224523Y-96943724D01*
X184319761Y-97038962D01*
X184367380Y-97181819D01*
X184367380Y-97419914D01*
X184081666Y-96467533D02*
X184081666Y-95991343D01*
X184367380Y-96562771D02*
X183367380Y-96229438D01*
X184367380Y-95896105D01*
X181446428Y-98372295D02*
X181446428Y-97610390D01*
X181827380Y-97991342D02*
X181065476Y-97991342D01*
X180827380Y-96658009D02*
X180827380Y-97134200D01*
X181303571Y-97181819D01*
X181255952Y-97134200D01*
X181208333Y-97038961D01*
X181208333Y-96800866D01*
X181255952Y-96705628D01*
X181303571Y-96658009D01*
X181398809Y-96610390D01*
X181636904Y-96610390D01*
X181732142Y-96658009D01*
X181779761Y-96705628D01*
X181827380Y-96800866D01*
X181827380Y-97038961D01*
X181779761Y-97134200D01*
X181732142Y-97181819D01*
X180827380Y-96324676D02*
X181827380Y-95991342D01*
X180827380Y-95658009D01*
X178335000Y-97848485D02*
X178287380Y-97943723D01*
X178287380Y-98086581D01*
X178335000Y-98229438D01*
X178430238Y-98324676D01*
X178525476Y-98372295D01*
X178715952Y-98419914D01*
X178858809Y-98419914D01*
X179049285Y-98372295D01*
X179144523Y-98324676D01*
X179239761Y-98229438D01*
X179287380Y-98086581D01*
X179287380Y-97991342D01*
X179239761Y-97848485D01*
X179192142Y-97800866D01*
X178858809Y-97800866D01*
X178858809Y-97991342D01*
X179287380Y-97372295D02*
X178287380Y-97372295D01*
X179287380Y-96800866D01*
X178287380Y-96800866D01*
X179287380Y-96324676D02*
X178287380Y-96324676D01*
X178287380Y-96086581D01*
X178335000Y-95943723D01*
X178430238Y-95848485D01*
X178525476Y-95800866D01*
X178715952Y-95753247D01*
X178858809Y-95753247D01*
X179049285Y-95800866D01*
X179144523Y-95848485D01*
X179239761Y-95943723D01*
X179287380Y-96086581D01*
X179287380Y-96324676D01*
X178335000Y-81295713D02*
X178287380Y-81390951D01*
X178287380Y-81533809D01*
X178335000Y-81676666D01*
X178430238Y-81771904D01*
X178525476Y-81819523D01*
X178715952Y-81867142D01*
X178858809Y-81867142D01*
X179049285Y-81819523D01*
X179144523Y-81771904D01*
X179239761Y-81676666D01*
X179287380Y-81533809D01*
X179287380Y-81438570D01*
X179239761Y-81295713D01*
X179192142Y-81248094D01*
X178858809Y-81248094D01*
X178858809Y-81438570D01*
X179287380Y-80819523D02*
X178287380Y-80819523D01*
X179287380Y-80248094D01*
X178287380Y-80248094D01*
X179287380Y-79771904D02*
X178287380Y-79771904D01*
X178287380Y-79533809D01*
X178335000Y-79390951D01*
X178430238Y-79295713D01*
X178525476Y-79248094D01*
X178715952Y-79200475D01*
X178858809Y-79200475D01*
X179049285Y-79248094D01*
X179144523Y-79295713D01*
X179239761Y-79390951D01*
X179287380Y-79533809D01*
X179287380Y-79771904D01*
X181446428Y-82771904D02*
X181446428Y-82010000D01*
X181827380Y-82390952D02*
X181065476Y-82390952D01*
X180827380Y-81629047D02*
X180827380Y-81010000D01*
X181208333Y-81343333D01*
X181208333Y-81200476D01*
X181255952Y-81105238D01*
X181303571Y-81057619D01*
X181398809Y-81010000D01*
X181636904Y-81010000D01*
X181732142Y-81057619D01*
X181779761Y-81105238D01*
X181827380Y-81200476D01*
X181827380Y-81486190D01*
X181779761Y-81581428D01*
X181732142Y-81629047D01*
X180827380Y-80724285D02*
X181827380Y-80390952D01*
X180827380Y-80057619D01*
X180827380Y-79819523D02*
X180827380Y-79200476D01*
X181208333Y-79533809D01*
X181208333Y-79390952D01*
X181255952Y-79295714D01*
X181303571Y-79248095D01*
X181398809Y-79200476D01*
X181636904Y-79200476D01*
X181732142Y-79248095D01*
X181779761Y-79295714D01*
X181827380Y-79390952D01*
X181827380Y-79676666D01*
X181779761Y-79771904D01*
X181732142Y-79819523D01*
X184367380Y-82390952D02*
X183367380Y-82390952D01*
X184081666Y-82057619D01*
X183367380Y-81724285D01*
X184367380Y-81724285D01*
X183367380Y-81057619D02*
X183367380Y-80867143D01*
X183415000Y-80771904D01*
X183510238Y-80676666D01*
X183700714Y-80629047D01*
X184034047Y-80629047D01*
X184224523Y-80676666D01*
X184319761Y-80771904D01*
X184367380Y-80867143D01*
X184367380Y-81057619D01*
X184319761Y-81152857D01*
X184224523Y-81248095D01*
X184034047Y-81295714D01*
X183700714Y-81295714D01*
X183510238Y-81248095D01*
X183415000Y-81152857D01*
X183367380Y-81057619D01*
X184319761Y-80248095D02*
X184367380Y-80105238D01*
X184367380Y-79867143D01*
X184319761Y-79771904D01*
X184272142Y-79724285D01*
X184176904Y-79676666D01*
X184081666Y-79676666D01*
X183986428Y-79724285D01*
X183938809Y-79771904D01*
X183891190Y-79867143D01*
X183843571Y-80057619D01*
X183795952Y-80152857D01*
X183748333Y-80200476D01*
X183653095Y-80248095D01*
X183557857Y-80248095D01*
X183462619Y-80200476D01*
X183415000Y-80152857D01*
X183367380Y-80057619D01*
X183367380Y-79819524D01*
X183415000Y-79676666D01*
X184367380Y-79248095D02*
X183367380Y-79248095D01*
X186907380Y-82390952D02*
X185907380Y-82390952D01*
X186621666Y-82057619D01*
X185907380Y-81724285D01*
X186907380Y-81724285D01*
X186907380Y-81248095D02*
X185907380Y-81248095D01*
X186859761Y-80819524D02*
X186907380Y-80676666D01*
X186907380Y-80438571D01*
X186859761Y-80343333D01*
X186812142Y-80295714D01*
X186716904Y-80248095D01*
X186621666Y-80248095D01*
X186526428Y-80295714D01*
X186478809Y-80343333D01*
X186431190Y-80438571D01*
X186383571Y-80629047D01*
X186335952Y-80724285D01*
X186288333Y-80771904D01*
X186193095Y-80819524D01*
X186097857Y-80819524D01*
X186002619Y-80771904D01*
X185955000Y-80724285D01*
X185907380Y-80629047D01*
X185907380Y-80390952D01*
X185955000Y-80248095D01*
X185907380Y-79629047D02*
X185907380Y-79438571D01*
X185955000Y-79343333D01*
X186050238Y-79248095D01*
X186240714Y-79200476D01*
X186574047Y-79200476D01*
X186764523Y-79248095D01*
X186859761Y-79343333D01*
X186907380Y-79438571D01*
X186907380Y-79629047D01*
X186859761Y-79724285D01*
X186764523Y-79819524D01*
X186574047Y-79867143D01*
X186240714Y-79867143D01*
X186050238Y-79819524D01*
X185955000Y-79724285D01*
X185907380Y-79629047D01*
X189399761Y-81771904D02*
X189447380Y-81629047D01*
X189447380Y-81390951D01*
X189399761Y-81295713D01*
X189352142Y-81248094D01*
X189256904Y-81200475D01*
X189161666Y-81200475D01*
X189066428Y-81248094D01*
X189018809Y-81295713D01*
X188971190Y-81390951D01*
X188923571Y-81581428D01*
X188875952Y-81676666D01*
X188828333Y-81724285D01*
X188733095Y-81771904D01*
X188637857Y-81771904D01*
X188542619Y-81724285D01*
X188495000Y-81676666D01*
X188447380Y-81581428D01*
X188447380Y-81343332D01*
X188495000Y-81200475D01*
X189352142Y-80200475D02*
X189399761Y-80248094D01*
X189447380Y-80390951D01*
X189447380Y-80486190D01*
X189399761Y-80629047D01*
X189304523Y-80724285D01*
X189209285Y-80771904D01*
X189018809Y-80819523D01*
X188875952Y-80819523D01*
X188685476Y-80771904D01*
X188590238Y-80724285D01*
X188495000Y-80629047D01*
X188447380Y-80486190D01*
X188447380Y-80390951D01*
X188495000Y-80248094D01*
X188542619Y-80200475D01*
X189447380Y-79771904D02*
X188447380Y-79771904D01*
X189447380Y-79200475D02*
X188875952Y-79629047D01*
X188447380Y-79200475D02*
X189018809Y-79771904D01*
X191892142Y-80152856D02*
X191939761Y-80200475D01*
X191987380Y-80343332D01*
X191987380Y-80438570D01*
X191939761Y-80581428D01*
X191844523Y-80676666D01*
X191749285Y-80724285D01*
X191558809Y-80771904D01*
X191415952Y-80771904D01*
X191225476Y-80724285D01*
X191130238Y-80676666D01*
X191035000Y-80581428D01*
X190987380Y-80438570D01*
X190987380Y-80343332D01*
X191035000Y-80200475D01*
X191082619Y-80152856D01*
X191939761Y-79771904D02*
X191987380Y-79629047D01*
X191987380Y-79390951D01*
X191939761Y-79295713D01*
X191892142Y-79248094D01*
X191796904Y-79200475D01*
X191701666Y-79200475D01*
X191606428Y-79248094D01*
X191558809Y-79295713D01*
X191511190Y-79390951D01*
X191463571Y-79581428D01*
X191415952Y-79676666D01*
X191368333Y-79724285D01*
X191273095Y-79771904D01*
X191177857Y-79771904D01*
X191082619Y-79724285D01*
X191035000Y-79676666D01*
X190987380Y-79581428D01*
X190987380Y-79343332D01*
X191035000Y-79200475D01*
X194527380Y-80914762D02*
X194051190Y-81248095D01*
X194527380Y-81486190D02*
X193527380Y-81486190D01*
X193527380Y-81105238D01*
X193575000Y-81010000D01*
X193622619Y-80962381D01*
X193717857Y-80914762D01*
X193860714Y-80914762D01*
X193955952Y-80962381D01*
X194003571Y-81010000D01*
X194051190Y-81105238D01*
X194051190Y-81486190D01*
X194479761Y-80533809D02*
X194527380Y-80390952D01*
X194527380Y-80152857D01*
X194479761Y-80057619D01*
X194432142Y-80010000D01*
X194336904Y-79962381D01*
X194241666Y-79962381D01*
X194146428Y-80010000D01*
X194098809Y-80057619D01*
X194051190Y-80152857D01*
X194003571Y-80343333D01*
X193955952Y-80438571D01*
X193908333Y-80486190D01*
X193813095Y-80533809D01*
X193717857Y-80533809D01*
X193622619Y-80486190D01*
X193575000Y-80438571D01*
X193527380Y-80343333D01*
X193527380Y-80105238D01*
X193575000Y-79962381D01*
X193527380Y-79676666D02*
X193527380Y-79105238D01*
X194527380Y-79390952D02*
X193527380Y-79390952D01*
X196781666Y-80724285D02*
X196781666Y-80248095D01*
X197067380Y-80819523D02*
X196067380Y-80486190D01*
X197067380Y-80152857D01*
X197067380Y-79819523D02*
X196067380Y-79819523D01*
X197067380Y-79248095D01*
X196067380Y-79248095D01*
%TO.C,J5*%
X168632380Y-61988333D02*
X169346666Y-61988333D01*
X169489523Y-62035952D01*
X169584761Y-62131190D01*
X169632380Y-62274047D01*
X169632380Y-62369285D01*
X168632380Y-61035952D02*
X168632380Y-61512142D01*
X169108571Y-61559761D01*
X169060952Y-61512142D01*
X169013333Y-61416904D01*
X169013333Y-61178809D01*
X169060952Y-61083571D01*
X169108571Y-61035952D01*
X169203809Y-60988333D01*
X169441904Y-60988333D01*
X169537142Y-61035952D01*
X169584761Y-61083571D01*
X169632380Y-61178809D01*
X169632380Y-61416904D01*
X169584761Y-61512142D01*
X169537142Y-61559761D01*
%TO.C,SW5*%
X124396666Y-133694761D02*
X124539523Y-133742380D01*
X124777619Y-133742380D01*
X124872857Y-133694761D01*
X124920476Y-133647142D01*
X124968095Y-133551904D01*
X124968095Y-133456666D01*
X124920476Y-133361428D01*
X124872857Y-133313809D01*
X124777619Y-133266190D01*
X124587142Y-133218571D01*
X124491904Y-133170952D01*
X124444285Y-133123333D01*
X124396666Y-133028095D01*
X124396666Y-132932857D01*
X124444285Y-132837619D01*
X124491904Y-132790000D01*
X124587142Y-132742380D01*
X124825238Y-132742380D01*
X124968095Y-132790000D01*
X125301428Y-132742380D02*
X125539523Y-133742380D01*
X125730000Y-133028095D01*
X125920476Y-133742380D01*
X126158571Y-132742380D01*
X127015714Y-132742380D02*
X126539523Y-132742380D01*
X126491904Y-133218571D01*
X126539523Y-133170952D01*
X126634761Y-133123333D01*
X126872857Y-133123333D01*
X126968095Y-133170952D01*
X127015714Y-133218571D01*
X127063333Y-133313809D01*
X127063333Y-133551904D01*
X127015714Y-133647142D01*
X126968095Y-133694761D01*
X126872857Y-133742380D01*
X126634761Y-133742380D01*
X126539523Y-133694761D01*
X126491904Y-133647142D01*
%TO.C,SW6*%
X124396666Y-138774761D02*
X124539523Y-138822380D01*
X124777619Y-138822380D01*
X124872857Y-138774761D01*
X124920476Y-138727142D01*
X124968095Y-138631904D01*
X124968095Y-138536666D01*
X124920476Y-138441428D01*
X124872857Y-138393809D01*
X124777619Y-138346190D01*
X124587142Y-138298571D01*
X124491904Y-138250952D01*
X124444285Y-138203333D01*
X124396666Y-138108095D01*
X124396666Y-138012857D01*
X124444285Y-137917619D01*
X124491904Y-137870000D01*
X124587142Y-137822380D01*
X124825238Y-137822380D01*
X124968095Y-137870000D01*
X125301428Y-137822380D02*
X125539523Y-138822380D01*
X125730000Y-138108095D01*
X125920476Y-138822380D01*
X126158571Y-137822380D01*
X126968095Y-137822380D02*
X126777619Y-137822380D01*
X126682380Y-137870000D01*
X126634761Y-137917619D01*
X126539523Y-138060476D01*
X126491904Y-138250952D01*
X126491904Y-138631904D01*
X126539523Y-138727142D01*
X126587142Y-138774761D01*
X126682380Y-138822380D01*
X126872857Y-138822380D01*
X126968095Y-138774761D01*
X127015714Y-138727142D01*
X127063333Y-138631904D01*
X127063333Y-138393809D01*
X127015714Y-138298571D01*
X126968095Y-138250952D01*
X126872857Y-138203333D01*
X126682380Y-138203333D01*
X126587142Y-138250952D01*
X126539523Y-138298571D01*
X126491904Y-138393809D01*
%TO.C,SW4*%
X124396666Y-128614761D02*
X124539523Y-128662380D01*
X124777619Y-128662380D01*
X124872857Y-128614761D01*
X124920476Y-128567142D01*
X124968095Y-128471904D01*
X124968095Y-128376666D01*
X124920476Y-128281428D01*
X124872857Y-128233809D01*
X124777619Y-128186190D01*
X124587142Y-128138571D01*
X124491904Y-128090952D01*
X124444285Y-128043333D01*
X124396666Y-127948095D01*
X124396666Y-127852857D01*
X124444285Y-127757619D01*
X124491904Y-127710000D01*
X124587142Y-127662380D01*
X124825238Y-127662380D01*
X124968095Y-127710000D01*
X125301428Y-127662380D02*
X125539523Y-128662380D01*
X125730000Y-127948095D01*
X125920476Y-128662380D01*
X126158571Y-127662380D01*
X126968095Y-127995714D02*
X126968095Y-128662380D01*
X126730000Y-127614761D02*
X126491904Y-128329047D01*
X127110952Y-128329047D01*
%TO.C,SW3*%
X115506666Y-138774761D02*
X115649523Y-138822380D01*
X115887619Y-138822380D01*
X115982857Y-138774761D01*
X116030476Y-138727142D01*
X116078095Y-138631904D01*
X116078095Y-138536666D01*
X116030476Y-138441428D01*
X115982857Y-138393809D01*
X115887619Y-138346190D01*
X115697142Y-138298571D01*
X115601904Y-138250952D01*
X115554285Y-138203333D01*
X115506666Y-138108095D01*
X115506666Y-138012857D01*
X115554285Y-137917619D01*
X115601904Y-137870000D01*
X115697142Y-137822380D01*
X115935238Y-137822380D01*
X116078095Y-137870000D01*
X116411428Y-137822380D02*
X116649523Y-138822380D01*
X116840000Y-138108095D01*
X117030476Y-138822380D01*
X117268571Y-137822380D01*
X117554285Y-137822380D02*
X118173333Y-137822380D01*
X117840000Y-138203333D01*
X117982857Y-138203333D01*
X118078095Y-138250952D01*
X118125714Y-138298571D01*
X118173333Y-138393809D01*
X118173333Y-138631904D01*
X118125714Y-138727142D01*
X118078095Y-138774761D01*
X117982857Y-138822380D01*
X117697142Y-138822380D01*
X117601904Y-138774761D01*
X117554285Y-138727142D01*
%TO.C,SW2*%
X115506666Y-133694761D02*
X115649523Y-133742380D01*
X115887619Y-133742380D01*
X115982857Y-133694761D01*
X116030476Y-133647142D01*
X116078095Y-133551904D01*
X116078095Y-133456666D01*
X116030476Y-133361428D01*
X115982857Y-133313809D01*
X115887619Y-133266190D01*
X115697142Y-133218571D01*
X115601904Y-133170952D01*
X115554285Y-133123333D01*
X115506666Y-133028095D01*
X115506666Y-132932857D01*
X115554285Y-132837619D01*
X115601904Y-132790000D01*
X115697142Y-132742380D01*
X115935238Y-132742380D01*
X116078095Y-132790000D01*
X116411428Y-132742380D02*
X116649523Y-133742380D01*
X116840000Y-133028095D01*
X117030476Y-133742380D01*
X117268571Y-132742380D01*
X117601904Y-132837619D02*
X117649523Y-132790000D01*
X117744761Y-132742380D01*
X117982857Y-132742380D01*
X118078095Y-132790000D01*
X118125714Y-132837619D01*
X118173333Y-132932857D01*
X118173333Y-133028095D01*
X118125714Y-133170952D01*
X117554285Y-133742380D01*
X118173333Y-133742380D01*
%TO.C,SW1*%
X115506666Y-128614761D02*
X115649523Y-128662380D01*
X115887619Y-128662380D01*
X115982857Y-128614761D01*
X116030476Y-128567142D01*
X116078095Y-128471904D01*
X116078095Y-128376666D01*
X116030476Y-128281428D01*
X115982857Y-128233809D01*
X115887619Y-128186190D01*
X115697142Y-128138571D01*
X115601904Y-128090952D01*
X115554285Y-128043333D01*
X115506666Y-127948095D01*
X115506666Y-127852857D01*
X115554285Y-127757619D01*
X115601904Y-127710000D01*
X115697142Y-127662380D01*
X115935238Y-127662380D01*
X116078095Y-127710000D01*
X116411428Y-127662380D02*
X116649523Y-128662380D01*
X116840000Y-127948095D01*
X117030476Y-128662380D01*
X117268571Y-127662380D01*
X118173333Y-128662380D02*
X117601904Y-128662380D01*
X117887619Y-128662380D02*
X117887619Y-127662380D01*
X117792380Y-127805238D01*
X117697142Y-127900476D01*
X117601904Y-127948095D01*
%TO.C,TP5*%
X170670695Y-82430080D02*
X171242123Y-82430080D01*
X170956409Y-83430080D02*
X170956409Y-82430080D01*
X171575457Y-83430080D02*
X171575457Y-82430080D01*
X171956409Y-82430080D01*
X172051647Y-82477700D01*
X172099266Y-82525319D01*
X172146885Y-82620557D01*
X172146885Y-82763414D01*
X172099266Y-82858652D01*
X172051647Y-82906271D01*
X171956409Y-82953890D01*
X171575457Y-82953890D01*
X173051647Y-82430080D02*
X172575457Y-82430080D01*
X172527838Y-82906271D01*
X172575457Y-82858652D01*
X172670695Y-82811033D01*
X172908790Y-82811033D01*
X173004028Y-82858652D01*
X173051647Y-82906271D01*
X173099266Y-83001509D01*
X173099266Y-83239604D01*
X173051647Y-83334842D01*
X173004028Y-83382461D01*
X172908790Y-83430080D01*
X172670695Y-83430080D01*
X172575457Y-83382461D01*
X172527838Y-83334842D01*
%TO.C,TP4*%
X170670695Y-88653080D02*
X171242123Y-88653080D01*
X170956409Y-89653080D02*
X170956409Y-88653080D01*
X171575457Y-89653080D02*
X171575457Y-88653080D01*
X171956409Y-88653080D01*
X172051647Y-88700700D01*
X172099266Y-88748319D01*
X172146885Y-88843557D01*
X172146885Y-88986414D01*
X172099266Y-89081652D01*
X172051647Y-89129271D01*
X171956409Y-89176890D01*
X171575457Y-89176890D01*
X173004028Y-88986414D02*
X173004028Y-89653080D01*
X172765933Y-88605461D02*
X172527838Y-89319747D01*
X173146885Y-89319747D01*
%TO.C,TP3*%
X165133495Y-61335380D02*
X165704923Y-61335380D01*
X165419209Y-62335380D02*
X165419209Y-61335380D01*
X166038257Y-62335380D02*
X166038257Y-61335380D01*
X166419209Y-61335380D01*
X166514447Y-61383000D01*
X166562066Y-61430619D01*
X166609685Y-61525857D01*
X166609685Y-61668714D01*
X166562066Y-61763952D01*
X166514447Y-61811571D01*
X166419209Y-61859190D01*
X166038257Y-61859190D01*
X166943019Y-61335380D02*
X167562066Y-61335380D01*
X167228733Y-61716333D01*
X167371590Y-61716333D01*
X167466828Y-61763952D01*
X167514447Y-61811571D01*
X167562066Y-61906809D01*
X167562066Y-62144904D01*
X167514447Y-62240142D01*
X167466828Y-62287761D01*
X167371590Y-62335380D01*
X167085876Y-62335380D01*
X166990638Y-62287761D01*
X166943019Y-62240142D01*
%TO.C,TP2*%
X111768095Y-65272380D02*
X112339523Y-65272380D01*
X112053809Y-66272380D02*
X112053809Y-65272380D01*
X112672857Y-66272380D02*
X112672857Y-65272380D01*
X113053809Y-65272380D01*
X113149047Y-65320000D01*
X113196666Y-65367619D01*
X113244285Y-65462857D01*
X113244285Y-65605714D01*
X113196666Y-65700952D01*
X113149047Y-65748571D01*
X113053809Y-65796190D01*
X112672857Y-65796190D01*
X113625238Y-65367619D02*
X113672857Y-65320000D01*
X113768095Y-65272380D01*
X114006190Y-65272380D01*
X114101428Y-65320000D01*
X114149047Y-65367619D01*
X114196666Y-65462857D01*
X114196666Y-65558095D01*
X114149047Y-65700952D01*
X113577619Y-66272380D01*
X114196666Y-66272380D01*
%TO.C,J3*%
X197035866Y-127952380D02*
X197035866Y-128666666D01*
X196988247Y-128809523D01*
X196893009Y-128904761D01*
X196750152Y-128952380D01*
X196654914Y-128952380D01*
X197416819Y-127952380D02*
X198035866Y-127952380D01*
X197702533Y-128333333D01*
X197845390Y-128333333D01*
X197940628Y-128380952D01*
X197988247Y-128428571D01*
X198035866Y-128523809D01*
X198035866Y-128761904D01*
X197988247Y-128857142D01*
X197940628Y-128904761D01*
X197845390Y-128952380D01*
X197559676Y-128952380D01*
X197464438Y-128904761D01*
X197416819Y-128857142D01*
%TO.C,C6*%
X134469142Y-97067666D02*
X134516761Y-97115285D01*
X134564380Y-97258142D01*
X134564380Y-97353380D01*
X134516761Y-97496238D01*
X134421523Y-97591476D01*
X134326285Y-97639095D01*
X134135809Y-97686714D01*
X133992952Y-97686714D01*
X133802476Y-97639095D01*
X133707238Y-97591476D01*
X133612000Y-97496238D01*
X133564380Y-97353380D01*
X133564380Y-97258142D01*
X133612000Y-97115285D01*
X133659619Y-97067666D01*
X133564380Y-96210523D02*
X133564380Y-96401000D01*
X133612000Y-96496238D01*
X133659619Y-96543857D01*
X133802476Y-96639095D01*
X133992952Y-96686714D01*
X134373904Y-96686714D01*
X134469142Y-96639095D01*
X134516761Y-96591476D01*
X134564380Y-96496238D01*
X134564380Y-96305761D01*
X134516761Y-96210523D01*
X134469142Y-96162904D01*
X134373904Y-96115285D01*
X134135809Y-96115285D01*
X134040571Y-96162904D01*
X133992952Y-96210523D01*
X133945333Y-96305761D01*
X133945333Y-96496238D01*
X133992952Y-96591476D01*
X134040571Y-96639095D01*
X134135809Y-96686714D01*
%TO.C,U3*%
X159143795Y-67876380D02*
X159143795Y-68685904D01*
X159191414Y-68781142D01*
X159239033Y-68828761D01*
X159334271Y-68876380D01*
X159524747Y-68876380D01*
X159619985Y-68828761D01*
X159667604Y-68781142D01*
X159715223Y-68685904D01*
X159715223Y-67876380D01*
X160096176Y-67876380D02*
X160715223Y-67876380D01*
X160381890Y-68257333D01*
X160524747Y-68257333D01*
X160619985Y-68304952D01*
X160667604Y-68352571D01*
X160715223Y-68447809D01*
X160715223Y-68685904D01*
X160667604Y-68781142D01*
X160619985Y-68828761D01*
X160524747Y-68876380D01*
X160239033Y-68876380D01*
X160143795Y-68828761D01*
X160096176Y-68781142D01*
%TO.C,R17*%
X116784380Y-77096857D02*
X116308190Y-77430190D01*
X116784380Y-77668285D02*
X115784380Y-77668285D01*
X115784380Y-77287333D01*
X115832000Y-77192095D01*
X115879619Y-77144476D01*
X115974857Y-77096857D01*
X116117714Y-77096857D01*
X116212952Y-77144476D01*
X116260571Y-77192095D01*
X116308190Y-77287333D01*
X116308190Y-77668285D01*
X116784380Y-76144476D02*
X116784380Y-76715904D01*
X116784380Y-76430190D02*
X115784380Y-76430190D01*
X115927238Y-76525428D01*
X116022476Y-76620666D01*
X116070095Y-76715904D01*
X115784380Y-75811142D02*
X115784380Y-75144476D01*
X116784380Y-75573047D01*
%TO.C,R16*%
X115260380Y-77096857D02*
X114784190Y-77430190D01*
X115260380Y-77668285D02*
X114260380Y-77668285D01*
X114260380Y-77287333D01*
X114308000Y-77192095D01*
X114355619Y-77144476D01*
X114450857Y-77096857D01*
X114593714Y-77096857D01*
X114688952Y-77144476D01*
X114736571Y-77192095D01*
X114784190Y-77287333D01*
X114784190Y-77668285D01*
X115260380Y-76144476D02*
X115260380Y-76715904D01*
X115260380Y-76430190D02*
X114260380Y-76430190D01*
X114403238Y-76525428D01*
X114498476Y-76620666D01*
X114546095Y-76715904D01*
X114260380Y-75287333D02*
X114260380Y-75477809D01*
X114308000Y-75573047D01*
X114355619Y-75620666D01*
X114498476Y-75715904D01*
X114688952Y-75763523D01*
X115069904Y-75763523D01*
X115165142Y-75715904D01*
X115212761Y-75668285D01*
X115260380Y-75573047D01*
X115260380Y-75382571D01*
X115212761Y-75287333D01*
X115165142Y-75239714D01*
X115069904Y-75192095D01*
X114831809Y-75192095D01*
X114736571Y-75239714D01*
X114688952Y-75287333D01*
X114641333Y-75382571D01*
X114641333Y-75573047D01*
X114688952Y-75668285D01*
X114736571Y-75715904D01*
X114831809Y-75763523D01*
%TO.C,LCD1*%
X177903333Y-108172380D02*
X177427142Y-108172380D01*
X177427142Y-107172380D01*
X178808095Y-108077142D02*
X178760476Y-108124761D01*
X178617619Y-108172380D01*
X178522380Y-108172380D01*
X178379523Y-108124761D01*
X178284285Y-108029523D01*
X178236666Y-107934285D01*
X178189047Y-107743809D01*
X178189047Y-107600952D01*
X178236666Y-107410476D01*
X178284285Y-107315238D01*
X178379523Y-107220000D01*
X178522380Y-107172380D01*
X178617619Y-107172380D01*
X178760476Y-107220000D01*
X178808095Y-107267619D01*
X179236666Y-108172380D02*
X179236666Y-107172380D01*
X179474761Y-107172380D01*
X179617619Y-107220000D01*
X179712857Y-107315238D01*
X179760476Y-107410476D01*
X179808095Y-107600952D01*
X179808095Y-107743809D01*
X179760476Y-107934285D01*
X179712857Y-108029523D01*
X179617619Y-108124761D01*
X179474761Y-108172380D01*
X179236666Y-108172380D01*
X180760476Y-108172380D02*
X180189047Y-108172380D01*
X180474761Y-108172380D02*
X180474761Y-107172380D01*
X180379523Y-107315238D01*
X180284285Y-107410476D01*
X180189047Y-107458095D01*
%TO.C,J4*%
X187626666Y-132548380D02*
X187626666Y-133262666D01*
X187579047Y-133405523D01*
X187483809Y-133500761D01*
X187340952Y-133548380D01*
X187245714Y-133548380D01*
X188531428Y-132881714D02*
X188531428Y-133548380D01*
X188293333Y-132500761D02*
X188055238Y-133215047D01*
X188674285Y-133215047D01*
%TO.C,J1*%
X131278380Y-92535333D02*
X131992666Y-92535333D01*
X132135523Y-92582952D01*
X132230761Y-92678190D01*
X132278380Y-92821047D01*
X132278380Y-92916285D01*
X132278380Y-91535333D02*
X132278380Y-92106761D01*
X132278380Y-91821047D02*
X131278380Y-91821047D01*
X131421238Y-91916285D01*
X131516476Y-92011523D01*
X131564095Y-92106761D01*
%TO.C,D3*%
X118133904Y-61468380D02*
X118133904Y-60468380D01*
X118372000Y-60468380D01*
X118514857Y-60516000D01*
X118610095Y-60611238D01*
X118657714Y-60706476D01*
X118705333Y-60896952D01*
X118705333Y-61039809D01*
X118657714Y-61230285D01*
X118610095Y-61325523D01*
X118514857Y-61420761D01*
X118372000Y-61468380D01*
X118133904Y-61468380D01*
X119038666Y-60468380D02*
X119657714Y-60468380D01*
X119324380Y-60849333D01*
X119467238Y-60849333D01*
X119562476Y-60896952D01*
X119610095Y-60944571D01*
X119657714Y-61039809D01*
X119657714Y-61277904D01*
X119610095Y-61373142D01*
X119562476Y-61420761D01*
X119467238Y-61468380D01*
X119181523Y-61468380D01*
X119086285Y-61420761D01*
X119038666Y-61373142D01*
X115007714Y-63368380D02*
X114436285Y-63368380D01*
X114722000Y-63368380D02*
X114722000Y-62368380D01*
X114626761Y-62511238D01*
X114531523Y-62606476D01*
X114436285Y-62654095D01*
%TO.C,D2*%
X130325904Y-61468380D02*
X130325904Y-60468380D01*
X130564000Y-60468380D01*
X130706857Y-60516000D01*
X130802095Y-60611238D01*
X130849714Y-60706476D01*
X130897333Y-60896952D01*
X130897333Y-61039809D01*
X130849714Y-61230285D01*
X130802095Y-61325523D01*
X130706857Y-61420761D01*
X130564000Y-61468380D01*
X130325904Y-61468380D01*
X131278285Y-60563619D02*
X131325904Y-60516000D01*
X131421142Y-60468380D01*
X131659238Y-60468380D01*
X131754476Y-60516000D01*
X131802095Y-60563619D01*
X131849714Y-60658857D01*
X131849714Y-60754095D01*
X131802095Y-60896952D01*
X131230666Y-61468380D01*
X131849714Y-61468380D01*
X127199714Y-63368380D02*
X126628285Y-63368380D01*
X126914000Y-63368380D02*
X126914000Y-62368380D01*
X126818761Y-62511238D01*
X126723523Y-62606476D01*
X126628285Y-62654095D01*
%TO.C,D1*%
X142517904Y-61468380D02*
X142517904Y-60468380D01*
X142756000Y-60468380D01*
X142898857Y-60516000D01*
X142994095Y-60611238D01*
X143041714Y-60706476D01*
X143089333Y-60896952D01*
X143089333Y-61039809D01*
X143041714Y-61230285D01*
X142994095Y-61325523D01*
X142898857Y-61420761D01*
X142756000Y-61468380D01*
X142517904Y-61468380D01*
X144041714Y-61468380D02*
X143470285Y-61468380D01*
X143756000Y-61468380D02*
X143756000Y-60468380D01*
X143660761Y-60611238D01*
X143565523Y-60706476D01*
X143470285Y-60754095D01*
X139391714Y-63368380D02*
X138820285Y-63368380D01*
X139106000Y-63368380D02*
X139106000Y-62368380D01*
X139010761Y-62511238D01*
X138915523Y-62606476D01*
X138820285Y-62654095D01*
%TO.C,BZ1*%
X194953047Y-70286571D02*
X195095904Y-70334190D01*
X195143523Y-70381809D01*
X195191142Y-70477047D01*
X195191142Y-70619904D01*
X195143523Y-70715142D01*
X195095904Y-70762761D01*
X195000666Y-70810380D01*
X194619714Y-70810380D01*
X194619714Y-69810380D01*
X194953047Y-69810380D01*
X195048285Y-69858000D01*
X195095904Y-69905619D01*
X195143523Y-70000857D01*
X195143523Y-70096095D01*
X195095904Y-70191333D01*
X195048285Y-70238952D01*
X194953047Y-70286571D01*
X194619714Y-70286571D01*
X195524476Y-69810380D02*
X196191142Y-69810380D01*
X195524476Y-70810380D01*
X196191142Y-70810380D01*
X197095904Y-70810380D02*
X196524476Y-70810380D01*
X196810190Y-70810380D02*
X196810190Y-69810380D01*
X196714952Y-69953238D01*
X196619714Y-70048476D01*
X196524476Y-70096095D01*
X183759047Y-64841428D02*
X184520952Y-64841428D01*
X184140000Y-65222380D02*
X184140000Y-64460476D01*
%TO.C,BT1*%
X151278571Y-83180714D02*
X151326190Y-83037857D01*
X151373809Y-82990238D01*
X151469047Y-82942619D01*
X151611904Y-82942619D01*
X151707142Y-82990238D01*
X151754761Y-83037857D01*
X151802380Y-83133095D01*
X151802380Y-83514047D01*
X150802380Y-83514047D01*
X150802380Y-83180714D01*
X150850000Y-83085476D01*
X150897619Y-83037857D01*
X150992857Y-82990238D01*
X151088095Y-82990238D01*
X151183333Y-83037857D01*
X151230952Y-83085476D01*
X151278571Y-83180714D01*
X151278571Y-83514047D01*
X150802380Y-82656904D02*
X150802380Y-82085476D01*
X151802380Y-82371190D02*
X150802380Y-82371190D01*
X151802380Y-81228333D02*
X151802380Y-81799761D01*
X151802380Y-81514047D02*
X150802380Y-81514047D01*
X150945238Y-81609285D01*
X151040476Y-81704523D01*
X151088095Y-81799761D01*
%TD*%
M02*
