M48
; DRILL file {KiCad 5.1.12-1.fc34} date pon, 13 gru 2021, 19:31:15
; FORMAT={-:-/ absolute / inch / decimal}
; #@! TF.CreationDate,2021-12-13T19:31:15+01:00
; #@! TF.GenerationSoftware,Kicad,Pcbnew,5.1.12-1.fc34
FMAT,2
INCH
T1C0.0157
T2C0.0197
T3C0.0350
T4C0.0394
T5C0.1260
T6C0.0433
T7C0.0630
%
G90
G05
T1
X4.16Y-2.96
X4.2041Y-4.2589
X4.205Y-3.3485
X4.3175Y-4.958
X4.3745Y-5.113
X4.448Y-2.5445
X4.45Y-2.96
X4.5902Y-3.0877
X4.64Y-2.96
X4.668Y-2.476
X4.72Y-5.65
X4.7245Y-3.014
X4.77Y-3.25
X4.78Y-5.11
X4.78Y-5.31
X4.78Y-5.51
X4.797Y-4.115
X4.85Y-3.1912
X4.9305Y-3.0915
X4.946Y-5.589
X4.9477Y-5.1923
X4.9513Y-5.3923
X4.9895Y-2.6785
X5.0445Y-3.941
X5.0505Y-3.197
X5.0505Y-4.343
X5.06Y-3.87
X5.065Y-3.675
X5.07Y-3.56
X5.0729Y-3.4829
X5.11Y-3.0
X5.137Y-2.403
X5.168Y-2.869
X5.22Y-4.52
X5.23Y-3.562
X5.233Y-4.076
X5.2515Y-3.192
X5.275Y-5.65
X5.28Y-3.018
X5.3Y-4.52
X5.31Y-4.35
X5.332Y-4.9
X5.3485Y-3.875
X5.375Y-4.995
X5.39Y-4.35
X5.39Y-4.52
X5.4Y-2.83
X5.4Y-4.7245
X5.46Y-4.35
X5.4975Y-5.6525
X5.55Y-4.51
X5.614Y-2.4745
X5.6145Y-3.175
X5.625Y-4.99
X5.677Y-3.3395
X5.7Y-2.97
X5.7005Y-3.6205
X5.749Y-5.6565
X5.76Y-3.43
X5.8Y-2.48
X5.85Y-4.8755
X5.86Y-3.665
X5.875Y-3.2195
X5.875Y-4.99
X5.9186Y-3.405
X5.9345Y-3.62
X5.937Y-3.944
X5.954Y-3.568
X6.0025Y-5.6585
X6.01Y-4.92
X6.036Y-3.568
X6.049Y-3.944
X6.09Y-3.63
X6.105Y-3.4555
X6.1135Y-3.8255
X6.1185Y-2.636
X6.125Y-4.99
X6.1465Y-3.1055
X6.155Y-3.9915
X6.1675Y-4.125
X6.207Y-4.036
X6.2425Y-5.6545
X6.2605Y-3.143
X6.277Y-2.593
X6.295Y-2.485
X6.316Y-2.638
X6.33Y-3.33
X6.3315Y-3.582
X6.38Y-3.1485
X6.4165Y-3.454
X6.4185Y-3.405
X6.448Y-4.206
X6.453Y-2.9805
X6.4641Y-3.1435
X6.466Y-3.3085
X6.499Y-5.492
X6.504Y-4.756
X6.509Y-3.3085
X6.511Y-3.1445
X6.5345Y-4.3595
X6.559Y-3.405
X6.559Y-3.4525
X6.61Y-3.87
X6.83Y-4.55
X6.95Y-4.59
X7.0775Y-3.641
X7.085Y-5.3525
X7.3945Y-4.7025
X7.4025Y-2.652
X7.4475Y-3.205
X7.5145Y-4.7992
X7.5475Y-2.845
X7.5905Y-3.5795
X7.5965Y-3.6735
X7.62Y-3.28
X7.637Y-3.1535
X7.76Y-3.46
X7.798Y-3.1535
X7.82Y-3.71
T2
X4.1655Y-2.52
X4.1665Y-5.54
X4.1932Y-2.4532
X4.1932Y-2.5868
X4.1942Y-5.4732
X4.1942Y-5.6068
X4.26Y-2.4255
X4.26Y-2.6145
X4.261Y-5.4455
X4.261Y-5.6345
X4.3268Y-2.4532
X4.3268Y-2.5868
X4.3278Y-5.4732
X4.3278Y-5.6068
X4.3545Y-2.52
X4.3555Y-5.54
X7.7455Y-5.54
X7.7485Y-2.518
X7.7732Y-5.4732
X7.7732Y-5.6068
X7.7762Y-2.4512
X7.7762Y-2.5848
X7.84Y-5.4455
X7.84Y-5.6345
X7.843Y-2.4235
X7.843Y-2.6125
X7.9068Y-5.4732
X7.9068Y-5.6068
X7.9098Y-2.4512
X7.9098Y-2.5848
X7.9345Y-5.54
X7.9375Y-2.518
T3
X7.05Y-3.05
X7.05Y-3.95
X7.15Y-3.05
X7.15Y-3.95
X7.25Y-3.05
X7.25Y-3.95
X7.35Y-3.05
X7.35Y-3.95
X7.45Y-3.05
X7.45Y-3.95
X7.55Y-3.05
X7.55Y-3.95
X7.65Y-3.05
X7.65Y-3.95
X7.75Y-3.05
X7.75Y-3.95
T4
X4.1902Y-2.9
X4.2902Y-2.9
X4.3902Y-2.9
X4.45Y-2.67
X4.4902Y-2.9
X4.55Y-4.8
X4.5902Y-2.9
X4.65Y-4.8
X4.6902Y-2.9
X4.75Y-4.8
X4.7902Y-2.9
X4.85Y-4.8
X4.8902Y-2.9
X4.95Y-4.8
X4.9902Y-2.9
X5.05Y-4.8
X5.0902Y-2.9
X5.15Y-4.8
X5.25Y-2.9
X5.25Y-4.8
X5.35Y-2.9
X5.45Y-2.9
X5.45Y-4.8
X5.55Y-2.9
X5.55Y-4.8
X5.65Y-2.9
X5.65Y-4.8
X5.75Y-2.9
X5.75Y-4.8
X5.85Y-2.9
X5.85Y-4.8
X5.95Y-2.9
X5.95Y-4.8
X6.551Y-2.515
X6.75Y-2.6
X6.769Y-3.3455
X6.769Y-3.5905
X6.85Y-2.6
X6.95Y-2.6
X7.05Y-2.6
X7.05Y-4.35
X7.05Y-4.45
X7.05Y-4.55
X7.05Y-4.65
X7.05Y-4.75
X7.05Y-4.85
X7.05Y-4.95
X7.05Y-5.05
X7.25Y-2.65
X7.396Y-5.363
X7.396Y-5.463
X7.396Y-5.563
X7.5492Y-2.65
X7.598Y-4.45
X7.598Y-4.55
X7.598Y-4.65
X7.598Y-4.75
X7.598Y-4.85
X7.598Y-4.95
T5
X4.26Y-2.52
X4.261Y-5.54
X7.84Y-5.54
X7.843Y-2.518
T6
X5.0112Y-3.3472
T7
X5.0112Y-4.174
T0
M30
