%TF.GenerationSoftware,KiCad,Pcbnew,5.1.12-1.fc34*%
%TF.CreationDate,2022-01-20T20:25:20+01:00*%
%TF.ProjectId,frdm05-devboard,6672646d-3035-42d6-9465-76626f617264,2.2*%
%TF.SameCoordinates,Original*%
%TF.FileFunction,Soldermask,Bot*%
%TF.FilePolarity,Negative*%
%FSLAX46Y46*%
G04 Gerber Fmt 4.6, Leading zero omitted, Abs format (unit mm)*
G04 Created by KiCad (PCBNEW 5.1.12-1.fc34) date 2022-01-20 20:25:20*
%MOMM*%
%LPD*%
G01*
G04 APERTURE LIST*
%ADD10C,1.600000*%
%ADD11R,1.600000X1.600000*%
%ADD12O,1.600000X1.600000*%
%ADD13R,1.524000X1.524000*%
%ADD14C,1.524000*%
%ADD15R,1.676400X1.676400*%
%ADD16O,1.700000X1.700000*%
%ADD17R,1.700000X1.700000*%
%ADD18R,2.850000X1.430000*%
%ADD19R,0.650000X1.560000*%
%ADD20C,2.000000*%
%ADD21C,0.800000*%
%ADD22C,6.400000*%
%ADD23R,0.900000X0.800000*%
%ADD24R,1.000000X1.400000*%
%ADD25R,1.200000X1.400000*%
%ADD26C,1.100000*%
G04 APERTURE END LIST*
D10*
%TO.C,BZ1*%
X190650000Y-67310000D03*
D11*
X184150000Y-67310000D03*
%TD*%
%TO.C,C2*%
G36*
G01*
X145067000Y-84968500D02*
X146017000Y-84968500D01*
G75*
G02*
X146267000Y-85218500I0J-250000D01*
G01*
X146267000Y-85893500D01*
G75*
G02*
X146017000Y-86143500I-250000J0D01*
G01*
X145067000Y-86143500D01*
G75*
G02*
X144817000Y-85893500I0J250000D01*
G01*
X144817000Y-85218500D01*
G75*
G02*
X145067000Y-84968500I250000J0D01*
G01*
G37*
G36*
G01*
X145067000Y-82893500D02*
X146017000Y-82893500D01*
G75*
G02*
X146267000Y-83143500I0J-250000D01*
G01*
X146267000Y-83818500D01*
G75*
G02*
X146017000Y-84068500I-250000J0D01*
G01*
X145067000Y-84068500D01*
G75*
G02*
X144817000Y-83818500I0J250000D01*
G01*
X144817000Y-83143500D01*
G75*
G02*
X145067000Y-82893500I250000J0D01*
G01*
G37*
%TD*%
D12*
%TO.C,A1*%
X148590000Y-73660000D03*
X151130000Y-73660000D03*
X111510000Y-73660000D03*
X151130000Y-121920000D03*
X114050000Y-73660000D03*
X148590000Y-121920000D03*
X116590000Y-73660000D03*
X146050000Y-121920000D03*
X119130000Y-73660000D03*
X143510000Y-121920000D03*
X121670000Y-73660000D03*
X140970000Y-121920000D03*
X124210000Y-73660000D03*
X138430000Y-121920000D03*
X126750000Y-73660000D03*
X133350000Y-121920000D03*
X129290000Y-73660000D03*
X130810000Y-121920000D03*
X133350000Y-73660000D03*
X128270000Y-121920000D03*
X135890000Y-73660000D03*
X125730000Y-121920000D03*
X138430000Y-73660000D03*
X123190000Y-121920000D03*
X140970000Y-73660000D03*
X120650000Y-121920000D03*
X143510000Y-73660000D03*
X118110000Y-121920000D03*
X146050000Y-73660000D03*
D11*
X115570000Y-121920000D03*
D12*
X108970000Y-73660000D03*
X106430000Y-73660000D03*
%TD*%
%TO.C,R19*%
G36*
G01*
X184750000Y-70415999D02*
X184750000Y-71316001D01*
G75*
G02*
X184500001Y-71566000I-249999J0D01*
G01*
X183799999Y-71566000D01*
G75*
G02*
X183550000Y-71316001I0J249999D01*
G01*
X183550000Y-70415999D01*
G75*
G02*
X183799999Y-70166000I249999J0D01*
G01*
X184500001Y-70166000D01*
G75*
G02*
X184750000Y-70415999I0J-249999D01*
G01*
G37*
G36*
G01*
X186750000Y-70415999D02*
X186750000Y-71316001D01*
G75*
G02*
X186500001Y-71566000I-249999J0D01*
G01*
X185799999Y-71566000D01*
G75*
G02*
X185550000Y-71316001I0J249999D01*
G01*
X185550000Y-70415999D01*
G75*
G02*
X185799999Y-70166000I249999J0D01*
G01*
X186500001Y-70166000D01*
G75*
G02*
X186750000Y-70415999I0J-249999D01*
G01*
G37*
%TD*%
%TO.C,F2*%
G36*
G01*
X125273750Y-116782000D02*
X126186250Y-116782000D01*
G75*
G02*
X126430000Y-117025750I0J-243750D01*
G01*
X126430000Y-117513250D01*
G75*
G02*
X126186250Y-117757000I-243750J0D01*
G01*
X125273750Y-117757000D01*
G75*
G02*
X125030000Y-117513250I0J243750D01*
G01*
X125030000Y-117025750D01*
G75*
G02*
X125273750Y-116782000I243750J0D01*
G01*
G37*
G36*
G01*
X125273750Y-114907000D02*
X126186250Y-114907000D01*
G75*
G02*
X126430000Y-115150750I0J-243750D01*
G01*
X126430000Y-115638250D01*
G75*
G02*
X126186250Y-115882000I-243750J0D01*
G01*
X125273750Y-115882000D01*
G75*
G02*
X125030000Y-115638250I0J243750D01*
G01*
X125030000Y-115150750D01*
G75*
G02*
X125273750Y-114907000I243750J0D01*
G01*
G37*
%TD*%
%TO.C,F1*%
G36*
G01*
X120193750Y-125545000D02*
X121106250Y-125545000D01*
G75*
G02*
X121350000Y-125788750I0J-243750D01*
G01*
X121350000Y-126276250D01*
G75*
G02*
X121106250Y-126520000I-243750J0D01*
G01*
X120193750Y-126520000D01*
G75*
G02*
X119950000Y-126276250I0J243750D01*
G01*
X119950000Y-125788750D01*
G75*
G02*
X120193750Y-125545000I243750J0D01*
G01*
G37*
G36*
G01*
X120193750Y-123670000D02*
X121106250Y-123670000D01*
G75*
G02*
X121350000Y-123913750I0J-243750D01*
G01*
X121350000Y-124401250D01*
G75*
G02*
X121106250Y-124645000I-243750J0D01*
G01*
X120193750Y-124645000D01*
G75*
G02*
X119950000Y-124401250I0J243750D01*
G01*
X119950000Y-123913750D01*
G75*
G02*
X120193750Y-123670000I243750J0D01*
G01*
G37*
%TD*%
%TO.C,C11*%
G36*
G01*
X153400000Y-100805000D02*
X153400000Y-99855000D01*
G75*
G02*
X153650000Y-99605000I250000J0D01*
G01*
X154325000Y-99605000D01*
G75*
G02*
X154575000Y-99855000I0J-250000D01*
G01*
X154575000Y-100805000D01*
G75*
G02*
X154325000Y-101055000I-250000J0D01*
G01*
X153650000Y-101055000D01*
G75*
G02*
X153400000Y-100805000I0J250000D01*
G01*
G37*
G36*
G01*
X151325000Y-100805000D02*
X151325000Y-99855000D01*
G75*
G02*
X151575000Y-99605000I250000J0D01*
G01*
X152250000Y-99605000D01*
G75*
G02*
X152500000Y-99855000I0J-250000D01*
G01*
X152500000Y-100805000D01*
G75*
G02*
X152250000Y-101055000I-250000J0D01*
G01*
X151575000Y-101055000D01*
G75*
G02*
X151325000Y-100805000I0J250000D01*
G01*
G37*
%TD*%
%TO.C,C10*%
G36*
G01*
X153358000Y-109695000D02*
X153358000Y-108745000D01*
G75*
G02*
X153608000Y-108495000I250000J0D01*
G01*
X154283000Y-108495000D01*
G75*
G02*
X154533000Y-108745000I0J-250000D01*
G01*
X154533000Y-109695000D01*
G75*
G02*
X154283000Y-109945000I-250000J0D01*
G01*
X153608000Y-109945000D01*
G75*
G02*
X153358000Y-109695000I0J250000D01*
G01*
G37*
G36*
G01*
X151283000Y-109695000D02*
X151283000Y-108745000D01*
G75*
G02*
X151533000Y-108495000I250000J0D01*
G01*
X152208000Y-108495000D01*
G75*
G02*
X152458000Y-108745000I0J-250000D01*
G01*
X152458000Y-109695000D01*
G75*
G02*
X152208000Y-109945000I-250000J0D01*
G01*
X151533000Y-109945000D01*
G75*
G02*
X151283000Y-109695000I0J250000D01*
G01*
G37*
%TD*%
%TO.C,C9*%
G36*
G01*
X153957000Y-66341500D02*
X154907000Y-66341500D01*
G75*
G02*
X155157000Y-66591500I0J-250000D01*
G01*
X155157000Y-67266500D01*
G75*
G02*
X154907000Y-67516500I-250000J0D01*
G01*
X153957000Y-67516500D01*
G75*
G02*
X153707000Y-67266500I0J250000D01*
G01*
X153707000Y-66591500D01*
G75*
G02*
X153957000Y-66341500I250000J0D01*
G01*
G37*
G36*
G01*
X153957000Y-64266500D02*
X154907000Y-64266500D01*
G75*
G02*
X155157000Y-64516500I0J-250000D01*
G01*
X155157000Y-65191500D01*
G75*
G02*
X154907000Y-65441500I-250000J0D01*
G01*
X153957000Y-65441500D01*
G75*
G02*
X153707000Y-65191500I0J250000D01*
G01*
X153707000Y-64516500D01*
G75*
G02*
X153957000Y-64266500I250000J0D01*
G01*
G37*
%TD*%
%TO.C,C8*%
G36*
G01*
X118270000Y-77539000D02*
X119220000Y-77539000D01*
G75*
G02*
X119470000Y-77789000I0J-250000D01*
G01*
X119470000Y-78464000D01*
G75*
G02*
X119220000Y-78714000I-250000J0D01*
G01*
X118270000Y-78714000D01*
G75*
G02*
X118020000Y-78464000I0J250000D01*
G01*
X118020000Y-77789000D01*
G75*
G02*
X118270000Y-77539000I250000J0D01*
G01*
G37*
G36*
G01*
X118270000Y-75464000D02*
X119220000Y-75464000D01*
G75*
G02*
X119470000Y-75714000I0J-250000D01*
G01*
X119470000Y-76389000D01*
G75*
G02*
X119220000Y-76639000I-250000J0D01*
G01*
X118270000Y-76639000D01*
G75*
G02*
X118020000Y-76389000I0J250000D01*
G01*
X118020000Y-75714000D01*
G75*
G02*
X118270000Y-75464000I250000J0D01*
G01*
G37*
%TD*%
D13*
%TO.C,CON1*%
X196850000Y-100330000D03*
D14*
X194310000Y-100330000D03*
X191770000Y-100330000D03*
X189230000Y-100330000D03*
X186690000Y-100330000D03*
X184150000Y-100330000D03*
X181610000Y-100330000D03*
X179070000Y-100330000D03*
X179070000Y-77470000D03*
X181610000Y-77470000D03*
X184150000Y-77470000D03*
X186690000Y-77470000D03*
X189230000Y-77470000D03*
X191770000Y-77470000D03*
X194310000Y-77470000D03*
D15*
X196850000Y-77470000D03*
%TD*%
D16*
%TO.C,J5*%
X179070000Y-66040000D03*
X176530000Y-66040000D03*
X173990000Y-66040000D03*
D17*
X171450000Y-66040000D03*
%TD*%
D18*
%TO.C,Y1*%
X140927000Y-94213000D03*
X140927000Y-99843000D03*
X145077000Y-99843000D03*
X145077000Y-94213000D03*
%TD*%
%TO.C,U5*%
G36*
G01*
X152630000Y-98575000D02*
X152630000Y-98275000D01*
G75*
G02*
X152780000Y-98125000I150000J0D01*
G01*
X154430000Y-98125000D01*
G75*
G02*
X154580000Y-98275000I0J-150000D01*
G01*
X154580000Y-98575000D01*
G75*
G02*
X154430000Y-98725000I-150000J0D01*
G01*
X152780000Y-98725000D01*
G75*
G02*
X152630000Y-98575000I0J150000D01*
G01*
G37*
G36*
G01*
X152630000Y-97305000D02*
X152630000Y-97005000D01*
G75*
G02*
X152780000Y-96855000I150000J0D01*
G01*
X154430000Y-96855000D01*
G75*
G02*
X154580000Y-97005000I0J-150000D01*
G01*
X154580000Y-97305000D01*
G75*
G02*
X154430000Y-97455000I-150000J0D01*
G01*
X152780000Y-97455000D01*
G75*
G02*
X152630000Y-97305000I0J150000D01*
G01*
G37*
G36*
G01*
X152630000Y-96035000D02*
X152630000Y-95735000D01*
G75*
G02*
X152780000Y-95585000I150000J0D01*
G01*
X154430000Y-95585000D01*
G75*
G02*
X154580000Y-95735000I0J-150000D01*
G01*
X154580000Y-96035000D01*
G75*
G02*
X154430000Y-96185000I-150000J0D01*
G01*
X152780000Y-96185000D01*
G75*
G02*
X152630000Y-96035000I0J150000D01*
G01*
G37*
G36*
G01*
X152630000Y-94765000D02*
X152630000Y-94465000D01*
G75*
G02*
X152780000Y-94315000I150000J0D01*
G01*
X154430000Y-94315000D01*
G75*
G02*
X154580000Y-94465000I0J-150000D01*
G01*
X154580000Y-94765000D01*
G75*
G02*
X154430000Y-94915000I-150000J0D01*
G01*
X152780000Y-94915000D01*
G75*
G02*
X152630000Y-94765000I0J150000D01*
G01*
G37*
G36*
G01*
X147680000Y-94765000D02*
X147680000Y-94465000D01*
G75*
G02*
X147830000Y-94315000I150000J0D01*
G01*
X149480000Y-94315000D01*
G75*
G02*
X149630000Y-94465000I0J-150000D01*
G01*
X149630000Y-94765000D01*
G75*
G02*
X149480000Y-94915000I-150000J0D01*
G01*
X147830000Y-94915000D01*
G75*
G02*
X147680000Y-94765000I0J150000D01*
G01*
G37*
G36*
G01*
X147680000Y-96035000D02*
X147680000Y-95735000D01*
G75*
G02*
X147830000Y-95585000I150000J0D01*
G01*
X149480000Y-95585000D01*
G75*
G02*
X149630000Y-95735000I0J-150000D01*
G01*
X149630000Y-96035000D01*
G75*
G02*
X149480000Y-96185000I-150000J0D01*
G01*
X147830000Y-96185000D01*
G75*
G02*
X147680000Y-96035000I0J150000D01*
G01*
G37*
G36*
G01*
X147680000Y-97305000D02*
X147680000Y-97005000D01*
G75*
G02*
X147830000Y-96855000I150000J0D01*
G01*
X149480000Y-96855000D01*
G75*
G02*
X149630000Y-97005000I0J-150000D01*
G01*
X149630000Y-97305000D01*
G75*
G02*
X149480000Y-97455000I-150000J0D01*
G01*
X147830000Y-97455000D01*
G75*
G02*
X147680000Y-97305000I0J150000D01*
G01*
G37*
G36*
G01*
X147680000Y-98575000D02*
X147680000Y-98275000D01*
G75*
G02*
X147830000Y-98125000I150000J0D01*
G01*
X149480000Y-98125000D01*
G75*
G02*
X149630000Y-98275000I0J-150000D01*
G01*
X149630000Y-98575000D01*
G75*
G02*
X149480000Y-98725000I-150000J0D01*
G01*
X147830000Y-98725000D01*
G75*
G02*
X147680000Y-98575000I0J150000D01*
G01*
G37*
%TD*%
D19*
%TO.C,U6*%
X151318000Y-63166000D03*
X149418000Y-63166000D03*
X149418000Y-65866000D03*
X150368000Y-65866000D03*
X151318000Y-65866000D03*
%TD*%
D20*
%TO.C,TP5*%
X171932600Y-84975700D03*
%TD*%
%TO.C,TP4*%
X171932600Y-91198700D03*
%TD*%
%TO.C,TP3*%
X166395400Y-63881000D03*
%TD*%
%TO.C,TP2*%
X113030000Y-67818000D03*
%TD*%
D16*
%TO.C,J3*%
X192989200Y-113030000D03*
X192989200Y-115570000D03*
X192989200Y-118110000D03*
X192989200Y-120650000D03*
X192989200Y-123190000D03*
D17*
X192989200Y-125730000D03*
%TD*%
D21*
%TO.C,H4*%
X109926456Y-139018944D03*
X108229400Y-138316000D03*
X106532344Y-139018944D03*
X105829400Y-140716000D03*
X106532344Y-142413056D03*
X108229400Y-143116000D03*
X109926456Y-142413056D03*
X110629400Y-140716000D03*
D22*
X108229400Y-140716000D03*
%TD*%
D21*
%TO.C,H3*%
X200833356Y-139018944D03*
X199136300Y-138316000D03*
X197439244Y-139018944D03*
X196736300Y-140716000D03*
X197439244Y-142413056D03*
X199136300Y-143116000D03*
X200833356Y-142413056D03*
X201536300Y-140716000D03*
D22*
X199136300Y-140716000D03*
%TD*%
D21*
%TO.C,H2*%
X109901056Y-62310944D03*
X108204000Y-61608000D03*
X106506944Y-62310944D03*
X105804000Y-64008000D03*
X106506944Y-65705056D03*
X108204000Y-66408000D03*
X109901056Y-65705056D03*
X110604000Y-64008000D03*
D22*
X108204000Y-64008000D03*
%TD*%
D21*
%TO.C,H1*%
X200909256Y-62260144D03*
X199212200Y-61557200D03*
X197515144Y-62260144D03*
X196812200Y-63957200D03*
X197515144Y-65654256D03*
X199212200Y-66357200D03*
X200909256Y-65654256D03*
X201612200Y-63957200D03*
D22*
X199212200Y-63957200D03*
%TD*%
%TO.C,U4*%
G36*
G01*
X152630000Y-107465000D02*
X152630000Y-107165000D01*
G75*
G02*
X152780000Y-107015000I150000J0D01*
G01*
X154430000Y-107015000D01*
G75*
G02*
X154580000Y-107165000I0J-150000D01*
G01*
X154580000Y-107465000D01*
G75*
G02*
X154430000Y-107615000I-150000J0D01*
G01*
X152780000Y-107615000D01*
G75*
G02*
X152630000Y-107465000I0J150000D01*
G01*
G37*
G36*
G01*
X152630000Y-106195000D02*
X152630000Y-105895000D01*
G75*
G02*
X152780000Y-105745000I150000J0D01*
G01*
X154430000Y-105745000D01*
G75*
G02*
X154580000Y-105895000I0J-150000D01*
G01*
X154580000Y-106195000D01*
G75*
G02*
X154430000Y-106345000I-150000J0D01*
G01*
X152780000Y-106345000D01*
G75*
G02*
X152630000Y-106195000I0J150000D01*
G01*
G37*
G36*
G01*
X152630000Y-104925000D02*
X152630000Y-104625000D01*
G75*
G02*
X152780000Y-104475000I150000J0D01*
G01*
X154430000Y-104475000D01*
G75*
G02*
X154580000Y-104625000I0J-150000D01*
G01*
X154580000Y-104925000D01*
G75*
G02*
X154430000Y-105075000I-150000J0D01*
G01*
X152780000Y-105075000D01*
G75*
G02*
X152630000Y-104925000I0J150000D01*
G01*
G37*
G36*
G01*
X152630000Y-103655000D02*
X152630000Y-103355000D01*
G75*
G02*
X152780000Y-103205000I150000J0D01*
G01*
X154430000Y-103205000D01*
G75*
G02*
X154580000Y-103355000I0J-150000D01*
G01*
X154580000Y-103655000D01*
G75*
G02*
X154430000Y-103805000I-150000J0D01*
G01*
X152780000Y-103805000D01*
G75*
G02*
X152630000Y-103655000I0J150000D01*
G01*
G37*
G36*
G01*
X147680000Y-103655000D02*
X147680000Y-103355000D01*
G75*
G02*
X147830000Y-103205000I150000J0D01*
G01*
X149480000Y-103205000D01*
G75*
G02*
X149630000Y-103355000I0J-150000D01*
G01*
X149630000Y-103655000D01*
G75*
G02*
X149480000Y-103805000I-150000J0D01*
G01*
X147830000Y-103805000D01*
G75*
G02*
X147680000Y-103655000I0J150000D01*
G01*
G37*
G36*
G01*
X147680000Y-104925000D02*
X147680000Y-104625000D01*
G75*
G02*
X147830000Y-104475000I150000J0D01*
G01*
X149480000Y-104475000D01*
G75*
G02*
X149630000Y-104625000I0J-150000D01*
G01*
X149630000Y-104925000D01*
G75*
G02*
X149480000Y-105075000I-150000J0D01*
G01*
X147830000Y-105075000D01*
G75*
G02*
X147680000Y-104925000I0J150000D01*
G01*
G37*
G36*
G01*
X147680000Y-106195000D02*
X147680000Y-105895000D01*
G75*
G02*
X147830000Y-105745000I150000J0D01*
G01*
X149480000Y-105745000D01*
G75*
G02*
X149630000Y-105895000I0J-150000D01*
G01*
X149630000Y-106195000D01*
G75*
G02*
X149480000Y-106345000I-150000J0D01*
G01*
X147830000Y-106345000D01*
G75*
G02*
X147680000Y-106195000I0J150000D01*
G01*
G37*
G36*
G01*
X147680000Y-107465000D02*
X147680000Y-107165000D01*
G75*
G02*
X147830000Y-107015000I150000J0D01*
G01*
X149480000Y-107015000D01*
G75*
G02*
X149630000Y-107165000I0J-150000D01*
G01*
X149630000Y-107465000D01*
G75*
G02*
X149480000Y-107615000I-150000J0D01*
G01*
X147830000Y-107615000D01*
G75*
G02*
X147680000Y-107465000I0J150000D01*
G01*
G37*
%TD*%
%TO.C,U2*%
G36*
G01*
X152630000Y-89177000D02*
X152630000Y-88877000D01*
G75*
G02*
X152780000Y-88727000I150000J0D01*
G01*
X154430000Y-88727000D01*
G75*
G02*
X154580000Y-88877000I0J-150000D01*
G01*
X154580000Y-89177000D01*
G75*
G02*
X154430000Y-89327000I-150000J0D01*
G01*
X152780000Y-89327000D01*
G75*
G02*
X152630000Y-89177000I0J150000D01*
G01*
G37*
G36*
G01*
X152630000Y-87907000D02*
X152630000Y-87607000D01*
G75*
G02*
X152780000Y-87457000I150000J0D01*
G01*
X154430000Y-87457000D01*
G75*
G02*
X154580000Y-87607000I0J-150000D01*
G01*
X154580000Y-87907000D01*
G75*
G02*
X154430000Y-88057000I-150000J0D01*
G01*
X152780000Y-88057000D01*
G75*
G02*
X152630000Y-87907000I0J150000D01*
G01*
G37*
G36*
G01*
X152630000Y-86637000D02*
X152630000Y-86337000D01*
G75*
G02*
X152780000Y-86187000I150000J0D01*
G01*
X154430000Y-86187000D01*
G75*
G02*
X154580000Y-86337000I0J-150000D01*
G01*
X154580000Y-86637000D01*
G75*
G02*
X154430000Y-86787000I-150000J0D01*
G01*
X152780000Y-86787000D01*
G75*
G02*
X152630000Y-86637000I0J150000D01*
G01*
G37*
G36*
G01*
X152630000Y-85367000D02*
X152630000Y-85067000D01*
G75*
G02*
X152780000Y-84917000I150000J0D01*
G01*
X154430000Y-84917000D01*
G75*
G02*
X154580000Y-85067000I0J-150000D01*
G01*
X154580000Y-85367000D01*
G75*
G02*
X154430000Y-85517000I-150000J0D01*
G01*
X152780000Y-85517000D01*
G75*
G02*
X152630000Y-85367000I0J150000D01*
G01*
G37*
G36*
G01*
X147680000Y-85367000D02*
X147680000Y-85067000D01*
G75*
G02*
X147830000Y-84917000I150000J0D01*
G01*
X149480000Y-84917000D01*
G75*
G02*
X149630000Y-85067000I0J-150000D01*
G01*
X149630000Y-85367000D01*
G75*
G02*
X149480000Y-85517000I-150000J0D01*
G01*
X147830000Y-85517000D01*
G75*
G02*
X147680000Y-85367000I0J150000D01*
G01*
G37*
G36*
G01*
X147680000Y-86637000D02*
X147680000Y-86337000D01*
G75*
G02*
X147830000Y-86187000I150000J0D01*
G01*
X149480000Y-86187000D01*
G75*
G02*
X149630000Y-86337000I0J-150000D01*
G01*
X149630000Y-86637000D01*
G75*
G02*
X149480000Y-86787000I-150000J0D01*
G01*
X147830000Y-86787000D01*
G75*
G02*
X147680000Y-86637000I0J150000D01*
G01*
G37*
G36*
G01*
X147680000Y-87907000D02*
X147680000Y-87607000D01*
G75*
G02*
X147830000Y-87457000I150000J0D01*
G01*
X149480000Y-87457000D01*
G75*
G02*
X149630000Y-87607000I0J-150000D01*
G01*
X149630000Y-87907000D01*
G75*
G02*
X149480000Y-88057000I-150000J0D01*
G01*
X147830000Y-88057000D01*
G75*
G02*
X147680000Y-87907000I0J150000D01*
G01*
G37*
G36*
G01*
X147680000Y-89177000D02*
X147680000Y-88877000D01*
G75*
G02*
X147830000Y-88727000I150000J0D01*
G01*
X149480000Y-88727000D01*
G75*
G02*
X149630000Y-88877000I0J-150000D01*
G01*
X149630000Y-89177000D01*
G75*
G02*
X149480000Y-89327000I-150000J0D01*
G01*
X147830000Y-89327000D01*
G75*
G02*
X147680000Y-89177000I0J150000D01*
G01*
G37*
%TD*%
%TO.C,U1*%
G36*
G01*
X122718700Y-75846800D02*
X122718700Y-76146800D01*
G75*
G02*
X122568700Y-76296800I-150000J0D01*
G01*
X120918700Y-76296800D01*
G75*
G02*
X120768700Y-76146800I0J150000D01*
G01*
X120768700Y-75846800D01*
G75*
G02*
X120918700Y-75696800I150000J0D01*
G01*
X122568700Y-75696800D01*
G75*
G02*
X122718700Y-75846800I0J-150000D01*
G01*
G37*
G36*
G01*
X122718700Y-77116800D02*
X122718700Y-77416800D01*
G75*
G02*
X122568700Y-77566800I-150000J0D01*
G01*
X120918700Y-77566800D01*
G75*
G02*
X120768700Y-77416800I0J150000D01*
G01*
X120768700Y-77116800D01*
G75*
G02*
X120918700Y-76966800I150000J0D01*
G01*
X122568700Y-76966800D01*
G75*
G02*
X122718700Y-77116800I0J-150000D01*
G01*
G37*
G36*
G01*
X122718700Y-78386800D02*
X122718700Y-78686800D01*
G75*
G02*
X122568700Y-78836800I-150000J0D01*
G01*
X120918700Y-78836800D01*
G75*
G02*
X120768700Y-78686800I0J150000D01*
G01*
X120768700Y-78386800D01*
G75*
G02*
X120918700Y-78236800I150000J0D01*
G01*
X122568700Y-78236800D01*
G75*
G02*
X122718700Y-78386800I0J-150000D01*
G01*
G37*
G36*
G01*
X122718700Y-79656800D02*
X122718700Y-79956800D01*
G75*
G02*
X122568700Y-80106800I-150000J0D01*
G01*
X120918700Y-80106800D01*
G75*
G02*
X120768700Y-79956800I0J150000D01*
G01*
X120768700Y-79656800D01*
G75*
G02*
X120918700Y-79506800I150000J0D01*
G01*
X122568700Y-79506800D01*
G75*
G02*
X122718700Y-79656800I0J-150000D01*
G01*
G37*
G36*
G01*
X127668700Y-79656800D02*
X127668700Y-79956800D01*
G75*
G02*
X127518700Y-80106800I-150000J0D01*
G01*
X125868700Y-80106800D01*
G75*
G02*
X125718700Y-79956800I0J150000D01*
G01*
X125718700Y-79656800D01*
G75*
G02*
X125868700Y-79506800I150000J0D01*
G01*
X127518700Y-79506800D01*
G75*
G02*
X127668700Y-79656800I0J-150000D01*
G01*
G37*
G36*
G01*
X127668700Y-78386800D02*
X127668700Y-78686800D01*
G75*
G02*
X127518700Y-78836800I-150000J0D01*
G01*
X125868700Y-78836800D01*
G75*
G02*
X125718700Y-78686800I0J150000D01*
G01*
X125718700Y-78386800D01*
G75*
G02*
X125868700Y-78236800I150000J0D01*
G01*
X127518700Y-78236800D01*
G75*
G02*
X127668700Y-78386800I0J-150000D01*
G01*
G37*
G36*
G01*
X127668700Y-77116800D02*
X127668700Y-77416800D01*
G75*
G02*
X127518700Y-77566800I-150000J0D01*
G01*
X125868700Y-77566800D01*
G75*
G02*
X125718700Y-77416800I0J150000D01*
G01*
X125718700Y-77116800D01*
G75*
G02*
X125868700Y-76966800I150000J0D01*
G01*
X127518700Y-76966800D01*
G75*
G02*
X127668700Y-77116800I0J-150000D01*
G01*
G37*
G36*
G01*
X127668700Y-75846800D02*
X127668700Y-76146800D01*
G75*
G02*
X127518700Y-76296800I-150000J0D01*
G01*
X125868700Y-76296800D01*
G75*
G02*
X125718700Y-76146800I0J150000D01*
G01*
X125718700Y-75846800D01*
G75*
G02*
X125868700Y-75696800I150000J0D01*
G01*
X127518700Y-75696800D01*
G75*
G02*
X127668700Y-75846800I0J-150000D01*
G01*
G37*
%TD*%
%TO.C,R18*%
G36*
G01*
X176484701Y-123933000D02*
X175584699Y-123933000D01*
G75*
G02*
X175334700Y-123683001I0J249999D01*
G01*
X175334700Y-122982999D01*
G75*
G02*
X175584699Y-122733000I249999J0D01*
G01*
X176484701Y-122733000D01*
G75*
G02*
X176734700Y-122982999I0J-249999D01*
G01*
X176734700Y-123683001D01*
G75*
G02*
X176484701Y-123933000I-249999J0D01*
G01*
G37*
G36*
G01*
X176484701Y-125933000D02*
X175584699Y-125933000D01*
G75*
G02*
X175334700Y-125683001I0J249999D01*
G01*
X175334700Y-124982999D01*
G75*
G02*
X175584699Y-124733000I249999J0D01*
G01*
X176484701Y-124733000D01*
G75*
G02*
X176734700Y-124982999I0J-249999D01*
G01*
X176734700Y-125683001D01*
G75*
G02*
X176484701Y-125933000I-249999J0D01*
G01*
G37*
%TD*%
%TO.C,R15*%
G36*
G01*
X195548300Y-71851099D02*
X195548300Y-72751101D01*
G75*
G02*
X195298301Y-73001100I-249999J0D01*
G01*
X194598299Y-73001100D01*
G75*
G02*
X194348300Y-72751101I0J249999D01*
G01*
X194348300Y-71851099D01*
G75*
G02*
X194598299Y-71601100I249999J0D01*
G01*
X195298301Y-71601100D01*
G75*
G02*
X195548300Y-71851099I0J-249999D01*
G01*
G37*
G36*
G01*
X197548300Y-71851099D02*
X197548300Y-72751101D01*
G75*
G02*
X197298301Y-73001100I-249999J0D01*
G01*
X196598299Y-73001100D01*
G75*
G02*
X196348300Y-72751101I0J249999D01*
G01*
X196348300Y-71851099D01*
G75*
G02*
X196598299Y-71601100I249999J0D01*
G01*
X197298301Y-71601100D01*
G75*
G02*
X197548300Y-71851099I0J-249999D01*
G01*
G37*
%TD*%
%TO.C,R14*%
G36*
G01*
X139554000Y-124009999D02*
X139554000Y-124910001D01*
G75*
G02*
X139304001Y-125160000I-249999J0D01*
G01*
X138603999Y-125160000D01*
G75*
G02*
X138354000Y-124910001I0J249999D01*
G01*
X138354000Y-124009999D01*
G75*
G02*
X138603999Y-123760000I249999J0D01*
G01*
X139304001Y-123760000D01*
G75*
G02*
X139554000Y-124009999I0J-249999D01*
G01*
G37*
G36*
G01*
X141554000Y-124009999D02*
X141554000Y-124910001D01*
G75*
G02*
X141304001Y-125160000I-249999J0D01*
G01*
X140603999Y-125160000D01*
G75*
G02*
X140354000Y-124910001I0J249999D01*
G01*
X140354000Y-124009999D01*
G75*
G02*
X140603999Y-123760000I249999J0D01*
G01*
X141304001Y-123760000D01*
G75*
G02*
X141554000Y-124009999I0J-249999D01*
G01*
G37*
%TD*%
%TO.C,R13*%
G36*
G01*
X155302000Y-142297999D02*
X155302000Y-143198001D01*
G75*
G02*
X155052001Y-143448000I-249999J0D01*
G01*
X154351999Y-143448000D01*
G75*
G02*
X154102000Y-143198001I0J249999D01*
G01*
X154102000Y-142297999D01*
G75*
G02*
X154351999Y-142048000I249999J0D01*
G01*
X155052001Y-142048000D01*
G75*
G02*
X155302000Y-142297999I0J-249999D01*
G01*
G37*
G36*
G01*
X157302000Y-142297999D02*
X157302000Y-143198001D01*
G75*
G02*
X157052001Y-143448000I-249999J0D01*
G01*
X156351999Y-143448000D01*
G75*
G02*
X156102000Y-143198001I0J249999D01*
G01*
X156102000Y-142297999D01*
G75*
G02*
X156351999Y-142048000I249999J0D01*
G01*
X157052001Y-142048000D01*
G75*
G02*
X157302000Y-142297999I0J-249999D01*
G01*
G37*
%TD*%
%TO.C,R12*%
G36*
G01*
X148952000Y-142297999D02*
X148952000Y-143198001D01*
G75*
G02*
X148702001Y-143448000I-249999J0D01*
G01*
X148001999Y-143448000D01*
G75*
G02*
X147752000Y-143198001I0J249999D01*
G01*
X147752000Y-142297999D01*
G75*
G02*
X148001999Y-142048000I249999J0D01*
G01*
X148702001Y-142048000D01*
G75*
G02*
X148952000Y-142297999I0J-249999D01*
G01*
G37*
G36*
G01*
X150952000Y-142297999D02*
X150952000Y-143198001D01*
G75*
G02*
X150702001Y-143448000I-249999J0D01*
G01*
X150001999Y-143448000D01*
G75*
G02*
X149752000Y-143198001I0J249999D01*
G01*
X149752000Y-142297999D01*
G75*
G02*
X150001999Y-142048000I249999J0D01*
G01*
X150702001Y-142048000D01*
G75*
G02*
X150952000Y-142297999I0J-249999D01*
G01*
G37*
%TD*%
%TO.C,R11*%
G36*
G01*
X142602000Y-142297999D02*
X142602000Y-143198001D01*
G75*
G02*
X142352001Y-143448000I-249999J0D01*
G01*
X141651999Y-143448000D01*
G75*
G02*
X141402000Y-143198001I0J249999D01*
G01*
X141402000Y-142297999D01*
G75*
G02*
X141651999Y-142048000I249999J0D01*
G01*
X142352001Y-142048000D01*
G75*
G02*
X142602000Y-142297999I0J-249999D01*
G01*
G37*
G36*
G01*
X144602000Y-142297999D02*
X144602000Y-143198001D01*
G75*
G02*
X144352001Y-143448000I-249999J0D01*
G01*
X143651999Y-143448000D01*
G75*
G02*
X143402000Y-143198001I0J249999D01*
G01*
X143402000Y-142297999D01*
G75*
G02*
X143651999Y-142048000I249999J0D01*
G01*
X144352001Y-142048000D01*
G75*
G02*
X144602000Y-142297999I0J-249999D01*
G01*
G37*
%TD*%
%TO.C,R10*%
G36*
G01*
X136252000Y-142297999D02*
X136252000Y-143198001D01*
G75*
G02*
X136002001Y-143448000I-249999J0D01*
G01*
X135301999Y-143448000D01*
G75*
G02*
X135052000Y-143198001I0J249999D01*
G01*
X135052000Y-142297999D01*
G75*
G02*
X135301999Y-142048000I249999J0D01*
G01*
X136002001Y-142048000D01*
G75*
G02*
X136252000Y-142297999I0J-249999D01*
G01*
G37*
G36*
G01*
X138252000Y-142297999D02*
X138252000Y-143198001D01*
G75*
G02*
X138002001Y-143448000I-249999J0D01*
G01*
X137301999Y-143448000D01*
G75*
G02*
X137052000Y-143198001I0J249999D01*
G01*
X137052000Y-142297999D01*
G75*
G02*
X137301999Y-142048000I249999J0D01*
G01*
X138002001Y-142048000D01*
G75*
G02*
X138252000Y-142297999I0J-249999D01*
G01*
G37*
%TD*%
%TO.C,R9*%
G36*
G01*
X132022001Y-140570000D02*
X131121999Y-140570000D01*
G75*
G02*
X130872000Y-140320001I0J249999D01*
G01*
X130872000Y-139619999D01*
G75*
G02*
X131121999Y-139370000I249999J0D01*
G01*
X132022001Y-139370000D01*
G75*
G02*
X132272000Y-139619999I0J-249999D01*
G01*
X132272000Y-140320001D01*
G75*
G02*
X132022001Y-140570000I-249999J0D01*
G01*
G37*
G36*
G01*
X132022001Y-142570000D02*
X131121999Y-142570000D01*
G75*
G02*
X130872000Y-142320001I0J249999D01*
G01*
X130872000Y-141619999D01*
G75*
G02*
X131121999Y-141370000I249999J0D01*
G01*
X132022001Y-141370000D01*
G75*
G02*
X132272000Y-141619999I0J-249999D01*
G01*
X132272000Y-142320001D01*
G75*
G02*
X132022001Y-142570000I-249999J0D01*
G01*
G37*
%TD*%
%TO.C,R8*%
G36*
G01*
X152000000Y-127057999D02*
X152000000Y-127958001D01*
G75*
G02*
X151750001Y-128208000I-249999J0D01*
G01*
X151049999Y-128208000D01*
G75*
G02*
X150800000Y-127958001I0J249999D01*
G01*
X150800000Y-127057999D01*
G75*
G02*
X151049999Y-126808000I249999J0D01*
G01*
X151750001Y-126808000D01*
G75*
G02*
X152000000Y-127057999I0J-249999D01*
G01*
G37*
G36*
G01*
X154000000Y-127057999D02*
X154000000Y-127958001D01*
G75*
G02*
X153750001Y-128208000I-249999J0D01*
G01*
X153049999Y-128208000D01*
G75*
G02*
X152800000Y-127958001I0J249999D01*
G01*
X152800000Y-127057999D01*
G75*
G02*
X153049999Y-126808000I249999J0D01*
G01*
X153750001Y-126808000D01*
G75*
G02*
X154000000Y-127057999I0J-249999D01*
G01*
G37*
%TD*%
%TO.C,R7*%
G36*
G01*
X145904000Y-127057999D02*
X145904000Y-127958001D01*
G75*
G02*
X145654001Y-128208000I-249999J0D01*
G01*
X144953999Y-128208000D01*
G75*
G02*
X144704000Y-127958001I0J249999D01*
G01*
X144704000Y-127057999D01*
G75*
G02*
X144953999Y-126808000I249999J0D01*
G01*
X145654001Y-126808000D01*
G75*
G02*
X145904000Y-127057999I0J-249999D01*
G01*
G37*
G36*
G01*
X147904000Y-127057999D02*
X147904000Y-127958001D01*
G75*
G02*
X147654001Y-128208000I-249999J0D01*
G01*
X146953999Y-128208000D01*
G75*
G02*
X146704000Y-127958001I0J249999D01*
G01*
X146704000Y-127057999D01*
G75*
G02*
X146953999Y-126808000I249999J0D01*
G01*
X147654001Y-126808000D01*
G75*
G02*
X147904000Y-127057999I0J-249999D01*
G01*
G37*
%TD*%
%TO.C,R6*%
G36*
G01*
X139554000Y-127057999D02*
X139554000Y-127958001D01*
G75*
G02*
X139304001Y-128208000I-249999J0D01*
G01*
X138603999Y-128208000D01*
G75*
G02*
X138354000Y-127958001I0J249999D01*
G01*
X138354000Y-127057999D01*
G75*
G02*
X138603999Y-126808000I249999J0D01*
G01*
X139304001Y-126808000D01*
G75*
G02*
X139554000Y-127057999I0J-249999D01*
G01*
G37*
G36*
G01*
X141554000Y-127057999D02*
X141554000Y-127958001D01*
G75*
G02*
X141304001Y-128208000I-249999J0D01*
G01*
X140603999Y-128208000D01*
G75*
G02*
X140354000Y-127958001I0J249999D01*
G01*
X140354000Y-127057999D01*
G75*
G02*
X140603999Y-126808000I249999J0D01*
G01*
X141304001Y-126808000D01*
G75*
G02*
X141554000Y-127057999I0J-249999D01*
G01*
G37*
%TD*%
%TO.C,R5*%
G36*
G01*
X108146001Y-133696000D02*
X107245999Y-133696000D01*
G75*
G02*
X106996000Y-133446001I0J249999D01*
G01*
X106996000Y-132745999D01*
G75*
G02*
X107245999Y-132496000I249999J0D01*
G01*
X108146001Y-132496000D01*
G75*
G02*
X108396000Y-132745999I0J-249999D01*
G01*
X108396000Y-133446001D01*
G75*
G02*
X108146001Y-133696000I-249999J0D01*
G01*
G37*
G36*
G01*
X108146001Y-135696000D02*
X107245999Y-135696000D01*
G75*
G02*
X106996000Y-135446001I0J249999D01*
G01*
X106996000Y-134745999D01*
G75*
G02*
X107245999Y-134496000I249999J0D01*
G01*
X108146001Y-134496000D01*
G75*
G02*
X108396000Y-134745999I0J-249999D01*
G01*
X108396000Y-135446001D01*
G75*
G02*
X108146001Y-135696000I-249999J0D01*
G01*
G37*
%TD*%
%TO.C,R4*%
G36*
G01*
X109277999Y-134512000D02*
X110178001Y-134512000D01*
G75*
G02*
X110428000Y-134761999I0J-249999D01*
G01*
X110428000Y-135462001D01*
G75*
G02*
X110178001Y-135712000I-249999J0D01*
G01*
X109277999Y-135712000D01*
G75*
G02*
X109028000Y-135462001I0J249999D01*
G01*
X109028000Y-134761999D01*
G75*
G02*
X109277999Y-134512000I249999J0D01*
G01*
G37*
G36*
G01*
X109277999Y-132512000D02*
X110178001Y-132512000D01*
G75*
G02*
X110428000Y-132761999I0J-249999D01*
G01*
X110428000Y-133462001D01*
G75*
G02*
X110178001Y-133712000I-249999J0D01*
G01*
X109277999Y-133712000D01*
G75*
G02*
X109028000Y-133462001I0J249999D01*
G01*
X109028000Y-132761999D01*
G75*
G02*
X109277999Y-132512000I249999J0D01*
G01*
G37*
%TD*%
%TO.C,R3*%
G36*
G01*
X121862001Y-142094000D02*
X120961999Y-142094000D01*
G75*
G02*
X120712000Y-141844001I0J249999D01*
G01*
X120712000Y-141143999D01*
G75*
G02*
X120961999Y-140894000I249999J0D01*
G01*
X121862001Y-140894000D01*
G75*
G02*
X122112000Y-141143999I0J-249999D01*
G01*
X122112000Y-141844001D01*
G75*
G02*
X121862001Y-142094000I-249999J0D01*
G01*
G37*
G36*
G01*
X121862001Y-144094000D02*
X120961999Y-144094000D01*
G75*
G02*
X120712000Y-143844001I0J249999D01*
G01*
X120712000Y-143143999D01*
G75*
G02*
X120961999Y-142894000I249999J0D01*
G01*
X121862001Y-142894000D01*
G75*
G02*
X122112000Y-143143999I0J-249999D01*
G01*
X122112000Y-143844001D01*
G75*
G02*
X121862001Y-144094000I-249999J0D01*
G01*
G37*
%TD*%
%TO.C,R2*%
G36*
G01*
X121862001Y-137014000D02*
X120961999Y-137014000D01*
G75*
G02*
X120712000Y-136764001I0J249999D01*
G01*
X120712000Y-136063999D01*
G75*
G02*
X120961999Y-135814000I249999J0D01*
G01*
X121862001Y-135814000D01*
G75*
G02*
X122112000Y-136063999I0J-249999D01*
G01*
X122112000Y-136764001D01*
G75*
G02*
X121862001Y-137014000I-249999J0D01*
G01*
G37*
G36*
G01*
X121862001Y-139014000D02*
X120961999Y-139014000D01*
G75*
G02*
X120712000Y-138764001I0J249999D01*
G01*
X120712000Y-138063999D01*
G75*
G02*
X120961999Y-137814000I249999J0D01*
G01*
X121862001Y-137814000D01*
G75*
G02*
X122112000Y-138063999I0J-249999D01*
G01*
X122112000Y-138764001D01*
G75*
G02*
X121862001Y-139014000I-249999J0D01*
G01*
G37*
%TD*%
%TO.C,R1*%
G36*
G01*
X121862001Y-131680000D02*
X120961999Y-131680000D01*
G75*
G02*
X120712000Y-131430001I0J249999D01*
G01*
X120712000Y-130729999D01*
G75*
G02*
X120961999Y-130480000I249999J0D01*
G01*
X121862001Y-130480000D01*
G75*
G02*
X122112000Y-130729999I0J-249999D01*
G01*
X122112000Y-131430001D01*
G75*
G02*
X121862001Y-131680000I-249999J0D01*
G01*
G37*
G36*
G01*
X121862001Y-133680000D02*
X120961999Y-133680000D01*
G75*
G02*
X120712000Y-133430001I0J249999D01*
G01*
X120712000Y-132729999D01*
G75*
G02*
X120961999Y-132480000I249999J0D01*
G01*
X121862001Y-132480000D01*
G75*
G02*
X122112000Y-132729999I0J-249999D01*
G01*
X122112000Y-133430001D01*
G75*
G02*
X121862001Y-133680000I-249999J0D01*
G01*
G37*
%TD*%
D23*
%TO.C,Q2*%
X200898000Y-71374000D03*
X198898000Y-70424000D03*
X198898000Y-72324000D03*
%TD*%
D24*
%TO.C,Q1*%
X109662000Y-127678000D03*
X107762000Y-127678000D03*
X107762000Y-129878000D03*
D25*
X109482000Y-129878000D03*
%TD*%
D16*
%TO.C,LCD1*%
X179070000Y-128270000D03*
X179070000Y-125730000D03*
X179070000Y-123190000D03*
X179070000Y-120650000D03*
X179070000Y-118110000D03*
X179070000Y-115570000D03*
X179070000Y-113030000D03*
D17*
X179070000Y-110490000D03*
%TD*%
D16*
%TO.C,J4*%
X187858400Y-136220200D03*
X187858400Y-138760200D03*
D17*
X187858400Y-141300200D03*
%TD*%
D26*
%TO.C,J1*%
X127285000Y-85020000D03*
D10*
X127285000Y-106020000D03*
%TD*%
D23*
%TO.C,D4*%
X152460200Y-82550000D03*
X150460200Y-81600000D03*
X150460200Y-83500000D03*
%TD*%
%TO.C,C5*%
G36*
G01*
X118054100Y-65842300D02*
X119004100Y-65842300D01*
G75*
G02*
X119254100Y-66092300I0J-250000D01*
G01*
X119254100Y-66767300D01*
G75*
G02*
X119004100Y-67017300I-250000J0D01*
G01*
X118054100Y-67017300D01*
G75*
G02*
X117804100Y-66767300I0J250000D01*
G01*
X117804100Y-66092300D01*
G75*
G02*
X118054100Y-65842300I250000J0D01*
G01*
G37*
G36*
G01*
X118054100Y-63767300D02*
X119004100Y-63767300D01*
G75*
G02*
X119254100Y-64017300I0J-250000D01*
G01*
X119254100Y-64692300D01*
G75*
G02*
X119004100Y-64942300I-250000J0D01*
G01*
X118054100Y-64942300D01*
G75*
G02*
X117804100Y-64692300I0J250000D01*
G01*
X117804100Y-64017300D01*
G75*
G02*
X118054100Y-63767300I250000J0D01*
G01*
G37*
%TD*%
%TO.C,C4*%
G36*
G01*
X130677900Y-65753400D02*
X131627900Y-65753400D01*
G75*
G02*
X131877900Y-66003400I0J-250000D01*
G01*
X131877900Y-66678400D01*
G75*
G02*
X131627900Y-66928400I-250000J0D01*
G01*
X130677900Y-66928400D01*
G75*
G02*
X130427900Y-66678400I0J250000D01*
G01*
X130427900Y-66003400D01*
G75*
G02*
X130677900Y-65753400I250000J0D01*
G01*
G37*
G36*
G01*
X130677900Y-63678400D02*
X131627900Y-63678400D01*
G75*
G02*
X131877900Y-63928400I0J-250000D01*
G01*
X131877900Y-64603400D01*
G75*
G02*
X131627900Y-64853400I-250000J0D01*
G01*
X130677900Y-64853400D01*
G75*
G02*
X130427900Y-64603400I0J250000D01*
G01*
X130427900Y-63928400D01*
G75*
G02*
X130677900Y-63678400I250000J0D01*
G01*
G37*
%TD*%
%TO.C,C3*%
G36*
G01*
X142158700Y-65753400D02*
X143108700Y-65753400D01*
G75*
G02*
X143358700Y-66003400I0J-250000D01*
G01*
X143358700Y-66678400D01*
G75*
G02*
X143108700Y-66928400I-250000J0D01*
G01*
X142158700Y-66928400D01*
G75*
G02*
X141908700Y-66678400I0J250000D01*
G01*
X141908700Y-66003400D01*
G75*
G02*
X142158700Y-65753400I250000J0D01*
G01*
G37*
G36*
G01*
X142158700Y-63678400D02*
X143108700Y-63678400D01*
G75*
G02*
X143358700Y-63928400I0J-250000D01*
G01*
X143358700Y-64603400D01*
G75*
G02*
X143108700Y-64853400I-250000J0D01*
G01*
X142158700Y-64853400D01*
G75*
G02*
X141908700Y-64603400I0J250000D01*
G01*
X141908700Y-63928400D01*
G75*
G02*
X142158700Y-63678400I250000J0D01*
G01*
G37*
%TD*%
%TO.C,C1*%
G36*
G01*
X147378000Y-91053900D02*
X147378000Y-92003900D01*
G75*
G02*
X147128000Y-92253900I-250000J0D01*
G01*
X146453000Y-92253900D01*
G75*
G02*
X146203000Y-92003900I0J250000D01*
G01*
X146203000Y-91053900D01*
G75*
G02*
X146453000Y-90803900I250000J0D01*
G01*
X147128000Y-90803900D01*
G75*
G02*
X147378000Y-91053900I0J-250000D01*
G01*
G37*
G36*
G01*
X149453000Y-91053900D02*
X149453000Y-92003900D01*
G75*
G02*
X149203000Y-92253900I-250000J0D01*
G01*
X148528000Y-92253900D01*
G75*
G02*
X148278000Y-92003900I0J250000D01*
G01*
X148278000Y-91053900D01*
G75*
G02*
X148528000Y-90803900I250000J0D01*
G01*
X149203000Y-90803900D01*
G75*
G02*
X149453000Y-91053900I0J-250000D01*
G01*
G37*
%TD*%
M02*
